<svg width="24" height="24" viewBox="0 0 24 24" fill="none" xmlns="http://www.w3.org/2000/svg">
<path d="M6.32031 4.8418C7.39431 6.4198 8.78331 8.2228 9.87531 9.3358" stroke="#282A2E" stroke-linecap="round" stroke-linejoin="round"/>
<path d="M14.6602 14.1509C16.0972 15.4049 17.8762 16.8089 19.2142 17.6069" stroke="#282A2E" stroke-linecap="round" stroke-linejoin="round"/>
<path d="M11.0379 12.963C8.63794 10.563 9.15994 10.074 9.53494 9.69899L10.2039 9.02999C10.5669 8.66699 10.6329 8.25299 10.3389 7.88699C9.61894 6.98399 8.59294 5.63399 7.88194 4.72199C7.44094 4.15799 6.35794 4.52099 5.52094 5.35799C4.75294 6.12599 4.18894 7.59299 4.57294 8.79899C5.07394 10.365 7.03294 13.143 8.94394 15.054C10.8549 16.965 13.6359 18.924 15.1989 19.425C16.4049 19.812 17.8719 19.245 18.6399 18.477C19.4769 17.64 19.8399 16.557 19.2759 16.116C18.3639 15.405 17.0139 14.379 16.1109 13.659C15.7449 13.368 15.3309 13.431 14.9679 13.794C14.7819 13.98 14.5239 14.238 14.2989 14.463C13.9239 14.838 13.4349 15.36 11.0349 12.96L11.0379 12.963Z" stroke="#282A2E" stroke-linecap="round" stroke-linejoin="round"/>
</svg>
