<svg width="155" height="37" viewBox="0 0 155 37" fill="none" xmlns="http://www.w3.org/2000/svg">
<path d="M7.22949 0.0302734C7.55115 0.0302822 7.76562 0.246079 7.76562 0.553711V23.042C7.76567 27.3334 10.1397 29.7792 13.7852 29.7793C17.4307 29.7793 19.7441 27.3335 19.7441 23.042V0.553711C19.7441 0.230691 19.9583 0.0302734 20.2646 0.0302734H26.9736C27.2953 0.0302734 27.4941 0.246072 27.4941 0.553711V22.8262C27.4941 31.7937 21.7966 36.6697 13.7705 36.6699C5.74416 36.6699 0 31.7938 0 22.8262V0.553711C0 0.230691 0.214159 0.0302734 0.520508 0.0302734H7.22949Z" fill="white"/>
<path fill-rule="evenodd" clip-rule="evenodd" d="M92.3027 9.8291C100.651 9.82913 103.653 12.6898 103.653 19.1191V35.5625C103.653 35.8855 103.438 36.1016 103.132 36.1016H97.2812L97.2656 36.0859C96.9441 36.0859 96.7453 35.8706 96.7451 35.5479V33.8555H96.6836C95.3663 35.5475 93.145 36.6699 89.668 36.6699C86.1909 36.6699 81.167 34.2858 81.167 28.8252C81.1671 23.3648 85.4409 20.5498 91.7822 20.5498H96.3154C96.5299 20.5498 96.6377 20.4419 96.6377 20.2266V19.2734C96.6377 16.8892 95.4732 15.7666 91.4141 15.7666C87.3551 15.7666 86.9259 16.5046 85.7158 17.4121C85.4555 17.6273 85.1948 17.5661 85.0264 17.3047L82.6523 13.1201C82.4994 12.7973 82.5454 12.5356 82.8057 12.3818C84.9654 10.8437 88.0905 9.8291 92.3027 9.8291ZM92.7158 25.4727C89.6068 25.4727 88.1827 26.3798 88.1826 28.3945C88.1826 30.4096 89.4539 31.1016 91.874 31.1016C94.2941 31.1015 96.622 29.9329 96.6221 27.5488V25.7949C96.622 25.5799 96.5149 25.4728 96.3008 25.4727H92.7158Z" fill="white"/>
<path d="M68.7295 0.015625C76.541 0.015768 80.1864 3.87603 80.1865 9.61328C80.1865 13.5356 78.3946 15.9818 76.0205 17.3047L75.9893 17.4277C78.3788 18.3353 80.7988 18.4893 80.7988 25.5957C80.7986 32.7019 76.1115 36.1016 68.3457 36.1016H64.8389C64.5632 36.1016 64.3331 35.8705 64.333 35.5938V30.2871C64.333 30.0102 64.5632 29.7793 64.8389 29.7793H68.1934C71.3637 29.7791 73.0487 28.0256 73.0488 25.2725C73.0488 22.5192 71.3638 20.7658 68.1934 20.7656H64.8389C64.5632 20.7656 64.333 20.5347 64.333 20.2578V15.2744C64.333 14.9975 64.5632 14.7666 64.8389 14.7666H67.7793C70.7356 14.7666 72.4814 13.1662 72.4814 10.5205C72.4812 7.87511 70.7354 6.33691 67.7793 6.33691H64.8389C64.5632 6.33691 64.333 6.10598 64.333 5.8291V0.522461C64.3332 0.245711 64.5632 0.015625 64.8389 0.015625H68.7295Z" fill="white"/>
<path d="M137.505 0.015625C137.826 0.0158314 138.025 0.230845 138.025 0.553711V20.0273L145.362 10.9521C145.684 10.583 145.944 10.4131 146.373 10.4131H153.128C153.45 10.4131 153.557 10.7368 153.343 10.9521L145.531 20.0273L154.445 35.5625C154.598 35.7777 154.492 36.1013 154.186 36.1016H147.17L147.154 36.0859C146.787 36.0859 146.573 35.9319 146.358 35.5479L140.66 25.2109L138.025 28.5029V35.5625C138.025 35.8854 137.811 36.1013 137.505 36.1016H131.163C130.841 36.1016 130.643 35.8855 130.643 35.5625V0.553711C130.643 0.230691 130.857 0.015625 131.163 0.015625H137.505Z" fill="white"/>
<path d="M43.7773 9.81348C49.4291 9.81367 52.4921 13.7358 52.4922 19.3652V35.5479C52.492 35.8706 52.2779 36.0859 51.9717 36.0859H45.6299C45.3086 36.0857 45.1096 35.8705 45.1094 35.5479V20.7959C45.1093 17.9812 43.7923 16.1359 41.1426 16.1357C38.4927 16.1357 37.129 17.9965 37.1289 20.7959V35.5479C37.1287 35.8706 36.9146 36.0859 36.6084 36.0859H30.2822C29.9607 36.0859 29.7463 35.8706 29.7461 35.5479V10.9365C29.7461 10.6135 29.9606 10.3975 30.2822 10.3975H36.6084C36.93 10.3975 37.1289 10.6135 37.1289 10.9365V12.7363H37.1748C38.3389 11.152 40.4994 9.81348 43.7773 9.81348Z" fill="white"/>
<path d="M61.4531 10.4131C61.7748 10.4131 61.9893 10.6291 61.9893 10.9521V35.5625C61.9893 35.8855 61.7748 36.0859 61.4531 36.0859H55.127C54.8054 36.0858 54.6064 35.8701 54.6064 35.5625V10.9521C54.6064 10.6292 54.8207 10.4132 55.127 10.4131H61.4531Z" fill="white"/>
<path d="M119.812 9.81348C125.465 9.81348 128.528 13.7356 128.528 19.3652V35.5479C128.528 35.8705 128.314 36.0858 128.008 36.0859H121.666C121.345 36.0859 121.146 35.8706 121.146 35.5479V20.7959C121.145 17.9811 119.828 16.1357 117.178 16.1357C114.528 16.1359 113.165 17.9967 113.165 20.7959V35.5479C113.165 35.8705 112.951 36.0858 112.645 36.0859H106.318C105.997 36.0859 105.782 35.8706 105.782 35.5479V10.9365C105.782 10.6135 105.997 10.3975 106.318 10.3975H112.645C112.966 10.3976 113.165 10.6136 113.165 10.9365V12.7363H113.211C114.375 11.152 116.535 9.81355 119.812 9.81348Z" fill="white"/>
<path d="M61.4531 0C61.7748 0 61.9892 0.215087 61.9893 0.538086V5.7832C61.9893 6.10622 61.7748 6.32129 61.4531 6.32129H55.127C54.8054 6.3212 54.6064 6.10616 54.6064 5.7832V0.538086C54.6065 0.215157 54.8207 9.41115e-05 55.127 0H61.4531Z" fill="white"/>
</svg>
