<svg width="150" height="36" viewBox="0 0 150 36" fill="none" xmlns="http://www.w3.org/2000/svg">
<path d="M7.01826 0.0293889C7.33052 0.0293974 7.53873 0.238889 7.53873 0.537533V22.3688C7.53877 26.5348 9.84348 28.9091 13.3824 28.9092C16.9214 28.9092 19.1672 26.5349 19.1673 22.3688V0.537533C19.1673 0.22395 19.3752 0.0293889 19.6726 0.0293889H26.1855C26.4978 0.0293889 26.6908 0.238883 26.6908 0.537533V22.1592C26.6908 30.8647 21.1597 35.5983 13.3682 35.5985C5.57633 35.5985 0 30.8649 0 22.1592V0.537533C0 0.22395 0.207901 0.0293889 0.5053 0.0293889H7.01826Z" fill="white"/>
<path fill-rule="evenodd" clip-rule="evenodd" d="M89.6058 9.54192C97.7097 9.54194 100.625 12.319 100.625 18.5605V34.5234C100.625 34.837 100.416 35.0467 100.119 35.0467H94.4389L94.4237 35.0316C94.1116 35.0316 93.9186 34.8226 93.9184 34.5092V32.8663H93.8587C92.5799 34.5089 90.4235 35.5985 87.0481 35.5985C83.6726 35.5985 78.7955 33.284 78.7955 27.983C78.7956 22.6821 82.9445 19.9494 89.1005 19.9494H93.5013C93.7095 19.9494 93.8141 19.8446 93.8141 19.6356V18.7103C93.8141 16.3958 92.6837 15.3059 88.7431 15.3059C84.8027 15.306 84.3861 16.0224 83.2114 16.9034C82.9587 17.1122 82.7056 17.0529 82.5421 16.7991L80.2374 12.7368C80.089 12.4234 80.1336 12.1693 80.3863 12.0201C82.4829 10.5268 85.5167 9.54192 89.6058 9.54192ZM90.0069 24.7284C86.9886 24.7285 85.6062 25.609 85.6061 27.5649C85.6061 29.5211 86.8402 30.1928 89.1897 30.1928C91.539 30.1927 93.799 29.0583 93.799 26.7439V25.0412C93.7989 24.8325 93.695 24.7285 93.4871 24.7284H90.0069Z" fill="white"/>
<path d="M66.7214 0.0151685C74.3046 0.0153073 77.8436 3.76278 77.8436 9.3324C77.8436 13.1401 76.1041 15.5149 73.7993 16.7991L73.769 16.9185C76.0887 17.7995 78.4381 17.949 78.4381 24.8479C78.4379 31.7464 73.8877 35.0467 66.3488 35.0467H62.9444C62.6768 35.0467 62.4534 34.8225 62.4533 34.5538V29.4022C62.4533 29.1334 62.6768 28.9092 62.9444 28.9092H66.2009C69.2786 28.9091 70.9144 27.2067 70.9145 24.5341C70.9145 21.8613 69.2787 20.159 66.2009 20.1589H62.9444C62.6768 20.1589 62.4534 19.9347 62.4533 19.6659V14.8281C62.4533 14.5593 62.6768 14.3352 62.9444 14.3352H65.7989C68.6688 14.3352 70.3637 12.7815 70.3637 10.2131C70.3635 7.64502 68.6686 6.15176 65.7989 6.15176H62.9444C62.6768 6.15176 62.4533 5.92757 62.4533 5.65879V0.507196C62.4535 0.238532 62.6768 0.0151685 62.9444 0.0151685H66.7214Z" fill="white"/>
<path d="M133.487 0.0151685C133.799 0.0153688 133.993 0.224101 133.993 0.537533V19.4422L141.115 10.6321C141.427 10.2738 141.68 10.1089 142.096 10.1088H148.654C148.966 10.1088 149.071 10.4231 148.862 10.6321L141.279 19.4422L149.933 34.5234C150.081 34.7324 149.978 35.0465 149.681 35.0467H142.87L142.855 35.0316C142.498 35.0316 142.29 34.8821 142.082 34.5092L136.55 24.4743L133.993 27.6701V34.5234C133.993 34.8369 133.784 35.0465 133.487 35.0467H127.331C127.019 35.0467 126.825 34.837 126.825 34.5234V0.537533C126.825 0.22395 127.033 0.0151685 127.331 0.0151685H133.487Z" fill="white"/>
<path d="M42.4983 9.52675C47.9849 9.52694 50.9583 13.3345 50.9585 18.7994V34.5092C50.9583 34.8226 50.7504 35.0316 50.4532 35.0316H44.2967C43.9848 35.0314 43.7916 34.8224 43.7914 34.5092V20.1883C43.7913 17.4558 42.5127 15.6644 39.9405 15.6643C37.368 15.6643 36.0441 17.4707 36.0441 20.1883V34.5092C36.0439 34.8225 35.836 35.0316 35.5388 35.0316H29.3974C29.0853 35.0316 28.8772 34.8225 28.877 34.5092V10.617C28.877 10.3034 29.0852 10.0937 29.3974 10.0937H35.5388C35.851 10.0937 36.0441 10.3034 36.0441 10.617V12.3642H36.0886C37.2188 10.8262 39.3161 9.52675 42.4983 9.52675Z" fill="white"/>
<path d="M59.6576 10.1088C59.9699 10.1088 60.1781 10.3186 60.1781 10.6321V34.5234C60.1781 34.837 59.9699 35.0316 59.6576 35.0316H53.5163C53.2041 35.0315 53.011 34.822 53.011 34.5234V10.6321C53.011 10.3186 53.219 10.1089 53.5163 10.1088H59.6576Z" fill="white"/>
<path d="M116.312 9.52675C121.799 9.52675 124.773 13.3343 124.773 18.7994V34.5092C124.773 34.8225 124.565 35.0315 124.268 35.0316H118.111C117.799 35.0315 117.606 34.8225 117.606 34.5092V20.1883C117.606 17.4558 116.326 15.6643 113.754 15.6643C111.182 15.6645 109.859 17.4708 109.859 20.1883V34.5092C109.858 34.8224 109.65 35.0314 109.353 35.0316H103.212C102.9 35.0316 102.692 34.8226 102.691 34.5092V10.617C102.691 10.3034 102.9 10.0937 103.212 10.0937H109.353C109.665 10.0938 109.859 10.3035 109.859 10.617V12.3642H109.903C111.033 10.8262 113.13 9.52682 116.312 9.52675Z" fill="white"/>
<path d="M59.6576 0C59.9698 0 60.178 0.208802 60.1781 0.522364V5.61423C60.1781 5.92781 59.9699 6.13659 59.6576 6.13659H53.5163C53.2041 6.13651 53.011 5.92775 53.011 5.61423V0.522364C53.011 0.208871 53.219 9.13618e-05 53.5163 0H59.6576Z" fill="white"/>
</svg>
