<svg width="24" height="24" viewBox="0 0 24 24" fill="none" xmlns="http://www.w3.org/2000/svg">
<path d="M12 4.2002H14.7V6.0002H12" stroke="#282A2E" stroke-width="0.75" stroke-linecap="round" stroke-linejoin="round"/>
<path d="M12 3.8999V9.5999" stroke="#282A2E" stroke-width="0.75" stroke-linecap="round" stroke-linejoin="round"/>
<path d="M20.7008 20.1001H3.30078" stroke="#282A2E" stroke-width="0.75" stroke-linecap="round" stroke-linejoin="round"/>
<path d="M6.29922 12.6001H5.69922V13.2001H6.29922V12.6001Z" stroke="#282A2E" stroke-width="0.75" stroke-miterlimit="10" stroke-linecap="round"/>
<path d="M8.1 12.6001H7.5V13.2001H8.1V12.6001Z" stroke="#282A2E" stroke-width="0.75" stroke-miterlimit="10" stroke-linecap="round"/>
<path d="M6.29922 14.3999H5.69922V14.9999H6.29922V14.3999Z" stroke="#282A2E" stroke-width="0.75" stroke-miterlimit="10" stroke-linecap="round"/>
<path d="M8.1 14.3999H7.5V14.9999H8.1V14.3999Z" stroke="#282A2E" stroke-width="0.75" stroke-miterlimit="10" stroke-linecap="round"/>
<path d="M6.29922 16.2002H5.69922V16.8002H6.29922V16.2002Z" stroke="#282A2E" stroke-width="0.75" stroke-miterlimit="10" stroke-linecap="round"/>
<path d="M8.1 16.2002H7.5V16.8002H8.1V16.2002Z" stroke="#282A2E" stroke-width="0.75" stroke-miterlimit="10" stroke-linecap="round"/>
<path d="M6.29922 18H5.69922V18.6H6.29922V18Z" stroke="#282A2E" stroke-width="0.75" stroke-miterlimit="10" stroke-linecap="round"/>
<path d="M8.1 18H7.5V18.6H8.1V18Z" stroke="#282A2E" stroke-width="0.75" stroke-miterlimit="10" stroke-linecap="round"/>
<path d="M16.5004 12.6001H15.9004V13.2001H16.5004V12.6001Z" stroke="#282A2E" stroke-width="0.75" stroke-miterlimit="10" stroke-linecap="round"/>
<path d="M18.2992 12.6001H17.6992V13.2001H18.2992V12.6001Z" stroke="#282A2E" stroke-width="0.75" stroke-miterlimit="10" stroke-linecap="round"/>
<path d="M16.5004 14.3999H15.9004V14.9999H16.5004V14.3999Z" stroke="#282A2E" stroke-width="0.75" stroke-miterlimit="10" stroke-linecap="round"/>
<path d="M18.2992 14.3999H17.6992V14.9999H18.2992V14.3999Z" stroke="#282A2E" stroke-width="0.75" stroke-miterlimit="10" stroke-linecap="round"/>
<path d="M16.5004 16.2002H15.9004V16.8002H16.5004V16.2002Z" stroke="#282A2E" stroke-width="0.75" stroke-miterlimit="10" stroke-linecap="round"/>
<path d="M18.2992 16.2002H17.6992V16.8002H18.2992V16.2002Z" stroke="#282A2E" stroke-width="0.75" stroke-miterlimit="10" stroke-linecap="round"/>
<path d="M16.5004 18H15.9004V18.6H16.5004V18Z" stroke="#282A2E" stroke-width="0.75" stroke-miterlimit="10" stroke-linecap="round"/>
<path d="M18.2992 18H17.6992V18.6H18.2992V18Z" stroke="#282A2E" stroke-width="0.75" stroke-miterlimit="10" stroke-linecap="round"/>
<path d="M10.5004 12.6001H9.90039V13.2001H10.5004V12.6001Z" stroke="#282A2E" stroke-width="0.75" stroke-miterlimit="10" stroke-linecap="round"/>
<path d="M12.2992 12.6001H11.6992V13.2001H12.2992V12.6001Z" stroke="#282A2E" stroke-width="0.75" stroke-miterlimit="10" stroke-linecap="round"/>
<path d="M14.1 12.6001H13.5V13.2001H14.1V12.6001Z" stroke="#282A2E" stroke-width="0.75" stroke-miterlimit="10" stroke-linecap="round"/>
<path d="M10.5004 14.3999H9.90039V14.9999H10.5004V14.3999Z" stroke="#282A2E" stroke-width="0.75" stroke-miterlimit="10" stroke-linecap="round"/>
<path d="M12.2992 14.3999H11.6992V14.9999H12.2992V14.3999Z" stroke="#282A2E" stroke-width="0.75" stroke-miterlimit="10" stroke-linecap="round"/>
<path d="M14.1 14.3999H13.5V14.9999H14.1V14.3999Z" stroke="#282A2E" stroke-width="0.75" stroke-miterlimit="10" stroke-linecap="round"/>
<path d="M14.1004 20.1V16.5H9.90039V20.1" stroke="#282A2E" stroke-linecap="round" stroke-linejoin="round"/>
<path d="M19.7992 11.1001V20.1001H4.19922V11.1001" stroke="#282A2E" stroke-linecap="round" stroke-linejoin="round"/>
<path d="M13.2008 8.1001H17.7008L20.7008 11.1001H3.30078L6.30078 8.1001H10.8008" stroke="#282A2E" stroke-linecap="round" stroke-linejoin="round"/>
<path d="M11.4004 9.6001H12.6004" stroke="#282A2E" stroke-linecap="round" stroke-linejoin="round"/>
<path d="M12 16.5V20.1" stroke="#282A2E" stroke-linecap="round" stroke-linejoin="round"/>
</svg>
