<svg width="48" height="48" viewBox="0 0 48 48" fill="none" xmlns="http://www.w3.org/2000/svg">
<path d="M14.6152 25.176V8.67599C14.6152 6.20399 16.6192 4.18799 19.1032 4.18799H40.3432C42.8152 4.18799 44.8312 6.19199 44.8312 8.67599V36.828C44.8312 39.3 42.8272 41.316 40.3432 41.316H21.4792" stroke="#282A2E" stroke-width="1.5" stroke-linecap="round" stroke-linejoin="round"/>
<path d="M21.9838 21.2161H20.7358C19.7815 21.2161 19.0078 21.9897 19.0078 22.9441V23.1241C19.0078 24.0784 19.7815 24.8521 20.7358 24.8521H21.9838C22.9382 24.8521 23.7118 24.0784 23.7118 23.1241V22.9441C23.7118 21.9897 22.9382 21.2161 21.9838 21.2161Z" stroke="#282A2E" stroke-width="1.5" stroke-linecap="round" stroke-linejoin="round"/>
<path d="M30.3471 21.2161H29.0991C28.1447 21.2161 27.3711 21.9897 27.3711 22.9441V23.1241C27.3711 24.0784 28.1447 24.8521 29.0991 24.8521H30.3471C31.3014 24.8521 32.0751 24.0784 32.0751 23.1241V22.9441C32.0751 21.9897 31.3014 21.2161 30.3471 21.2161Z" stroke="#282A2E" stroke-width="1.5" stroke-linecap="round" stroke-linejoin="round"/>
<path d="M38.6987 21.2161H37.4507C36.4963 21.2161 35.7227 21.9897 35.7227 22.9441V23.1241C35.7227 24.0784 36.4963 24.8521 37.4507 24.8521H38.6987C39.653 24.8521 40.4267 24.0784 40.4267 23.1241V22.9441C40.4267 21.9897 39.653 21.2161 38.6987 21.2161Z" stroke="#282A2E" stroke-width="1.5" stroke-linecap="round" stroke-linejoin="round"/>
<path d="M19.5234 27.912C19.8354 27.6 20.2674 27.408 20.7474 27.408H21.9834C22.9314 27.408 23.7114 28.188 23.7114 29.136V29.304C23.7114 30.012 23.2674 30.636 22.6554 30.9" stroke="#282A2E" stroke-width="1.5" stroke-linecap="round" stroke-linejoin="round"/>
<path d="M23.0043 34.092C23.4363 34.404 23.7123 34.92 23.7123 35.484V35.652C23.7123 36.36 23.2683 36.984 22.6562 37.248" stroke="#282A2E" stroke-width="1.5" stroke-linecap="round" stroke-linejoin="round"/>
<path d="M30.3471 27.408H29.0991C28.1447 27.408 27.3711 28.1816 27.3711 29.136V29.316C27.3711 30.2703 28.1447 31.044 29.0991 31.044H30.3471C31.3014 31.044 32.0751 30.2703 32.0751 29.316V29.136C32.0751 28.1816 31.3014 27.408 30.3471 27.408Z" stroke="#282A2E" stroke-width="1.5" stroke-linecap="round" stroke-linejoin="round"/>
<path d="M38.6987 27.408H37.4507C36.4963 27.408 35.7227 28.1816 35.7227 29.136V29.316C35.7227 30.2703 36.4963 31.044 37.4507 31.044H38.6987C39.653 31.044 40.4267 30.2703 40.4267 29.316V29.136C40.4267 28.1816 39.653 27.408 38.6987 27.408Z" stroke="#282A2E" stroke-width="1.5" stroke-linecap="round" stroke-linejoin="round"/>
<path d="M30.3471 33.7561H29.0991C28.1447 33.7561 27.3711 34.5298 27.3711 35.4841V35.6641C27.3711 36.6184 28.1447 37.3921 29.0991 37.3921H30.3471C31.3014 37.3921 32.0751 36.6184 32.0751 35.6641V35.4841C32.0751 34.5298 31.3014 33.7561 30.3471 33.7561Z" stroke="#282A2E" stroke-width="1.5" stroke-linecap="round" stroke-linejoin="round"/>
<path d="M38.6987 33.7561H37.4507C36.4963 33.7561 35.7227 34.5298 35.7227 35.4841V35.6641C35.7227 36.6184 36.4963 37.3921 37.4507 37.3921H38.6987C39.653 37.3921 40.4267 36.6184 40.4267 35.6641V35.4841C40.4267 34.5298 39.653 33.7561 38.6987 33.7561Z" stroke="#282A2E" stroke-width="1.5" stroke-linecap="round" stroke-linejoin="round"/>
<path d="M40.4158 8.11206H19.0078V17.8201H40.4158V8.11206Z" stroke="#282A2E" stroke-width="1.5" stroke-linecap="round" stroke-linejoin="round"/>
<path d="M13.4035 44.424C18.5862 44.424 22.7875 40.2226 22.7875 35.04C22.7875 29.8574 18.5862 25.656 13.4035 25.656C8.22089 25.656 4.01953 29.8574 4.01953 35.04C4.01953 40.2226 8.22089 44.424 13.4035 44.424Z" stroke="#282A2E" stroke-width="1.5" stroke-linecap="round" stroke-linejoin="round"/>
<path d="M10.4995 33.42C11.361 33.42 12.0595 32.7216 12.0595 31.86C12.0595 30.9985 11.361 30.3 10.4995 30.3C9.63789 30.3 8.93945 30.9985 8.93945 31.86C8.93945 32.7216 9.63789 33.42 10.4995 33.42Z" stroke="#282A2E" stroke-width="1.5" stroke-linecap="round" stroke-linejoin="round"/>
<path d="M16.7514 39.504C17.613 39.504 18.3114 38.8056 18.3114 37.944C18.3114 37.0825 17.613 36.384 16.7514 36.384C15.8898 36.384 15.1914 37.0825 15.1914 37.944C15.1914 38.8056 15.8898 39.504 16.7514 39.504Z" stroke="#282A2E" stroke-width="1.5" stroke-linecap="round" stroke-linejoin="round"/>
<path d="M10.3203 39.372L16.6203 30.228" stroke="#282A2E" stroke-width="1.5" stroke-linecap="round" stroke-linejoin="round"/>
</svg>
