<svg width="40" height="40" viewBox="0 0 40 40" fill="none" xmlns="http://www.w3.org/2000/svg">
<rect width="40" height="40" rx="20" fill="#00525B"/>
<path d="M13 11.5H27C27.3978 11.5 27.7792 11.6581 28.0605 11.9395C28.3419 12.2208 28.5 12.6022 28.5 13V27C28.5 27.3978 28.3419 27.7792 28.0605 28.0605C27.7792 28.3419 27.3978 28.5 27 28.5H13C12.6022 28.5 12.2208 28.3419 11.9395 28.0605C11.6581 27.7792 11.5 27.3978 11.5 27V13C11.5 12.6022 11.6581 12.2208 11.9395 11.9395C12.2208 11.6581 12.6022 11.5 13 11.5ZM13 27H16.7695V17.6299H13V27ZM23.2402 17.4404C22.6307 17.4404 21.9731 17.6581 21.4199 18.0322V17.6299H17.6299V27H21.4199V21.5703C21.4199 21.0719 21.8206 20.6702 22.3096 20.6699C22.5482 20.6699 22.7775 20.7648 22.9463 20.9336C23.1151 21.1024 23.21 21.3316 23.21 21.5703V27H27V21.2002C27 20.203 26.6036 19.2462 25.8984 18.541C25.1934 17.8361 24.2372 17.4405 23.2402 17.4404ZM14.8799 12.6904C14.2991 12.6905 13.7417 12.9204 13.3311 13.3311C12.9204 13.7417 12.6905 14.2991 12.6904 14.8799C12.6904 16.0898 13.6777 17.0595 14.8799 17.0596C15.4581 17.0596 16.013 16.8307 16.4219 16.4219C16.8307 16.013 17.0596 15.4581 17.0596 14.8799C17.0595 13.6777 16.0898 12.6904 14.8799 12.6904Z" fill="white" stroke="white"/>
</svg>
