<svg width="24" height="24" viewBox="0 0 24 24" fill="none" xmlns="http://www.w3.org/2000/svg">
<path d="M12 4.19922H14.7V5.99922H12" stroke="#00525B" stroke-width="0.75" stroke-linecap="round" stroke-linejoin="round"/>
<path d="M12 3.90039V9.60039" stroke="#00525B" stroke-width="0.75" stroke-linecap="round" stroke-linejoin="round"/>
<path d="M20.7008 20.0996H3.30078" stroke="#00525B" stroke-width="0.75" stroke-linecap="round" stroke-linejoin="round"/>
<path d="M6.29922 12.5996H5.69922V13.1996H6.29922V12.5996Z" stroke="#00525B" stroke-width="0.75" stroke-miterlimit="10" stroke-linecap="round"/>
<path d="M8.1 12.5996H7.5V13.1996H8.1V12.5996Z" stroke="#00525B" stroke-width="0.75" stroke-miterlimit="10" stroke-linecap="round"/>
<path d="M6.29922 14.4004H5.69922V15.0004H6.29922V14.4004Z" stroke="#00525B" stroke-width="0.75" stroke-miterlimit="10" stroke-linecap="round"/>
<path d="M8.1 14.4004H7.5V15.0004H8.1V14.4004Z" stroke="#00525B" stroke-width="0.75" stroke-miterlimit="10" stroke-linecap="round"/>
<path d="M6.29922 16.1992H5.69922V16.7992H6.29922V16.1992Z" stroke="#00525B" stroke-width="0.75" stroke-miterlimit="10" stroke-linecap="round"/>
<path d="M8.1 16.1992H7.5V16.7992H8.1V16.1992Z" stroke="#00525B" stroke-width="0.75" stroke-miterlimit="10" stroke-linecap="round"/>
<path d="M6.29922 18H5.69922V18.6H6.29922V18Z" stroke="#00525B" stroke-width="0.75" stroke-miterlimit="10" stroke-linecap="round"/>
<path d="M8.1 18H7.5V18.6H8.1V18Z" stroke="#00525B" stroke-width="0.75" stroke-miterlimit="10" stroke-linecap="round"/>
<path d="M16.5004 12.5996H15.9004V13.1996H16.5004V12.5996Z" stroke="#00525B" stroke-width="0.75" stroke-miterlimit="10" stroke-linecap="round"/>
<path d="M18.2992 12.5996H17.6992V13.1996H18.2992V12.5996Z" stroke="#00525B" stroke-width="0.75" stroke-miterlimit="10" stroke-linecap="round"/>
<path d="M16.5004 14.4004H15.9004V15.0004H16.5004V14.4004Z" stroke="#00525B" stroke-width="0.75" stroke-miterlimit="10" stroke-linecap="round"/>
<path d="M18.2992 14.4004H17.6992V15.0004H18.2992V14.4004Z" stroke="#00525B" stroke-width="0.75" stroke-miterlimit="10" stroke-linecap="round"/>
<path d="M16.5004 16.1992H15.9004V16.7992H16.5004V16.1992Z" stroke="#00525B" stroke-width="0.75" stroke-miterlimit="10" stroke-linecap="round"/>
<path d="M18.2992 16.1992H17.6992V16.7992H18.2992V16.1992Z" stroke="#00525B" stroke-width="0.75" stroke-miterlimit="10" stroke-linecap="round"/>
<path d="M16.5004 18H15.9004V18.6H16.5004V18Z" stroke="#00525B" stroke-width="0.75" stroke-miterlimit="10" stroke-linecap="round"/>
<path d="M18.2992 18H17.6992V18.6H18.2992V18Z" stroke="#00525B" stroke-width="0.75" stroke-miterlimit="10" stroke-linecap="round"/>
<path d="M10.5004 12.5996H9.90039V13.1996H10.5004V12.5996Z" stroke="#00525B" stroke-width="0.75" stroke-miterlimit="10" stroke-linecap="round"/>
<path d="M12.2992 12.5996H11.6992V13.1996H12.2992V12.5996Z" stroke="#00525B" stroke-width="0.75" stroke-miterlimit="10" stroke-linecap="round"/>
<path d="M14.1 12.5996H13.5V13.1996H14.1V12.5996Z" stroke="#00525B" stroke-width="0.75" stroke-miterlimit="10" stroke-linecap="round"/>
<path d="M10.5004 14.4004H9.90039V15.0004H10.5004V14.4004Z" stroke="#00525B" stroke-width="0.75" stroke-miterlimit="10" stroke-linecap="round"/>
<path d="M12.2992 14.4004H11.6992V15.0004H12.2992V14.4004Z" stroke="#00525B" stroke-width="0.75" stroke-miterlimit="10" stroke-linecap="round"/>
<path d="M14.1 14.4004H13.5V15.0004H14.1V14.4004Z" stroke="#00525B" stroke-width="0.75" stroke-miterlimit="10" stroke-linecap="round"/>
<path d="M14.1004 20.1V16.5H9.90039V20.1" stroke="#00525B" stroke-linecap="round" stroke-linejoin="round"/>
<path d="M19.7992 11.0996V20.0996H4.19922V11.0996" stroke="#00525B" stroke-linecap="round" stroke-linejoin="round"/>
<path d="M13.2008 8.09961H17.7008L20.7008 11.0996H3.30078L6.30078 8.09961H10.8008" stroke="#00525B" stroke-linecap="round" stroke-linejoin="round"/>
<path d="M11.4004 9.59961H12.6004" stroke="#00525B" stroke-linecap="round" stroke-linejoin="round"/>
<path d="M12 16.5V20.1" stroke="#00525B" stroke-linecap="round" stroke-linejoin="round"/>
</svg>
