<svg width="48" height="48" viewBox="0 0 48 48" fill="none" xmlns="http://www.w3.org/2000/svg">
<path d="M14.6152 25.1765V8.67648C14.6152 6.20448 16.6192 4.18848 19.1032 4.18848H40.3432C42.8152 4.18848 44.8312 6.19248 44.8312 8.67648V36.8285C44.8312 39.3005 42.8272 41.3165 40.3432 41.3165H21.4792" stroke="#00525B" stroke-width="1.5" stroke-linecap="round" stroke-linejoin="round"/>
<path d="M21.9838 21.2168H20.7358C19.7815 21.2168 19.0078 21.9904 19.0078 22.9448V23.1248C19.0078 24.0791 19.7815 24.8528 20.7358 24.8528H21.9838C22.9382 24.8528 23.7118 24.0791 23.7118 23.1248V22.9448C23.7118 21.9904 22.9382 21.2168 21.9838 21.2168Z" stroke="#00525B" stroke-width="1.5" stroke-linecap="round" stroke-linejoin="round"/>
<path d="M30.3471 21.2168H29.0991C28.1447 21.2168 27.3711 21.9904 27.3711 22.9448V23.1248C27.3711 24.0791 28.1447 24.8528 29.0991 24.8528H30.3471C31.3014 24.8528 32.0751 24.0791 32.0751 23.1248V22.9448C32.0751 21.9904 31.3014 21.2168 30.3471 21.2168Z" stroke="#00525B" stroke-width="1.5" stroke-linecap="round" stroke-linejoin="round"/>
<path d="M38.6987 21.2168H37.4507C36.4963 21.2168 35.7227 21.9904 35.7227 22.9448V23.1248C35.7227 24.0791 36.4963 24.8528 37.4507 24.8528H38.6987C39.653 24.8528 40.4267 24.0791 40.4267 23.1248V22.9448C40.4267 21.9904 39.653 21.2168 38.6987 21.2168Z" stroke="#00525B" stroke-width="1.5" stroke-linecap="round" stroke-linejoin="round"/>
<path d="M19.5234 27.9122C19.8354 27.6002 20.2674 27.4082 20.7474 27.4082H21.9834C22.9314 27.4082 23.7114 28.1882 23.7114 29.1362V29.3042C23.7114 30.0122 23.2674 30.6362 22.6554 30.9002" stroke="#00525B" stroke-width="1.5" stroke-linecap="round" stroke-linejoin="round"/>
<path d="M23.0043 34.0928C23.4363 34.4048 23.7123 34.9208 23.7123 35.4848V35.6528C23.7123 36.3608 23.2683 36.9848 22.6562 37.2488" stroke="#00525B" stroke-width="1.5" stroke-linecap="round" stroke-linejoin="round"/>
<path d="M30.3471 27.4082H29.0991C28.1447 27.4082 27.3711 28.1819 27.3711 29.1362V29.3162C27.3711 30.2706 28.1447 31.0442 29.0991 31.0442H30.3471C31.3014 31.0442 32.0751 30.2706 32.0751 29.3162V29.1362C32.0751 28.1819 31.3014 27.4082 30.3471 27.4082Z" stroke="#00525B" stroke-width="1.5" stroke-linecap="round" stroke-linejoin="round"/>
<path d="M38.6987 27.4082H37.4507C36.4963 27.4082 35.7227 28.1819 35.7227 29.1362V29.3162C35.7227 30.2706 36.4963 31.0442 37.4507 31.0442H38.6987C39.653 31.0442 40.4267 30.2706 40.4267 29.3162V29.1362C40.4267 28.1819 39.653 27.4082 38.6987 27.4082Z" stroke="#00525B" stroke-width="1.5" stroke-linecap="round" stroke-linejoin="round"/>
<path d="M30.3471 33.7568H29.0991C28.1447 33.7568 27.3711 34.5305 27.3711 35.4848V35.6648C27.3711 36.6192 28.1447 37.3928 29.0991 37.3928H30.3471C31.3014 37.3928 32.0751 36.6192 32.0751 35.6648V35.4848C32.0751 34.5305 31.3014 33.7568 30.3471 33.7568Z" stroke="#00525B" stroke-width="1.5" stroke-linecap="round" stroke-linejoin="round"/>
<path d="M38.6987 33.7568H37.4507C36.4963 33.7568 35.7227 34.5305 35.7227 35.4848V35.6648C35.7227 36.6192 36.4963 37.3928 37.4507 37.3928H38.6987C39.653 37.3928 40.4267 36.6192 40.4267 35.6648V35.4848C40.4267 34.5305 39.653 33.7568 38.6987 33.7568Z" stroke="#00525B" stroke-width="1.5" stroke-linecap="round" stroke-linejoin="round"/>
<path d="M40.4158 8.1123H19.0078V17.8203H40.4158V8.1123Z" stroke="#00525B" stroke-width="1.5" stroke-linecap="round" stroke-linejoin="round"/>
<path d="M13.4035 44.4242C18.5862 44.4242 22.7875 40.2229 22.7875 35.0403C22.7875 29.8576 18.5862 25.6562 13.4035 25.6562C8.22089 25.6562 4.01953 29.8576 4.01953 35.0403C4.01953 40.2229 8.22089 44.4242 13.4035 44.4242Z" stroke="#00525B" stroke-width="1.5" stroke-linecap="round" stroke-linejoin="round"/>
<path d="M10.4995 33.4208C11.361 33.4208 12.0595 32.7223 12.0595 31.8608C12.0595 30.9992 11.361 30.3008 10.4995 30.3008C9.63789 30.3008 8.93945 30.9992 8.93945 31.8608C8.93945 32.7223 9.63789 33.4208 10.4995 33.4208Z" stroke="#00525B" stroke-width="1.5" stroke-linecap="round" stroke-linejoin="round"/>
<path d="M16.7514 39.5048C17.613 39.5048 18.3114 38.8063 18.3114 37.9448C18.3114 37.0832 17.613 36.3848 16.7514 36.3848C15.8898 36.3848 15.1914 37.0832 15.1914 37.9448C15.1914 38.8063 15.8898 39.5048 16.7514 39.5048Z" stroke="#00525B" stroke-width="1.5" stroke-linecap="round" stroke-linejoin="round"/>
<path d="M10.3203 39.3725L16.6203 30.2285" stroke="#00525B" stroke-width="1.5" stroke-linecap="round" stroke-linejoin="round"/>
</svg>
