<svg width="65" height="64" viewBox="0 0 65 64" fill="none" xmlns="http://www.w3.org/2000/svg">
<path d="M46.05 11.552H18.458C16.8851 11.552 15.61 12.8271 15.61 14.4V49.608C15.61 51.1809 16.8851 52.456 18.458 52.456H46.05C47.6229 52.456 48.898 51.1809 48.898 49.608V14.4C48.898 12.8271 47.6229 11.552 46.05 11.552Z" stroke="#00525B" stroke-width="1.5" stroke-linecap="round" stroke-linejoin="round"/>
<path d="M24.274 30.304H21.818C21.0669 30.304 20.458 30.9128 20.458 31.664V32.944C20.458 33.6951 21.0669 34.304 21.818 34.304H24.274C25.0251 34.304 25.634 33.6951 25.634 32.944V31.664C25.634 30.9128 25.0251 30.304 24.274 30.304Z" stroke="#00525B" stroke-width="1.5" stroke-linecap="round" stroke-linejoin="round"/>
<path d="M33.474 30.304H31.018C30.2669 30.304 29.658 30.9128 29.658 31.664V32.944C29.658 33.6951 30.2669 34.304 31.018 34.304H33.474C34.2251 34.304 34.834 33.6951 34.834 32.944V31.664C34.834 30.9128 34.2251 30.304 33.474 30.304Z" stroke="#00525B" stroke-width="1.5" stroke-linecap="round" stroke-linejoin="round"/>
<path d="M42.682 30.304H40.226C39.4749 30.304 38.866 30.9128 38.866 31.664V32.944C38.866 33.6951 39.4749 34.304 40.226 34.304H42.682C43.4331 34.304 44.042 33.6951 44.042 32.944V31.664C44.042 30.9128 43.4331 30.304 42.682 30.304Z" stroke="#00525B" stroke-width="1.5" stroke-linecap="round" stroke-linejoin="round"/>
<path d="M24.274 37.12H21.818C21.0669 37.12 20.458 37.7289 20.458 38.48V39.76C20.458 40.5111 21.0669 41.12 21.818 41.12H24.274C25.0251 41.12 25.634 40.5111 25.634 39.76V38.48C25.634 37.7289 25.0251 37.12 24.274 37.12Z" stroke="#00525B" stroke-width="1.5" stroke-linecap="round" stroke-linejoin="round"/>
<path d="M33.474 37.12H31.018C30.2669 37.12 29.658 37.7289 29.658 38.48V39.76C29.658 40.5111 30.2669 41.12 31.018 41.12H33.474C34.2251 41.12 34.834 40.5111 34.834 39.76V38.48C34.834 37.7289 34.2251 37.12 33.474 37.12Z" stroke="#00525B" stroke-width="1.5" stroke-linecap="round" stroke-linejoin="round"/>
<path d="M42.682 37.12H40.226C39.4749 37.12 38.866 37.7289 38.866 38.48V39.76C38.866 40.5111 39.4749 41.12 40.226 41.12H42.682C43.4331 41.12 44.042 40.5111 44.042 39.76V38.48C44.042 37.7289 43.4331 37.12 42.682 37.12Z" stroke="#00525B" stroke-width="1.5" stroke-linecap="round" stroke-linejoin="round"/>
<path d="M24.274 44.1121H21.818C21.0669 44.1121 20.458 44.721 20.458 45.4721V46.7521C20.458 47.5032 21.0669 48.1121 21.818 48.1121H24.274C25.0251 48.1121 25.634 47.5032 25.634 46.7521V45.4721C25.634 44.721 25.0251 44.1121 24.274 44.1121Z" stroke="#00525B" stroke-width="1.5" stroke-linecap="round" stroke-linejoin="round"/>
<path d="M33.474 44.1121H31.018C30.2669 44.1121 29.658 44.721 29.658 45.4721V46.7521C29.658 47.5032 30.2669 48.1121 31.018 48.1121H33.474C34.2251 48.1121 34.834 47.5032 34.834 46.7521V45.4721C34.834 44.721 34.2251 44.1121 33.474 44.1121Z" stroke="#00525B" stroke-width="1.5" stroke-linecap="round" stroke-linejoin="round"/>
<path d="M42.682 44.1121H40.226C39.4749 44.1121 38.866 44.721 38.866 45.4721V46.7521C38.866 47.5032 39.4749 48.1121 40.226 48.1121H42.682C43.4331 48.1121 44.042 47.5032 44.042 46.7521V45.4721C44.042 44.721 43.4331 44.1121 42.682 44.1121Z" stroke="#00525B" stroke-width="1.5" stroke-linecap="round" stroke-linejoin="round"/>
<path d="M44.042 15.864H20.458V26.56H44.042V15.864Z" stroke="#00525B" stroke-width="1.5" stroke-linecap="round" stroke-linejoin="round"/>
</svg>
