<svg width="25" height="24" viewBox="0 0 25 24" fill="none" xmlns="http://www.w3.org/2000/svg">
<path d="M9.25001 19.8751C9.17584 19.8751 9.10334 19.8531 9.04167 19.8119C8.98 19.7707 8.93193 19.7121 8.90355 19.6436C8.87516 19.575 8.86774 19.4997 8.8822 19.4269C8.89667 19.3542 8.93239 19.2873 8.98483 19.2349L16.2197 12.0001L8.98483 4.76522C8.91459 4.69487 8.87516 4.59951 8.8752 4.5001C8.87524 4.40069 8.91475 4.30536 8.98505 4.23507C9.05534 4.16478 9.15067 4.12528 9.25008 4.12524C9.3495 4.12521 9.44485 4.16465 9.51519 4.2349L17.0152 11.7349C17.0855 11.8052 17.125 11.9006 17.125 12.0001C17.125 12.0995 17.0855 12.1949 17.0152 12.2652L9.51519 19.7652C9.48041 19.8001 9.43907 19.8277 9.39356 19.8466C9.34806 19.8654 9.29927 19.8751 9.25001 19.8751Z" fill="#00525B"/>
</svg>
