<svg width="22" height="22" viewBox="0 0 22 22" fill="none" xmlns="http://www.w3.org/2000/svg">
<path d="M13.6104 6.82617C13.9032 6.53328 14.379 6.53328 14.6719 6.82617C14.9642 7.11909 14.9645 7.594 14.6719 7.88672L11.8096 10.749L14.6748 13.6143C14.9674 13.9071 14.9675 14.382 14.6748 14.6748C14.382 14.9675 13.9071 14.9674 13.6143 14.6748L10.749 11.8096L7.88281 14.6748C7.58993 14.9673 7.11506 14.9675 6.82227 14.6748C6.52955 14.382 6.52971 13.9072 6.82227 13.6143L9.6875 10.749L6.8252 7.88672C6.53255 7.59401 6.53289 7.11909 6.8252 6.82617C7.11809 6.53328 7.59383 6.53328 7.88672 6.82617L10.749 9.68848L13.6104 6.82617Z" fill="#00525B"/>
<path fill-rule="evenodd" clip-rule="evenodd" d="M10.75 0C16.6871 0 21.5 4.81294 21.5 10.75C21.5 16.6871 16.6871 21.5 10.75 21.5C4.81294 21.5 0 16.6871 0 10.75C5.15422e-07 4.81294 4.81294 5.15406e-07 10.75 0ZM10.75 1.5C5.64137 1.5 1.5 5.64137 1.5 10.75C1.5 15.8586 5.64137 20 10.75 20C15.8586 20 20 15.8586 20 10.75C20 5.64137 15.8586 1.5 10.75 1.5Z" fill="#00525B"/>
</svg>
