<svg width="54" height="54" viewBox="0 0 54 54" fill="none" xmlns="http://www.w3.org/2000/svg">
<path d="M27 27.1418C27 23.9626 27.9922 20.6686 31.05 19.7168C34.0403 18.7853 36.45 16.3688 36.45 12.9668V10.2668" stroke="white" stroke-width="1.5" stroke-linejoin="round"/>
<path d="M43.5375 27.1621H10.4625C9.1577 27.1621 8.09998 28.2198 8.09998 29.5246V40.9996C8.09998 42.3044 9.1577 43.3621 10.4625 43.3621H43.5375C44.8423 43.3621 45.9 42.3044 45.9 40.9996V29.5246C45.9 28.2198 44.8423 27.1621 43.5375 27.1621Z" stroke="white" stroke-width="1.5" stroke-linejoin="round"/>
<path d="M12.825 30.5168H11.475V31.8668H12.825V30.5168Z" fill="white"/>
<path d="M15.525 30.5168H14.175V31.8668H15.525V30.5168Z" fill="white"/>
<path d="M18.225 30.5168H16.875V31.8668H18.225V30.5168Z" fill="white"/>
<path d="M20.925 30.5168H19.575V31.8668H20.925V30.5168Z" fill="white"/>
<path d="M23.625 30.5168H22.275V31.8668H23.625V30.5168Z" fill="white"/>
<path d="M26.325 30.5168H24.975V31.8668H26.325V30.5168Z" fill="white"/>
<path d="M29.025 30.5168H27.675V31.8668H29.025V30.5168Z" fill="white"/>
<path d="M31.725 30.5168H30.375V31.8668H31.725V30.5168Z" fill="white"/>
<path d="M34.425 30.5168H33.075V31.8668H34.425V30.5168Z" fill="white"/>
<path d="M37.125 30.5168H35.775V31.8668H37.125V30.5168Z" fill="white"/>
<path d="M39.825 30.5168H38.475V31.8668H39.825V30.5168Z" fill="white"/>
<path d="M42.525 30.5168H41.175V31.8668H42.525V30.5168Z" fill="white"/>
<path d="M12.825 33.2168H11.475V34.5668H12.825V33.2168Z" fill="white"/>
<path d="M15.525 33.2168H14.175V34.5668H15.525V33.2168Z" fill="white"/>
<path d="M18.225 33.2168H16.875V34.5668H18.225V33.2168Z" fill="white"/>
<path d="M20.925 33.2168H19.575V34.5668H20.925V33.2168Z" fill="white"/>
<path d="M23.625 33.2168H22.275V34.5668H23.625V33.2168Z" fill="white"/>
<path d="M26.325 33.2168H24.975V34.5668H26.325V33.2168Z" fill="white"/>
<path d="M29.025 33.2168H27.675V34.5668H29.025V33.2168Z" fill="white"/>
<path d="M31.725 33.2168H30.375V34.5668H31.725V33.2168Z" fill="white"/>
<path d="M34.425 33.2168H33.075V34.5668H34.425V33.2168Z" fill="white"/>
<path d="M37.125 33.2168H35.775V34.5668H37.125V33.2168Z" fill="white"/>
<path d="M39.825 33.2168H38.475V34.5668H39.825V33.2168Z" fill="white"/>
<path d="M42.525 33.2168H41.175V34.5668H42.525V33.2168Z" fill="white"/>
<path d="M12.825 35.9167H11.475V37.2667H12.825V35.9167Z" fill="white"/>
<path d="M15.525 35.9167H14.175V37.2667H15.525V35.9167Z" fill="white"/>
<path d="M18.225 35.9167H16.875V37.2667H18.225V35.9167Z" fill="white"/>
<path d="M20.925 35.9167H19.575V37.2667H20.925V35.9167Z" fill="white"/>
<path d="M23.625 35.9167H22.275V37.2667H23.625V35.9167Z" fill="white"/>
<path d="M26.325 35.9167H24.975V37.2667H26.325V35.9167Z" fill="white"/>
<path d="M29.025 35.9167H27.675V37.2667H29.025V35.9167Z" fill="white"/>
<path d="M31.725 35.9167H30.375V37.2667H31.725V35.9167Z" fill="white"/>
<path d="M34.425 35.9167H33.075V37.2667H34.425V35.9167Z" fill="white"/>
<path d="M37.125 35.9167H35.775V37.2667H37.125V35.9167Z" fill="white"/>
<path d="M39.825 35.9167H38.475V37.2667H39.825V35.9167Z" fill="white"/>
<path d="M42.525 35.9167H41.175V37.2667H42.525V35.9167Z" fill="white"/>
<path d="M12.825 38.6167H11.475V39.9667H12.825V38.6167Z" fill="white"/>
<path d="M15.525 38.6167H14.175V39.9667H15.525V38.6167Z" fill="white"/>
<path d="M18.225 38.6167H16.875V39.9667H18.225V38.6167Z" fill="white"/>
<path d="M34.425 38.6167H19.575V39.9667H34.425V38.6167Z" fill="white"/>
<path d="M37.125 38.6167H35.775V39.9667H37.125V38.6167Z" fill="white"/>
<path d="M39.825 38.6167H38.475V39.9667H39.825V38.6167Z" fill="white"/>
<path d="M42.525 38.6167H41.175V39.9667H42.525V38.6167Z" fill="white"/>
</svg>
