<svg width="24" height="24" viewBox="0 0 24 24" fill="none" xmlns="http://www.w3.org/2000/svg">
<path d="M6.32104 4.8418C7.39504 6.4198 8.78404 8.2228 9.87604 9.3358" stroke="#00525B" stroke-linecap="round" stroke-linejoin="round"/>
<path d="M14.661 14.1509C16.098 15.4049 17.877 16.8089 19.215 17.6069" stroke="#00525B" stroke-linecap="round" stroke-linejoin="round"/>
<path d="M11.037 12.963C8.63696 10.563 9.15896 10.074 9.53396 9.69899L10.203 9.02999C10.566 8.66699 10.632 8.25299 10.338 7.88699C9.61796 6.98399 8.59196 5.63399 7.88096 4.72199C7.43996 4.15799 6.35696 4.52099 5.51996 5.35799C4.75196 6.12599 4.18796 7.59299 4.57196 8.79899C5.07296 10.365 7.03196 13.143 8.94296 15.054C10.854 16.965 13.635 18.924 15.198 19.425C16.404 19.812 17.871 19.245 18.639 18.477C19.476 17.64 19.839 16.557 19.275 16.116C18.363 15.405 17.013 14.379 16.11 13.659C15.744 13.368 15.33 13.431 14.967 13.794C14.781 13.98 14.523 14.238 14.298 14.463C13.923 14.838 13.434 15.36 11.034 12.96L11.037 12.963Z" stroke="#00525B" stroke-linecap="round" stroke-linejoin="round"/>
</svg>
