<svg width="44" height="44" viewBox="0 0 44 44" fill="none" xmlns="http://www.w3.org/2000/svg">
<path d="M11.5885 8.87695C13.5575 11.77 16.104 15.0755 18.106 17.116" stroke="white" stroke-width="1.5" stroke-linecap="round" stroke-linejoin="round"/>
<path d="M26.8785 25.9436C29.513 28.2426 32.7745 30.8166 35.2275 32.2796L26.8785 25.9436Z" fill="white"/>
<path d="M26.8785 25.9436C29.513 28.2426 32.7745 30.8166 35.2275 32.2796" stroke="white" stroke-width="1.5" stroke-linecap="round" stroke-linejoin="round"/>
<path d="M20.2345 23.7655C15.8345 19.3655 16.7915 18.469 17.479 17.7815L18.7055 16.555C19.371 15.8895 19.492 15.1305 18.953 14.4595C17.633 12.804 15.752 10.329 14.4485 8.65697C13.64 7.62297 11.6545 8.28847 10.12 9.82297C8.712 11.231 7.678 13.9205 8.382 16.1315C9.3005 19.0025 12.892 24.0955 16.3955 27.599C19.899 31.1025 24.9975 34.694 27.863 35.6125C30.074 36.322 32.7635 35.2825 34.1715 33.8745C35.706 32.34 36.3715 30.3545 35.3375 29.546C33.6655 28.2425 31.1905 26.3615 29.535 25.0415C28.864 24.508 28.105 24.6235 27.4395 25.289C27.0985 25.63 26.6255 26.103 26.213 26.5155C25.5255 27.203 24.629 28.16 20.229 23.76L20.2345 23.7655Z" stroke="white" stroke-width="1.5" stroke-linecap="round" stroke-linejoin="round"/>
</svg>
