<svg width="41" height="40" viewBox="0 0 41 40" fill="none" xmlns="http://www.w3.org/2000/svg">
<rect x="0.5" width="40" height="40" rx="20" fill="#00525B"/>
<path d="M27.1367 13.377L26.6904 13.3291C25.9762 13.2524 25.2583 13.2149 24.54 13.2178C23.4017 13.2178 22.3911 13.5672 21.6641 14.2861C20.9357 15.0065 20.547 16.0432 20.5469 17.3086V18.8135H18.2002V22.5293H20.5459V28.5H12.4932C12.2207 28.4998 12.0002 28.2793 12 28.0068V11.9932C12.0002 11.7207 12.2207 11.5002 12.4932 11.5H28.5068C28.7793 11.5002 28.9998 11.7207 29 11.9932V28.0068C28.9998 28.2793 28.7793 28.4998 28.5068 28.5H24.3525V22.5293H26.6318L26.6885 22.0938L27.0381 19.377L27.1113 18.8135H24.3516V17.5791C24.3516 17.2073 24.4094 17.0333 24.4844 16.9443C24.5432 16.8746 24.7019 16.7559 25.1992 16.7559H27.1367V13.377Z" fill="white" stroke="white"/>
</svg>
