<svg width="65" height="64" viewBox="0 0 65 64" fill="none" xmlns="http://www.w3.org/2000/svg">
<path d="M38.706 19.4C36.962 18.936 35.05 18.688 32.994 18.688C31.386 18.688 29.826 18.848 28.346 19.176" stroke="#00525B" stroke-width="1.5" stroke-linecap="round" stroke-linejoin="round"/>
<path d="M25.018 21.192C27.29 16.4 22.266 14.4 20.482 14.4V19.056H20.498C17.394 21.12 14.37 24.584 13.65 28.944" stroke="#00525B" stroke-width="1.5" stroke-linecap="round" stroke-linejoin="round"/>
<path d="M52.594 32.768C57.594 31.392 56.642 24.344 56.642 24.344C55.81 25.976 53.658 26.528 52.114 26.912" stroke="#00525B" stroke-width="1.5" stroke-linecap="round" stroke-linejoin="round"/>
<path d="M14.73 37.176C16.186 40.456 19.802 43.48 22.586 44.864V49.096C22.586 49.096 23.418 49.6 25.97 49.6C28.522 49.6 29.25 49.096 29.25 49.096V46.912" stroke="#00525B" stroke-width="1.5" stroke-linecap="round" stroke-linejoin="round"/>
<path d="M14.09 27.176L9.45802 27.344C9.45802 27.344 6.90602 32.608 11.202 38.144C11.202 38.144 13.018 39.128 15.93 39.256" stroke="#00525B" stroke-width="1.5" stroke-linecap="round" stroke-linejoin="round"/>
<path d="M22.682 19.848C22.682 19.848 23.482 16.928 20.474 14.4" stroke="#00525B" stroke-width="1.5" stroke-linecap="round" stroke-linejoin="round"/>
<path d="M28.258 46.704C30.882 47.392 36.21 47.184 37.962 46.704" stroke="#00525B" stroke-width="1.5" stroke-linecap="round" stroke-linejoin="round"/>
<path d="M18.306 27.2C18.306 28.088 19.026 28.8 19.906 28.8C20.786 28.8 21.506 28.088 21.506 27.2C21.506 26.312 20.786 25.6 19.906 25.6C19.026 25.6 18.306 26.32 18.306 27.2Z" fill="#00525B"/>
<path d="M36.73 46.92V49.104C36.73 49.104 37.466 49.608 40.01 49.608C42.554 49.608 43.394 49.104 43.394 49.104V44.88C48.674 42.272 52.57 37.368 52.578 31.232" stroke="#00525B" stroke-width="1.5" stroke-linecap="round" stroke-linejoin="round"/>
<path d="M52.082 27.896C49.562 20.04 42.33 15.544 33.002 15.544C30.106 15.544 27.41 16.016 24.994 16.864" stroke="#00525B" stroke-width="1.5" stroke-linecap="round" stroke-linejoin="round"/>
</svg>
