<svg width="65" height="64" viewBox="0 0 65 64" fill="none" xmlns="http://www.w3.org/2000/svg">
<path d="M25.05 52H39.4501" stroke="#00525B" stroke-width="1.5" stroke-linecap="round" stroke-linejoin="round"/>
<path d="M37.85 12C37.85 12 37.85 15.704 36.25 16.8H28.25C26.65 15.704 26.65 12 26.65 12H37.85Z" stroke="#00525B" stroke-width="1.5" stroke-linecap="round" stroke-linejoin="round"/>
<path d="M29.2581 40.032C29.6021 40.752 30.5941 41.6 32.2501 41.6C33.9061 41.6 35.2421 40.512 35.2421 39.168C35.2421 35.288 29.4501 37.496 29.4501 34.184C29.4501 32.976 30.6741 32 32.1621 32C33.6501 32 34.3861 32.64 34.6901 32.928" stroke="#00525B" stroke-width="1.5" stroke-miterlimit="10" stroke-linecap="round"/>
<path d="M32.25 29.6V32" stroke="#00525B" stroke-width="1.5" stroke-miterlimit="10" stroke-linecap="round"/>
<path d="M32.25 41.6V44" stroke="#00525B" stroke-width="1.5" stroke-miterlimit="10" stroke-linecap="round"/>
<path d="M21.85 52H13.85" stroke="#00525B" stroke-width="1.5" stroke-linecap="round" stroke-linejoin="round"/>
<path d="M21.85 48.8H13.85" stroke="#00525B" stroke-width="1.5" stroke-linecap="round" stroke-linejoin="round"/>
<path d="M21.85 45.6H13.85" stroke="#00525B" stroke-width="1.5" stroke-linecap="round" stroke-linejoin="round"/>
<path d="M21.85 42.4H13.85" stroke="#00525B" stroke-width="1.5" stroke-linecap="round" stroke-linejoin="round"/>
<path d="M50.65 52H42.65" stroke="#00525B" stroke-width="1.5" stroke-linecap="round" stroke-linejoin="round"/>
<path d="M50.65 48.8H42.65" stroke="#00525B" stroke-width="1.5" stroke-linecap="round" stroke-linejoin="round"/>
<path d="M50.65 45.6H42.65" stroke="#00525B" stroke-width="1.5" stroke-linecap="round" stroke-linejoin="round"/>
<path d="M50.65 42.4H42.65" stroke="#00525B" stroke-width="1.5" stroke-linecap="round" stroke-linejoin="round"/>
<path d="M50.65 39.2H42.65" stroke="#00525B" stroke-width="1.5" stroke-linecap="round" stroke-linejoin="round"/>
<path d="M50.65 36H42.65" stroke="#00525B" stroke-width="1.5" stroke-linecap="round" stroke-linejoin="round"/>
<path d="M27.45 20H37.0499" stroke="#00525B" stroke-width="1.5" stroke-linecap="round" stroke-linejoin="round"/>
<path d="M45.498 32.8C43.05 29.144 39.378 26.328 36.25 23.2H28.25C23.53 27.92 17.546 31.936 16.442 39.2" stroke="#00525B" stroke-width="1.5" stroke-linecap="round" stroke-linejoin="round"/>
</svg>
