<svg width="24" height="25" viewBox="0 0 24 25" fill="none" xmlns="http://www.w3.org/2000/svg">
<path d="M11.31 20C7.167 20 3.81 16.643 3.81 12.5C3.81 8.357 7.167 5 11.31 5C15.453 5 18.81 8.357 18.81 12.5" stroke="#F5F8DE" stroke-linecap="round" stroke-linejoin="round"/>
<path d="M9.80999 11.2999C10.4727 11.2999 11.01 10.7626 11.01 10.0999C11.01 9.43716 10.4727 8.8999 9.80999 8.8999C9.14724 8.8999 8.60999 9.43716 8.60999 10.0999C8.60999 10.7626 9.14724 11.2999 9.80999 11.2999Z" stroke="#F5F8DE" stroke-linecap="round" stroke-linejoin="round"/>
<path d="M12.81 16.1002C13.4727 16.1002 14.01 15.5629 14.01 14.9002C14.01 14.2375 13.4727 13.7002 12.81 13.7002C12.1472 13.7002 11.61 14.2375 11.61 14.9002C11.61 15.5629 12.1472 16.1002 12.81 16.1002Z" stroke="#F5F8DE" stroke-linecap="round" stroke-linejoin="round"/>
<path d="M8.90997 16.0999L13.41 8.8999" stroke="#F5F8DE" stroke-linecap="round" stroke-linejoin="round"/>
<path d="M20.19 12.5L18.81 13.88L17.43 12.5H20.19Z" fill="#F5F8DE" stroke="#F5F8DE" stroke-linecap="round" stroke-linejoin="round"/>
</svg>
