<svg width="65" height="64" viewBox="0 0 65 64" fill="none" xmlns="http://www.w3.org/2000/svg">
<path d="M32.25 24.24C42.8539 24.24 51.45 21.7041 51.45 18.576C51.45 15.4478 42.8539 12.912 32.25 12.912C21.6461 12.912 13.05 15.4478 13.05 18.576C13.05 21.7041 21.6461 24.24 32.25 24.24Z" stroke="#00525B" stroke-width="1.5" stroke-linecap="round" stroke-linejoin="round"/>
<path d="M13.05 18.576V27.528C13.05 30.656 21.65 33.192 32.25 33.192C42.85 33.192 51.45 30.656 51.45 27.528V18.576" stroke="#00525B" stroke-width="1.5" stroke-linecap="round" stroke-linejoin="round"/>
<path d="M13.05 27.528V36.48C13.05 39.608 21.65 42.144 32.25 42.144C42.85 42.144 51.45 39.608 51.45 36.48V27.528" stroke="#00525B" stroke-width="1.5" stroke-linecap="round" stroke-linejoin="round"/>
<path d="M13.05 36.472V45.424C13.05 48.552 21.65 51.088 32.25 51.088C42.85 51.088 51.45 48.552 51.45 45.424V36.472" stroke="#00525B" stroke-width="1.5" stroke-linecap="round" stroke-linejoin="round"/>
<path d="M47.834 24.592V27.872" stroke="#00525B" stroke-width="1.5" stroke-linecap="round" stroke-linejoin="round"/>
<path d="M47.834 33.544V36.832" stroke="#00525B" stroke-width="1.5" stroke-linecap="round" stroke-linejoin="round"/>
<path d="M47.834 42.496V45.784" stroke="#00525B" stroke-width="1.5" stroke-linecap="round" stroke-linejoin="round"/>
</svg>
