<svg width="65" height="64" viewBox="0 0 65 64" fill="none" xmlns="http://www.w3.org/2000/svg">
<path d="M28.25 52C37.0866 52 44.25 44.8366 44.25 36C44.25 27.1634 37.0866 20 28.25 20C19.4134 20 12.25 27.1634 12.25 36C12.25 44.8366 19.4134 52 28.25 52Z" stroke="#00525B" stroke-width="1.5" stroke-linecap="round" stroke-linejoin="round"/>
<path d="M47.346 39.512C50.362 36.6 52.25 32.528 52.25 28C52.25 19.16 45.09 12 36.25 12C31.73 12 27.65 13.888 24.738 16.904" stroke="#00525B" stroke-width="1.5" stroke-linecap="round" stroke-linejoin="round"/>
<path d="M24.25 40.4959C24.706 41.4959 26.042 42.6719 28.25 42.6719C30.458 42.6719 32.25 41.1599 32.25 39.2959C32.25 33.9119 24.506 36.9679 24.506 32.3759C24.506 30.6959 26.138 29.3359 28.13 29.3359C30.122 29.3359 31.106 30.2239 31.506 30.6319" stroke="#00525B" stroke-width="1.5" stroke-miterlimit="10" stroke-linecap="round"/>
<path d="M28.25 26V29.336" stroke="#00525B" stroke-width="1.5" stroke-miterlimit="10" stroke-linecap="round"/>
<path d="M28.25 42.6641V46.0001" stroke="#00525B" stroke-width="1.5" stroke-miterlimit="10" stroke-linecap="round"/>
</svg>
