<svg id="icon-sprite" xmlns="http://www.w3.org/2000/svg" style="display: none;">
  <symbol id="chevron-down-header" viewBox="0 0 10 6" fill="none" xmlns="http://www.w3.org/2000/svg">
    <path d="M5 6L0 0.893617L0.875 0L5 4.21277L9.125 0L10 0.893617L5 6Z" fill="currentColor" />
  </symbol>

  <symbol id="magnifying-glass-header" viewBox="0 0 24 24" fill="none" xmlns="http://www.w3.org/2000/svg">
    <path
      d="M16.0644 14.2773L19.7514 17.9643C20.2134 18.4263 20.2134 19.1823 19.7514 19.6473L19.6434 19.7553C19.1814 20.2173 18.4254 20.2173 17.9604 19.7553L14.2734 16.0683"
      stroke="currentColor" stroke-miterlimit="10" stroke-linecap="round" />
    <path
      d="M15.3022 15.0274C17.8025 12.375 17.6793 8.19794 15.0269 5.69761C12.3746 3.19729 8.19749 3.32053 5.69716 5.97288C3.19684 8.62523 3.32008 12.8023 5.97243 15.3026C8.62479 17.803 12.8019 17.6797 15.3022 15.0274Z"
      stroke="currentColor" stroke-miterlimit="10" stroke-linecap="round" />
  </symbol>

  <symbol id="pause" viewBox="0 0 24 24" fill="none" xmlns="http://www.w3.org/2000/svg">
    <path d="M6 19H10V5H6V19ZM14 5V19H18V5H14Z" fill="currentColor" />
  </symbol>

  <symbol id="play" viewBox="0 0 24 24" fill="none" xmlns="http://www.w3.org/2000/svg">
    <path d="M19 12.5L8 6V19L19 12.5Z" fill="currentColor" stroke="currentColor" stroke-width="1.5"
      stroke-linecap="round" stroke-linejoin="round" />
  </symbol>

  <symbol id="chevron-right-links" viewBox="0 0 12 19" fill="none" preserveAspectRatio="xMidYMid meet"
    xmlns="http://www.w3.org/2000/svg">
    <path d="M11.4 9.5L1.69787 19L0 17.3375L8.00426 9.5L0 1.6625L1.69787 0L11.4 9.5Z" fill="currentColor" />
  </symbol>

  <symbol id="chevron-right-links-default" viewBox="0 0 24 24" fill="none" xmlns="http://www.w3.org/2000/svg">
    <path d="M10 16L14 12L10 8" stroke="currentColor" stroke-linecap="round" stroke-linejoin="round" />
  </symbol>

  <symbol id="banking-cards" viewBox="0 0 48 48" fill="none" xmlns="http://www.w3.org/2000/svg">
    <path
      d="M44.4001 33.5525H32.9761C30.2761 33.5525 28.0801 31.5245 28.0801 29.0165C28.0801 26.5085 30.2761 24.4805 32.9761 24.4805H44.4001"
      stroke="currentColor" stroke-width="1.5" stroke-miterlimit="10" />
    <path
      d="M32.9756 27.7881C33.6536 27.7881 34.2039 28.3376 34.2041 29.0156C34.2041 29.6938 33.6538 30.2441 32.9756 30.2441C32.2976 30.2439 31.748 29.6937 31.748 29.0156C31.7483 28.3378 32.2977 27.7883 32.9756 27.7881Z"
      fill="currentColor" stroke="currentColor" />
    <path
      d="M3.59961 18.8163C3.59961 16.3083 5.62761 14.2803 8.13561 14.2803H39.8636C42.3716 14.2803 44.3996 16.3083 44.3996 18.8163V39.2163C44.3996 41.7243 42.3716 43.7523 39.8636 43.7523H8.13561C5.62761 43.7523 3.59961 41.7243 3.59961 39.2163V18.8163Z"
      stroke="currentColor" stroke-width="1.5" stroke-miterlimit="10" stroke-linecap="round" />
    <path d="M19.7637 5.73633L27.6717 13.6443" stroke="currentColor" stroke-width="1.5" stroke-miterlimit="10"
      stroke-linecap="round" />
    <path d="M11.6523 13.6444L21.2403 4.05636C22.2243 3.07236 23.8083 3.07236 24.7923 4.05636L34.3803 13.6444"
      stroke="currentColor" stroke-width="1.5" stroke-miterlimit="10" stroke-linecap="round" />
  </symbol>

  <symbol id="loans" viewBox="0 0 48 48" fill="none" xmlns="http://www.w3.org/2000/svg">
    <path
      d="M34.3206 43.8952C40.219 43.8952 45.0006 39.1136 45.0006 33.2152C45.0006 27.3168 40.219 22.5352 34.3206 22.5352C28.4222 22.5352 23.6406 27.3168 23.6406 33.2152C23.6406 39.1136 28.4222 43.8952 34.3206 43.8952Z"
      stroke="currentColor" stroke-width="1.5" stroke-linecap="round" stroke-linejoin="round" />
    <path
      d="M31.584 36.2873C32.136 37.2713 33.204 37.8473 34.32 37.7753C35.832 37.7753 37.056 36.7433 37.056 35.4593C37.056 31.7753 31.752 33.8633 31.752 30.7193C31.752 29.5673 32.868 28.6433 34.236 28.6433C35.1 28.5953 35.94 28.9193 36.552 29.5313"
      stroke="currentColor" stroke-width="1.5" stroke-miterlimit="10" stroke-linecap="round" />
    <path d="M34.3203 26.3633V28.6553" stroke="currentColor" stroke-width="1.5" stroke-miterlimit="10"
      stroke-linecap="round" />
    <path d="M34.3203 37.7754V40.0554" stroke="currentColor" stroke-width="1.5" stroke-linecap="round"
      stroke-linejoin="round" />
    <path
      d="M14.5326 19.5715C12.9366 18.5155 11.8926 16.6915 11.8926 14.6395V10.0315C11.8926 6.75552 14.5446 4.10352 17.8206 4.10352C21.0966 4.10352 23.7486 6.75552 23.7486 10.0315V14.6395C23.7486 17.9155 21.0966 20.5675 17.8206 20.5675C17.8206 20.5675 16.2606 20.6995 15.1926 19.9915L14.5326 19.5835V19.5715Z"
      stroke="currentColor" stroke-width="1.5" stroke-linecap="round" stroke-linejoin="round" />
    <path d="M24.6 38.2555H3V31.4755C3 29.3155 4.332 27.3835 6.348 26.6275L14.844 23.1355V19.8115" stroke="currentColor"
      stroke-width="1.5" stroke-linecap="round" stroke-linejoin="round" />
    <path d="M20.7715 19.7393V23.0753L26.6155 25.4993" stroke="currentColor" stroke-width="1.5" stroke-linecap="round"
      stroke-linejoin="round" />
    <path
      d="M22.6318 24.3838C21.8278 26.2798 19.9558 27.5998 17.7718 27.5998C15.5878 27.5998 13.8478 26.3638 13.0078 24.5878"
      stroke="currentColor" stroke-width="1.5" stroke-linecap="round" stroke-linejoin="round" />
  </symbol>

  <symbol id="rates-calculator" viewBox="0 0 48 48" fill="none" xmlns="http://www.w3.org/2000/svg">
    <path
      d="M14.6152 25.1765V8.67648C14.6152 6.20448 16.6192 4.18848 19.1032 4.18848H40.3432C42.8152 4.18848 44.8312 6.19248 44.8312 8.67648V36.8285C44.8312 39.3005 42.8272 41.3165 40.3432 41.3165H21.4792"
      stroke="currentColor" stroke-width="1.5" stroke-linecap="round" stroke-linejoin="round" />
    <path
      d="M21.9838 21.2168H20.7358C19.7815 21.2168 19.0078 21.9904 19.0078 22.9448V23.1248C19.0078 24.0791 19.7815 24.8528 20.7358 24.8528H21.9838C22.9382 24.8528 23.7118 24.0791 23.7118 23.1248V22.9448C23.7118 21.9904 22.9382 21.2168 21.9838 21.2168Z"
      stroke="currentColor" stroke-width="1.5" stroke-linecap="round" stroke-linejoin="round" />
    <path
      d="M30.3471 21.2168H29.0991C28.1447 21.2168 27.3711 21.9904 27.3711 22.9448V23.1248C27.3711 24.0791 28.1447 24.8528 29.0991 24.8528H30.3471C31.3014 24.8528 32.0751 24.0791 32.0751 23.1248V22.9448C32.0751 21.9904 31.3014 21.2168 30.3471 21.2168Z"
      stroke="currentColor" stroke-width="1.5" stroke-linecap="round" stroke-linejoin="round" />
    <path
      d="M38.6987 21.2168H37.4507C36.4963 21.2168 35.7227 21.9904 35.7227 22.9448V23.1248C35.7227 24.0791 36.4963 24.8528 37.4507 24.8528H38.6987C39.653 24.8528 40.4267 24.0791 40.4267 23.1248V22.9448C40.4267 21.9904 39.653 21.2168 38.6987 21.2168Z"
      stroke="currentColor" stroke-width="1.5" stroke-linecap="round" stroke-linejoin="round" />
    <path
      d="M19.5234 27.9122C19.8354 27.6002 20.2674 27.4082 20.7474 27.4082H21.9834C22.9314 27.4082 23.7114 28.1882 23.7114 29.1362V29.3042C23.7114 30.0122 23.2674 30.6362 22.6554 30.9002"
      stroke="currentColor" stroke-width="1.5" stroke-linecap="round" stroke-linejoin="round" />
    <path
      d="M23.0043 34.0928C23.4363 34.4048 23.7123 34.9208 23.7123 35.4848V35.6528C23.7123 36.3608 23.2683 36.9848 22.6562 37.2488"
      stroke="currentColor" stroke-width="1.5" stroke-linecap="round" stroke-linejoin="round" />
    <path
      d="M30.3471 27.4082H29.0991C28.1447 27.4082 27.3711 28.1819 27.3711 29.1362V29.3162C27.3711 30.2706 28.1447 31.0442 29.0991 31.0442H30.3471C31.3014 31.0442 32.0751 30.2706 32.0751 29.3162V29.1362C32.0751 28.1819 31.3014 27.4082 30.3471 27.4082Z"
      stroke="currentColor" stroke-width="1.5" stroke-linecap="round" stroke-linejoin="round" />
    <path
      d="M38.6987 27.4082H37.4507C36.4963 27.4082 35.7227 28.1819 35.7227 29.1362V29.3162C35.7227 30.2706 36.4963 31.0442 37.4507 31.0442H38.6987C39.653 31.0442 40.4267 30.2706 40.4267 29.3162V29.1362C40.4267 28.1819 39.653 27.4082 38.6987 27.4082Z"
      stroke="currentColor" stroke-width="1.5" stroke-linecap="round" stroke-linejoin="round" />
    <path
      d="M30.3471 33.7568H29.0991C28.1447 33.7568 27.3711 34.5305 27.3711 35.4848V35.6648C27.3711 36.6192 28.1447 37.3928 29.0991 37.3928H30.3471C31.3014 37.3928 32.0751 36.6192 32.0751 35.6648V35.4848C32.0751 34.5305 31.3014 33.7568 30.3471 33.7568Z"
      stroke="currentColor" stroke-width="1.5" stroke-linecap="round" stroke-linejoin="round" />
    <path
      d="M38.6987 33.7568H37.4507C36.4963 33.7568 35.7227 34.5305 35.7227 35.4848V35.6648C35.7227 36.6192 36.4963 37.3928 37.4507 37.3928H38.6987C39.653 37.3928 40.4267 36.6192 40.4267 35.6648V35.4848C40.4267 34.5305 39.653 33.7568 38.6987 33.7568Z"
      stroke="currentColor" stroke-width="1.5" stroke-linecap="round" stroke-linejoin="round" />
    <path d="M40.4158 8.1123H19.0078V17.8203H40.4158V8.1123Z" stroke="currentColor" stroke-width="1.5"
      stroke-linecap="round" stroke-linejoin="round" />
    <path
      d="M13.4035 44.4242C18.5862 44.4242 22.7875 40.2229 22.7875 35.0403C22.7875 29.8576 18.5862 25.6562 13.4035 25.6562C8.22089 25.6562 4.01953 29.8576 4.01953 35.0403C4.01953 40.2229 8.22089 44.4242 13.4035 44.4242Z"
      stroke="currentColor" stroke-width="1.5" stroke-linecap="round" stroke-linejoin="round" />
    <path
      d="M10.4995 33.4208C11.361 33.4208 12.0595 32.7223 12.0595 31.8608C12.0595 30.9992 11.361 30.3008 10.4995 30.3008C9.63789 30.3008 8.93945 30.9992 8.93945 31.8608C8.93945 32.7223 9.63789 33.4208 10.4995 33.4208Z"
      stroke="currentColor" stroke-width="1.5" stroke-linecap="round" stroke-linejoin="round" />
    <path
      d="M16.7514 39.5048C17.613 39.5048 18.3114 38.8063 18.3114 37.9448C18.3114 37.0832 17.613 36.3848 16.7514 36.3848C15.8898 36.3848 15.1914 37.0832 15.1914 37.9448C15.1914 38.8063 15.8898 39.5048 16.7514 39.5048Z"
      stroke="currentColor" stroke-width="1.5" stroke-linecap="round" stroke-linejoin="round" />
    <path d="M10.3203 39.3725L16.6203 30.2285" stroke="currentColor" stroke-width="1.5" stroke-linecap="round"
      stroke-linejoin="round" />
  </symbol>

  <symbol id="savings-coins" viewBox="0 0 48 48" fill="none" xmlns="http://www.w3.org/2000/svg">
    <path
      d="M19.572 44.6156C28.5852 44.6156 35.892 37.3089 35.892 28.2956C35.892 19.2823 28.5852 11.9756 19.572 11.9756C10.5587 11.9756 3.25195 19.2823 3.25195 28.2956C3.25195 37.3089 10.5587 44.6156 19.572 44.6156Z"
      stroke="currentColor" stroke-width="1.5" stroke-miterlimit="10" stroke-linecap="round" />
    <path
      d="M15.4922 32.8799C15.9602 33.8999 17.3162 35.0999 19.5722 35.0999C21.8282 35.0999 23.6522 33.5639 23.6522 31.6559C23.6522 26.1599 15.7562 29.2799 15.7562 24.5999C15.7562 22.8839 17.4242 21.5039 19.4522 21.5039C21.4802 21.5039 22.4882 22.4039 22.8962 22.8239"
      stroke="currentColor" stroke-width="1.5" stroke-miterlimit="10" stroke-linecap="round" />
    <path d="M19.5723 18.0957V21.4917" stroke="currentColor" stroke-width="1.5" stroke-miterlimit="10"
      stroke-linecap="round" />
    <path d="M19.5723 35.0996V38.4956" stroke="currentColor" stroke-width="1.5" stroke-miterlimit="10"
      stroke-linecap="round" />
    <path
      d="M19.572 44.6156C28.5852 44.6156 35.892 37.3089 35.892 28.2956C35.892 19.2823 28.5852 11.9756 19.572 11.9756C10.5587 11.9756 3.25195 19.2823 3.25195 28.2956C3.25195 37.3089 10.5587 44.6156 19.572 44.6156Z"
      stroke="currentColor" stroke-width="1.5" stroke-miterlimit="10" stroke-linecap="round" />
    <path
      d="M14.4727 12.1438C17.5207 6.64775 23.6167 3.17975 30.2647 3.80375C39.2407 4.64375 45.8407 12.5878 45.0007 21.5638C44.4127 27.9238 40.2367 33.0958 34.6567 35.2678"
      stroke="currentColor" stroke-width="1.5" stroke-miterlimit="10" stroke-linecap="round" />
  </symbol>

  <symbol id="suitcase" viewBox="0 0 48 48" fill="none" xmlns="http://www.w3.org/2000/svg">
    <path
      d="M17.207 10.4641V9.45611C17.207 6.75611 18.479 5.41211 20.051 5.41211H27.935C29.507 5.41211 30.779 6.30011 30.779 9.45611V10.4641"
      stroke="currentColor" stroke-width="1.5" stroke-linecap="round" stroke-linejoin="round" />
    <path
      d="M42.5996 10.4639H5.39961C4.4055 10.4639 3.59961 11.2698 3.59961 12.2639V40.7879C3.59961 41.782 4.4055 42.5879 5.39961 42.5879H42.5996C43.5937 42.5879 44.3996 41.782 44.3996 40.7879V12.2639C44.3996 11.2698 43.5937 10.4639 42.5996 10.4639Z"
      stroke="currentColor" stroke-width="1.5" stroke-linecap="round" stroke-linejoin="round" />
    <path d="M13.2832 14.3877H19.2112" stroke="currentColor" stroke-width="1.5" stroke-linecap="round"
      stroke-linejoin="round" />
    <path d="M13.2832 18.2402H15.3112" stroke="currentColor" stroke-width="1.5" stroke-linecap="round"
      stroke-linejoin="round" />
    <path d="M8.29102 36.7441H10.571" stroke="currentColor" stroke-width="1.5" stroke-linecap="round"
      stroke-linejoin="round" />
    <path d="M37.416 36.7441H39.696" stroke="currentColor" stroke-width="1.5" stroke-linecap="round"
      stroke-linejoin="round" />
    <path d="M9.44336 10.4639V42.5879" stroke="currentColor" stroke-width="1.5" stroke-linecap="round"
      stroke-linejoin="round" />
    <path d="M38.5547 10.4639V42.5879" stroke="currentColor" stroke-width="1.5" stroke-linecap="round"
      stroke-linejoin="round" />
    <path d="M38.5547 10.4639V42.5879" stroke="currentColor" stroke-width="1.5" stroke-linecap="round"
      stroke-linejoin="round" />
  </symbol>

  <symbol id="umbrella" viewBox="0 0 48 48" fill="none" xmlns="http://www.w3.org/2000/svg">
    <path d="M24 4.84766V6.20366" stroke="currentColor" stroke-width="1.5" stroke-miterlimit="10"
      stroke-linecap="round" />
    <path
      d="M23.9991 25.8838V40.1638C23.9991 41.6638 23.1831 43.1518 21.1431 43.1518C19.4271 43.1518 18.2871 41.9638 18.2871 40.2838V39.8878"
      stroke="currentColor" stroke-width="1.5" stroke-miterlimit="10" stroke-linecap="round" />
    <path
      d="M8.57929 22.7878C6.94729 22.7878 5.49529 23.3158 4.55929 24.1558C4.15129 24.5158 3.53929 24.1918 3.61129 23.6398C4.90729 13.0798 13.5473 6.21582 24.0113 6.21582C34.4753 6.21582 43.1033 13.0678 44.4113 23.6398C44.4833 24.1918 43.8713 24.5158 43.4633 24.1558C42.5273 23.3278 41.0753 22.7878 39.4433 22.7878C37.3793 22.7878 35.5913 23.6518 34.7753 24.8878C34.5353 25.2478 34.0673 25.2478 33.8273 24.8878C33.0113 23.6518 31.2233 22.7878 29.1593 22.7878C27.0953 22.7878 25.3073 23.6518 24.4913 24.8878C24.2513 25.2478 23.7833 25.2478 23.5433 24.8878C22.7273 23.6518 20.9393 22.7878 18.8753 22.7878C16.8113 22.7878 15.0233 23.6518 14.2073 24.8878C13.9673 25.2478 13.4993 25.2478 13.2593 24.8878C12.4433 23.6518 10.6553 22.7878 8.59129 22.7878H8.57929Z"
      stroke="currentColor" stroke-width="1.5" stroke-miterlimit="10" />
    <path d="M34.296 25.1521C34.296 16.2721 30.204 8.9881 23.916 6.2041" stroke="currentColor" stroke-width="1.5"
      stroke-miterlimit="10" />
    <path d="M13.5469 24.4432C13.5469 15.9472 17.6389 8.98724 23.9149 6.32324" stroke="currentColor" stroke-width="1.5"
      stroke-miterlimit="10" />
    <path d="M24 6.2041V25.1521" stroke="currentColor" stroke-width="1.5" stroke-miterlimit="10"
      stroke-linecap="round" />
  </symbol>

  <symbol id="chevron-left-default" viewBox="0 0 24 24" fill="none" xmlns="http://www.w3.org/2000/svg">
    <path d="M14 16L10 12L14 8" stroke="#0B231F" stroke-linecap="round" stroke-linejoin="round" />
  </symbol>

  <symbol id="chevron-left-circle" viewBox="0 0 24 24" fill="none" xmlns="http://www.w3.org/2000/svg">
    <path d="M14 17L8 11.5L14 6" stroke="currentColor" stroke-width="1.5" stroke-linecap="round"
      stroke-linejoin="round" />
  </symbol>

  <symbol id="chevron-right-circle" viewBox="0 0 24 24" fill="none" xmlns="http://www.w3.org/2000/svg">
    <path d="M10 6L16 11.5L10 17" stroke="currentColor" stroke-width="1.5" stroke-linecap="round"
      stroke-linejoin="round" />
  </symbol>

  <symbol id="chevron-right-links-alt" viewBox="0 0 12 24" fill="none" xmlns="http://www.w3.org/2000/svg">
    <path fill-rule="evenodd" clip-rule="evenodd"
      d="M10.1569 12.7116L4.49994 18.3686L3.08594 16.9546L8.03594 12.0046L3.08594 7.05463L4.49994 5.64062L10.1569 11.2976C10.3444 11.4852 10.4497 11.7395 10.4497 12.0046C10.4497 12.2698 10.3444 12.5241 10.1569 12.7116Z"
      fill="currentColor" />
  </symbol>

  <symbol id="chevron-right-links-round" viewBox="0 0 18 18" fill="none" xmlns="http://www.w3.org/2000/svg">
    <path d="M6.30078 3.59961L11.7008 8.99961L6.30078 14.3996" stroke="currentColor" stroke-width="2"
      stroke-linecap="round" stroke-linejoin="round" />
  </symbol>


  <symbol id="chevron-up-round" viewBox="0 0 24 24" fill="none" xmlns="http://www.w3.org/2000/svg">
    <path d="M6 15L11.5 9L17 15" stroke="currentColor" stroke-width="1.5" stroke-linecap="round"
      stroke-linejoin="round" />
  </symbol>

  <symbol id="chat-bubble-square" viewBox="0 0 24 24" fill="none" xmlns="http://www.w3.org/2000/svg">
    <path d="M3.93555 4.58203V16.195H8.12955V19.42L11.3545 16.195H20.0635V4.58203H3.93555Z" stroke="currentColor"
      stroke-linecap="round" stroke-linejoin="round" />
    <path d="M17.1598 7.80664H6.83984" stroke="currentColor" stroke-linecap="round" stroke-linejoin="round" />
    <path d="M17.1598 10.3867H6.83984" stroke="currentColor" stroke-linecap="round" stroke-linejoin="round" />
    <path d="M17.1598 12.9688H6.83984" stroke="currentColor" stroke-linecap="round" stroke-linejoin="round" />
  </symbol>

  <symbol id="phone-call" viewBox="0 0 24 24" fill="none" xmlns="http://www.w3.org/2000/svg">
    <path d="M6.32031 4.8418C7.39431 6.4198 8.78331 8.2228 9.87531 9.3358" stroke="currentColor" stroke-linecap="round"
      stroke-linejoin="round" />
    <path d="M14.6602 14.1504C16.0972 15.4044 17.8762 16.8084 19.2142 17.6064" stroke="currentColor"
      stroke-linecap="round" stroke-linejoin="round" />
    <path
      d="M11.0379 12.964C8.63794 10.564 9.15994 10.075 9.53494 9.69996L10.2039 9.03096C10.5669 8.66796 10.6329 8.25396 10.3389 7.88796C9.61894 6.98496 8.59294 5.63496 7.88194 4.72296C7.44094 4.15896 6.35794 4.52196 5.52094 5.35896C4.75294 6.12696 4.18894 7.59396 4.57294 8.79996C5.07394 10.366 7.03294 13.144 8.94394 15.055C10.8549 16.966 13.6359 18.925 15.1989 19.426C16.4049 19.813 17.8719 19.246 18.6399 18.478C19.4769 17.641 19.8399 16.558 19.2759 16.117C18.3639 15.406 17.0139 14.38 16.1109 13.66C15.7449 13.369 15.3309 13.432 14.9679 13.795C14.7819 13.981 14.5239 14.239 14.2989 14.464C13.9239 14.839 13.4349 15.361 11.0349 12.961L11.0379 12.964Z"
      stroke="currentColor" stroke-linecap="round" stroke-linejoin="round" />
  </symbol>

  <symbol id="office" viewBox="0 0 24 24" fill="none" xmlns="http://www.w3.org/2000/svg">
    <path d="M12 4.19922H14.7V5.99922H12" stroke="currentColor" stroke-width="0.75" stroke-linecap="round"
      stroke-linejoin="round" />
    <path d="M12 3.90039V9.60039" stroke="currentColor" stroke-width="0.75" stroke-linecap="round"
      stroke-linejoin="round" />
    <path d="M20.7008 20.0996H3.30078" stroke="currentColor" stroke-width="0.75" stroke-linecap="round"
      stroke-linejoin="round" />
    <path d="M6.29922 12.5996H5.69922V13.1996H6.29922V12.5996Z" stroke="currentColor" stroke-width="0.75"
      stroke-miterlimit="10" stroke-linecap="round" />
    <path d="M8.1 12.5996H7.5V13.1996H8.1V12.5996Z" stroke="currentColor" stroke-width="0.75" stroke-miterlimit="10"
      stroke-linecap="round" />
    <path d="M6.29922 14.4004H5.69922V15.0004H6.29922V14.4004Z" stroke="currentColor" stroke-width="0.75"
      stroke-miterlimit="10" stroke-linecap="round" />
    <path d="M8.1 14.4004H7.5V15.0004H8.1V14.4004Z" stroke="currentColor" stroke-width="0.75" stroke-miterlimit="10"
      stroke-linecap="round" />
    <path d="M6.29922 16.1992H5.69922V16.7992H6.29922V16.1992Z" stroke="currentColor" stroke-width="0.75"
      stroke-miterlimit="10" stroke-linecap="round" />
    <path d="M8.1 16.1992H7.5V16.7992H8.1V16.1992Z" stroke="currentColor" stroke-width="0.75" stroke-miterlimit="10"
      stroke-linecap="round" />
    <path d="M6.29922 18H5.69922V18.6H6.29922V18Z" stroke="currentColor" stroke-width="0.75" stroke-miterlimit="10"
      stroke-linecap="round" />
    <path d="M8.1 18H7.5V18.6H8.1V18Z" stroke="currentColor" stroke-width="0.75" stroke-miterlimit="10"
      stroke-linecap="round" />
    <path d="M16.5004 12.5996H15.9004V13.1996H16.5004V12.5996Z" stroke="currentColor" stroke-width="0.75"
      stroke-miterlimit="10" stroke-linecap="round" />
    <path d="M18.2992 12.5996H17.6992V13.1996H18.2992V12.5996Z" stroke="currentColor" stroke-width="0.75"
      stroke-miterlimit="10" stroke-linecap="round" />
    <path d="M16.5004 14.4004H15.9004V15.0004H16.5004V14.4004Z" stroke="currentColor" stroke-width="0.75"
      stroke-miterlimit="10" stroke-linecap="round" />
    <path d="M18.2992 14.4004H17.6992V15.0004H18.2992V14.4004Z" stroke="currentColor" stroke-width="0.75"
      stroke-miterlimit="10" stroke-linecap="round" />
    <path d="M16.5004 16.1992H15.9004V16.7992H16.5004V16.1992Z" stroke="currentColor" stroke-width="0.75"
      stroke-miterlimit="10" stroke-linecap="round" />
    <path d="M18.2992 16.1992H17.6992V16.7992H18.2992V16.1992Z" stroke="currentColor" stroke-width="0.75"
      stroke-miterlimit="10" stroke-linecap="round" />
    <path d="M16.5004 18H15.9004V18.6H16.5004V18Z" stroke="currentColor" stroke-width="0.75" stroke-miterlimit="10"
      stroke-linecap="round" />
    <path d="M18.2992 18H17.6992V18.6H18.2992V18Z" stroke="currentColor" stroke-width="0.75" stroke-miterlimit="10"
      stroke-linecap="round" />
    <path d="M10.5004 12.5996H9.90039V13.1996H10.5004V12.5996Z" stroke="currentColor" stroke-width="0.75"
      stroke-miterlimit="10" stroke-linecap="round" />
    <path d="M12.2992 12.5996H11.6992V13.1996H12.2992V12.5996Z" stroke="currentColor" stroke-width="0.75"
      stroke-miterlimit="10" stroke-linecap="round" />
    <path d="M14.1 12.5996H13.5V13.1996H14.1V12.5996Z" stroke="currentColor" stroke-width="0.75" stroke-miterlimit="10"
      stroke-linecap="round" />
    <path d="M10.5004 14.4004H9.90039V15.0004H10.5004V14.4004Z" stroke="currentColor" stroke-width="0.75"
      stroke-miterlimit="10" stroke-linecap="round" />
    <path d="M12.2992 14.4004H11.6992V15.0004H12.2992V14.4004Z" stroke="currentColor" stroke-width="0.75"
      stroke-miterlimit="10" stroke-linecap="round" />
    <path d="M14.1 14.4004H13.5V15.0004H14.1V14.4004Z" stroke="currentColor" stroke-width="0.75" stroke-miterlimit="10"
      stroke-linecap="round" />
    <path d="M14.1004 20.1V16.5H9.90039V20.1" stroke="currentColor" stroke-linecap="round" stroke-linejoin="round" />
    <path d="M19.7992 11.0996V20.0996H4.19922V11.0996" stroke="currentColor" stroke-linecap="round"
      stroke-linejoin="round" />
    <path d="M13.2008 8.09961H17.7008L20.7008 11.0996H3.30078L6.30078 8.09961H10.8008" stroke="currentColor"
      stroke-linecap="round" stroke-linejoin="round" />
    <path d="M11.4004 9.59961H12.6004" stroke="currentColor" stroke-linecap="round" stroke-linejoin="round" />
    <path d="M12 16.5V20.1" stroke="currentColor" stroke-linecap="round" stroke-linejoin="round" />
  </symbol>

  <symbol id="facebook" viewBox="0 0 24 24" fill="none" xmlns="http://www.w3.org/2000/svg">
    <path
      d="M18.6367 5.37695L18.1904 5.3291C17.4762 5.25237 16.7583 5.21489 16.04 5.21777C14.9017 5.21779 13.8911 5.56722 13.1641 6.28613C12.4357 7.00647 12.047 8.04322 12.0469 9.30859V10.8135H9.7002V14.5293H12.0459V20.5H3.99316C3.72065 20.4998 3.50024 20.2793 3.5 20.0068V3.99316C3.50023 3.72065 3.72065 3.50023 3.99316 3.5H20.0068C20.2793 3.50024 20.4998 3.72065 20.5 3.99316V20.0068C20.4998 20.2793 20.2793 20.4998 20.0068 20.5H15.8525V14.5293H18.1318L18.1885 14.0938L18.5381 11.377L18.6113 10.8135H15.8516V9.5791C15.8516 9.2073 15.9094 9.03332 15.9844 8.94434C16.0432 8.87457 16.2019 8.75586 16.6992 8.75586H18.6367V5.37695Z"
      fill="currentColor" stroke="currentColor" />
  </symbol>

  <symbol id="instagram" viewBox="0 0 24 24" fill="none" xmlns="http://www.w3.org/2000/svg">
    <path
      d="M13.0029 3C14.6719 3 16.0252 2.99775 17.0879 3.14062C18.1791 3.28744 19.1136 3.60436 19.8574 4.34863C20.6007 5.09269 20.9165 6.0269 21.0635 7.11816C21.2065 8.18077 21.2051 9.53306 21.2051 11.2021V13.0029C21.2051 14.672 21.2074 16.0252 21.0645 17.0879C20.9176 18.1792 20.6009 19.1136 19.8564 19.8574C19.1124 20.6007 18.1782 20.9166 17.0869 21.0635C16.0243 21.2065 14.6719 21.2051 13.0029 21.2051H11.2021C9.53318 21.2051 8.17986 21.2074 7.11719 21.0645C6.026 20.9176 5.09142 20.6008 4.34766 19.8564C3.60447 19.1124 3.28851 18.1782 3.1416 17.0869C2.9986 16.0243 3 14.672 3 13.0029V11.2021C3 9.53307 2.99769 8.17991 3.14062 7.11719C3.28745 6.02593 3.60425 5.09147 4.34863 4.34766C5.09266 3.60436 6.02696 3.28855 7.11816 3.1416C8.18072 2.99859 9.53316 3 11.2021 3H13.0029ZM11.2021 5C9.47689 5 8.283 5.00214 7.38477 5.12305C6.51543 5.24013 6.07266 5.45202 5.76172 5.7627C5.4514 6.0729 5.24 6.5147 5.12305 7.38379C5.00221 8.28222 5 9.47653 5 11.2021V13.0029C5 14.7283 5.00215 15.922 5.12305 16.8203C5.24008 17.6896 5.45213 18.1324 5.7627 18.4434C6.07287 18.7537 6.5148 18.9651 7.38379 19.082C8.28218 19.2029 9.47666 19.2051 11.2021 19.2051H13.0029C14.7282 19.2051 15.9221 19.2029 16.8203 19.082C17.6898 18.965 18.1324 18.753 18.4434 18.4424C18.7538 18.1322 18.9651 17.6905 19.082 16.8213C19.2029 15.9228 19.2051 14.7285 19.2051 13.0029V11.2021C19.2051 9.47677 19.2029 8.28304 19.082 7.38477C18.965 6.51533 18.7531 6.07268 18.4424 5.76172C18.1322 5.45147 17.6903 5.23998 16.8213 5.12305C15.9229 5.00226 14.7284 5 13.0029 5H11.2021ZM12.1035 7.50195C14.6444 7.50228 16.7041 9.56259 16.7041 12.1035C16.7037 14.6441 14.6441 16.7038 12.1035 16.7041C9.56266 16.7041 7.5024 14.6443 7.50195 12.1035C7.50195 9.56239 9.56239 7.50195 12.1035 7.50195ZM12.1035 9.50195C10.667 9.50195 9.50195 10.667 9.50195 12.1035C9.5024 13.5397 10.6672 14.7041 12.1035 14.7041C13.5395 14.7038 14.7037 13.5395 14.7041 12.1035C14.7041 10.6672 13.5398 9.50228 12.1035 9.50195ZM17.0537 5.80078C17.7995 5.80078 18.4043 6.40555 18.4043 7.15137C18.4043 7.89715 17.7995 8.50195 17.0537 8.50195C16.3081 8.50175 15.7041 7.89702 15.7041 7.15137C15.7041 6.40568 16.3081 5.80099 17.0537 5.80078Z"
      fill="currentColor" />
  </symbol>

  <symbol id="linkedin" viewBox="0 0 24 24" fill="none" xmlns="http://www.w3.org/2000/svg">
    <path
      d="M5 3.5H19C19.3978 3.5 19.7792 3.65815 20.0605 3.93945C20.3419 4.22076 20.5 4.60218 20.5 5V19C20.5 19.3978 20.3419 19.7792 20.0605 20.0605C19.7792 20.3419 19.3978 20.5 19 20.5H5C4.60218 20.5 4.22076 20.3419 3.93945 20.0605C3.65815 19.7792 3.5 19.3978 3.5 19V5C3.5 4.60218 3.65815 4.22076 3.93945 3.93945C4.22076 3.65815 4.60218 3.5 5 3.5ZM5 19H8.76953V9.62988H5V19ZM15.2402 9.44043C14.6307 9.44043 13.9731 9.65806 13.4199 10.0322V9.62988H9.62988V19H13.4199V13.5703C13.4199 13.0719 13.8206 12.6702 14.3096 12.6699C14.5482 12.6699 14.7775 12.7648 14.9463 12.9336C15.1151 13.1024 15.21 13.3316 15.21 13.5703V19H19V13.2002C19 12.203 18.6036 11.2462 17.8984 10.541C17.1934 9.8361 16.2372 9.44049 15.2402 9.44043ZM6.87988 4.69043C6.2991 4.69046 5.74173 4.92038 5.33105 5.33105C4.92038 5.74173 4.69046 6.2991 4.69043 6.87988C4.69043 8.08984 5.67767 9.05951 6.87988 9.05957C7.45805 9.05957 8.01305 8.8307 8.42188 8.42188C8.8307 8.01305 9.05957 7.45805 9.05957 6.87988C9.05951 5.67767 8.08984 4.69043 6.87988 4.69043Z"
      fill="currentColor" stroke="currentColor" />
  </symbol>

  <symbol id="youtube" viewBox="0 0 24 24" fill="none" xmlns="http://www.w3.org/2000/svg">
    <path
      d="M12.1025 5C14.1089 5 15.6803 4.99949 16.873 5.10254C18.0416 5.20354 19.0565 5.41481 19.8066 5.99805C20.6101 6.62306 20.926 7.52123 21.0684 8.51758C21.2074 9.49105 21.2051 10.7579 21.2051 12.3018C21.2051 13.846 21.2074 15.1133 21.0684 16.0869C20.926 17.0832 20.61 17.9805 19.8066 18.6055C19.0565 19.1888 18.0417 19.4009 16.873 19.502C15.6803 19.605 14.1089 19.6035 12.1025 19.6035C10.0962 19.6035 8.52477 19.605 7.33203 19.502C6.16344 19.4009 5.1485 19.1888 4.39844 18.6055C3.59531 17.9805 3.27905 17.0831 3.13672 16.0869C2.99767 15.1133 3 13.8459 3 12.3018C3 10.7578 2.99769 9.49105 3.13672 8.51758C3.27907 7.52124 3.59502 6.62308 4.39844 5.99805C5.14849 5.41467 6.16345 5.20357 7.33203 5.10254C8.52477 4.99946 10.0962 5 12.1025 5ZM12.1025 7C10.058 7 8.58985 7.00088 7.50391 7.09473C6.39459 7.19066 5.88956 7.37295 5.62695 7.57715C5.41788 7.73983 5.22704 8.02431 5.11621 8.7998C5.0021 9.59857 5 10.6952 5 12.3018C5 13.9082 5.00215 15.0049 5.11621 15.8037C5.22698 16.5791 5.41796 16.8636 5.62695 17.0264C5.88953 17.2306 6.39449 17.4128 7.50391 17.5088C8.58985 17.6026 10.058 17.6035 12.1025 17.6035C14.147 17.6035 15.6152 17.6026 16.7012 17.5088C17.8106 17.4129 18.3155 17.2306 18.5781 17.0264C18.7872 16.8637 18.978 16.5795 19.0889 15.8037C19.2029 15.0049 19.2051 13.9083 19.2051 12.3018C19.2051 10.6952 19.203 9.59857 19.0889 8.7998C18.978 8.02418 18.7873 7.7398 18.5781 7.57715C18.3154 7.37302 17.8103 7.19062 16.7012 7.09473C15.6152 7.00091 14.147 7 12.1025 7ZM15.7041 12.3018L10.3027 15.4531V9.15137L15.7041 12.3018Z"
      fill="currentColor" />
  </symbol>

  <symbol id="arrow-up-diagonal" viewBox="0 0 20 20" fill="none" xmlns="http://www.w3.org/2000/svg">
    <path
      d="M14.0361 5.875C14.243 5.87528 14.4111 6.04307 14.4111 6.25V9.19531C14.411 9.34663 14.3194 9.48286 14.1797 9.54102C14.0396 9.59904 13.8778 9.56713 13.7705 9.45996L12.5625 8.25195L6.51562 14.2998C6.36918 14.4463 6.13082 14.4463 5.98438 14.2998C5.8386 14.1533 5.8382 13.9158 5.98438 13.7695L12.0312 7.72168L10.8252 6.51562C10.718 6.40839 10.6861 6.24656 10.7441 6.10645C10.8022 5.96636 10.9392 5.875 11.0908 5.875H14.0361Z"
      fill="currentColor" />
  </symbol>

  <symbol id="phone-circle-filled" viewBox="0 0 64 64" fill="none" xmlns="http://www.w3.org/2000/svg">
    <path
      d="M32 64C49.6731 64 64 49.6731 64 32C64 14.3269 49.6731 0 32 0C14.3269 0 0 14.3269 0 32C0 49.6731 14.3269 64 32 64Z"
      fill="currentColor" />
    <path d="M21.5885 18.877C23.5575 21.77 26.104 25.0755 28.106 27.116" stroke="white" stroke-width="1.5"
      stroke-linecap="round" stroke-linejoin="round" />
    <path d="M36.8785 35.9434C39.513 38.2424 42.7745 40.8164 45.2275 42.2794L36.8785 35.9434Z" fill="white" />
    <path d="M36.8785 35.9434C39.513 38.2424 42.7745 40.8164 45.2275 42.2794" stroke="white" stroke-width="1.5"
      stroke-linecap="round" stroke-linejoin="round" />
    <path
      d="M30.2345 33.766C25.8345 29.366 26.7915 28.4695 27.479 27.782L28.7055 26.5555C29.371 25.89 29.492 25.131 28.953 24.46C27.633 22.8045 25.752 20.3295 24.4485 18.6575C23.64 17.6235 21.6545 18.289 20.12 19.8235C18.712 21.2315 17.678 23.921 18.382 26.132C19.3005 29.003 22.892 34.096 26.3955 37.5995C29.899 41.103 34.9975 44.6945 37.863 45.613C40.074 46.3225 42.7635 45.283 44.1715 43.875C45.706 42.3405 46.3715 40.355 45.3375 39.5465C43.6655 38.243 41.1905 36.362 39.535 35.042C38.864 34.5085 38.105 34.624 37.4395 35.2895C37.0985 35.6305 36.6255 36.1035 36.213 36.516C35.5255 37.2035 34.629 38.1605 30.229 33.7605L30.2345 33.766Z"
      stroke="white" stroke-width="1.5" stroke-linecap="round" stroke-linejoin="round" />
  </symbol>

  <symbol id="enquiry-circle-filled" viewBox="0 0 64 64" fill="none" xmlns="http://www.w3.org/2000/svg">
    <path
      d="M32 64C49.6731 64 64 49.6731 64 32C64 14.3269 49.6731 0 32 0C14.3269 0 0 14.3269 0 32C0 49.6731 14.3269 64 32 64Z"
      fill="currentColor" />
    <path d="M32 27.1417C32 23.9625 32.9922 20.6685 36.05 19.7167C39.0403 18.7852 41.45 16.3687 41.45 12.9667V10.2667"
      stroke="white" stroke-width="1.5" stroke-linejoin="round" />
    <path
      d="M48.5376 27.162H15.4626C14.1578 27.162 13.1001 28.2197 13.1001 29.5245V40.9995C13.1001 42.3043 14.1578 43.362 15.4626 43.362H48.5376C49.8424 43.362 50.9001 42.3043 50.9001 40.9995V29.5245C50.9001 28.2197 49.8424 27.162 48.5376 27.162Z"
      stroke="white" stroke-width="1.5" stroke-linejoin="round" />
    <path d="M17.8251 30.5167H16.4751V31.8667H17.8251V30.5167Z" fill="white" />
    <path d="M20.5248 30.5167H19.1748V31.8667H20.5248V30.5167Z" fill="white" />
    <path d="M23.225 30.5167H21.875V31.8667H23.225V30.5167Z" fill="white" />
    <path d="M25.9252 30.5167H24.5752V31.8667H25.9252V30.5167Z" fill="white" />
    <path d="M28.6249 30.5167H27.2749V31.8667H28.6249V30.5167Z" fill="white" />
    <path d="M31.3251 30.5167H29.9751V31.8667H31.3251V30.5167Z" fill="white" />
    <path d="M34.0248 30.5167H32.6748V31.8667H34.0248V30.5167Z" fill="white" />
    <path d="M36.725 30.5167H35.375V31.8667H36.725V30.5167Z" fill="white" />
    <path d="M39.4252 30.5167H38.0752V31.8667H39.4252V30.5167Z" fill="white" />
    <path d="M42.1249 30.5167H40.7749V31.8667H42.1249V30.5167Z" fill="white" />
    <path d="M44.8251 30.5167H43.4751V31.8667H44.8251V30.5167Z" fill="white" />
    <path d="M47.5248 30.5167H46.1748V31.8667H47.5248V30.5167Z" fill="white" />
    <path d="M17.8251 33.2168H16.4751V34.5668H17.8251V33.2168Z" fill="white" />
    <path d="M20.5248 33.2168H19.1748V34.5668H20.5248V33.2168Z" fill="white" />
    <path d="M23.225 33.2168H21.875V34.5668H23.225V33.2168Z" fill="white" />
    <path d="M25.9252 33.2168H24.5752V34.5668H25.9252V33.2168Z" fill="white" />
    <path d="M28.6249 33.2168H27.2749V34.5668H28.6249V33.2168Z" fill="white" />
    <path d="M31.3251 33.2168H29.9751V34.5668H31.3251V33.2168Z" fill="white" />
    <path d="M34.0248 33.2168H32.6748V34.5668H34.0248V33.2168Z" fill="white" />
    <path d="M36.725 33.2168H35.375V34.5668H36.725V33.2168Z" fill="white" />
    <path d="M39.4252 33.2168H38.0752V34.5668H39.4252V33.2168Z" fill="white" />
    <path d="M42.1249 33.2168H40.7749V34.5668H42.1249V33.2168Z" fill="white" />
    <path d="M44.8251 33.2168H43.4751V34.5668H44.8251V33.2168Z" fill="white" />
    <path d="M47.5248 33.2168H46.1748V34.5668H47.5248V33.2168Z" fill="white" />
    <path d="M17.8251 35.9167H16.4751V37.2667H17.8251V35.9167Z" fill="white" />
    <path d="M20.5248 35.9167H19.1748V37.2667H20.5248V35.9167Z" fill="white" />
    <path d="M23.225 35.9167H21.875V37.2667H23.225V35.9167Z" fill="white" />
    <path d="M25.9252 35.9167H24.5752V37.2667H25.9252V35.9167Z" fill="white" />
    <path d="M28.6249 35.9167H27.2749V37.2667H28.6249V35.9167Z" fill="white" />
    <path d="M31.3251 35.9167H29.9751V37.2667H31.3251V35.9167Z" fill="white" />
    <path d="M34.0248 35.9167H32.6748V37.2667H34.0248V35.9167Z" fill="white" />
    <path d="M36.725 35.9167H35.375V37.2667H36.725V35.9167Z" fill="white" />
    <path d="M39.4252 35.9167H38.0752V37.2667H39.4252V35.9167Z" fill="white" />
    <path d="M42.1249 35.9167H40.7749V37.2667H42.1249V35.9167Z" fill="white" />
    <path d="M44.8251 35.9167H43.4751V37.2667H44.8251V35.9167Z" fill="white" />
    <path d="M47.5248 35.9167H46.1748V37.2667H47.5248V35.9167Z" fill="white" />
    <path d="M17.8251 38.6167H16.4751V39.9667H17.8251V38.6167Z" fill="white" />
    <path d="M20.5248 38.6167H19.1748V39.9667H20.5248V38.6167Z" fill="white" />
    <path d="M23.225 38.6167H21.875V39.9667H23.225V38.6167Z" fill="white" />
    <path d="M39.4252 38.6167H24.5752V39.9667H39.4252V38.6167Z" fill="white" />
    <path d="M42.1249 38.6167H40.7749V39.9667H42.1249V38.6167Z" fill="white" />
    <path d="M44.8251 38.6167H43.4751V39.9667H44.8251V38.6167Z" fill="white" />
    <path d="M47.5248 38.6167H46.1748V39.9667H47.5248V38.6167Z" fill="white" />
  </symbol>

  <symbol id="location-circle-filled" viewBox="0 0 64 64" fill="none" xmlns="http://www.w3.org/2000/svg">
    <g clip-path="url(#clip0_7003_2759)">
      <path
        d="M32 64C49.6731 64 64 49.6731 64 32C64 14.3269 49.6731 0 32 0C14.3269 0 0 14.3269 0 32C0 49.6731 14.3269 64 32 64Z"
        fill="currentColor" />
      <path
        d="M31.6989 33.7006C34.7732 33.7006 37.2654 31.2084 37.2654 28.134C37.2654 25.0596 34.7732 22.5674 31.6989 22.5674C28.6246 22.5674 26.1323 25.0596 26.1323 28.134C26.1323 31.2084 28.6246 33.7006 31.6989 33.7006Z"
        stroke="white" stroke-width="1.5" stroke-linecap="round" stroke-linejoin="round" />
      <path
        d="M31.7005 47.9256C36.1352 43.7754 42.8336 35.1595 42.8336 28.1332C42.8336 21.9852 37.8485 17 31.7005 17C25.5525 17 20.5674 21.9852 20.5674 28.1332C20.5674 35.1595 27.2658 43.7754 31.7005 47.9256Z"
        stroke="white" stroke-width="1.5" stroke-linecap="round" stroke-linejoin="round" />
      <path
        d="M39.1592 43.1815C39.4622 43.4969 39.7653 43.7938 40.0498 44.0598C43.3774 40.9486 48.3997 34.4852 48.3997 29.2154C48.3997 25.9126 46.4761 23.0674 43.6928 21.7129"
        stroke="white" stroke-width="1.5" stroke-linecap="round" stroke-linejoin="round" />
      <path
        d="M19.7068 21.7129C16.9236 23.0674 15 25.9126 15 29.2154C15 34.4852 20.0223 40.9486 23.3498 44.0598C23.6344 43.7938 23.9374 43.4907 24.2405 43.1815"
        stroke="white" stroke-width="1.5" stroke-linecap="round" stroke-linejoin="round" />
    </g>
    <defs>
      <clipPath id="clip0_7003_2759">
        <rect width="64" height="64" fill="white" />
      </clipPath>
    </defs>
  </symbol>

  <symbol id="message-circle-filled" viewBox="0 0 64 64" fill="none" xmlns="http://www.w3.org/2000/svg">
    <path
      d="M32 64C49.6731 64 64 49.6731 64 32C64 14.3269 49.6731 0 32 0C14.3269 0 0 14.3269 0 32C0 49.6731 14.3269 64 32 64Z"
      fill="currentColor" />
    <path d="M22.5898 38.22L31.4598 29.87L35.6248 34.035L44.5048 25.5" stroke="white" stroke-width="2"
      stroke-linecap="round" stroke-linejoin="round" />
    <path d="M41.5049 25.5H44.5049V28.5L41.5049 25.5Z" fill="white" stroke="white" stroke-width="1.5"
      stroke-linecap="round" stroke-linejoin="round" />
    <path d="M44.4951 43.5H19.4951V20.5" stroke="white" stroke-width="2" stroke-linecap="round"
      stroke-linejoin="round" />
  </symbol>

  <symbol id="chevron-right-circle-filled" viewBox="0 0 40 40" fill="none" xmlns="http://www.w3.org/2000/svg">
    <rect width="40" height="40" rx="20" fill="none" />
    <path d="M18 14L24 19.5L18 25" stroke="currentColor" stroke-width="1.5" stroke-linecap="round"
      stroke-linejoin="round" />
  </symbol>

  <symbol id="search-default" viewBox="0 0 24 24" fill="none" xmlns="http://www.w3.org/2000/svg">
    <path
      d="M16.0649 14.2773L19.7519 17.9643C20.2139 18.4263 20.2139 19.1823 19.7519 19.6473L19.6439 19.7553C19.1819 20.2173 18.4259 20.2173 17.9609 19.7553L14.2739 16.0683"
      stroke="currentColor" stroke-miterlimit="10" stroke-linecap="round" />
    <path
      d="M15.3012 15.0274C17.8015 12.375 17.6783 8.19794 15.0259 5.69761C12.3736 3.19729 8.19651 3.32053 5.69618 5.97288C3.19586 8.62523 3.3191 12.8023 5.97146 15.3026C8.62381 17.803 12.8009 17.6797 15.3012 15.0274Z"
      stroke="currentColor" stroke-miterlimit="10" stroke-linecap="round" />
  </symbol>

  <symbol id="enquiry-circle-filled-alt" viewBox="0 0 64 64" fill="none" xmlns="http://www.w3.org/2000/svg">
    <path
      d="M32 64C49.6731 64 64 49.6731 64 32C64 14.3269 49.6731 0 32 0C14.3269 0 0 14.3269 0 32C0 49.6731 14.3269 64 32 64Z"
      fill="currentColor" />
    <rect width="44" height="44" transform="translate(10 10)" fill="currentColor" />
    <path d="M27.578 32.1367L17.7 41.9157" stroke="white" stroke-linecap="round" stroke-linejoin="round" />
    <path d="M46.3 41.9157L36.422 32.1367" stroke="white" stroke-linecap="round" stroke-linejoin="round" />
    <path d="M17.7 22.0898L30.6139 34.8993C31.3784 35.6528 32.627 35.6528 33.386 34.8993L46.2999 22.0898" stroke="white"
      stroke-linecap="round" stroke-linejoin="round" />
    <path
      d="M44.859 21.3516H19.1355C18.0693 21.3516 17.205 22.2159 17.205 23.2821V40.7226C17.205 41.7887 18.0693 42.6531 19.1355 42.6531H44.859C45.9251 42.6531 46.7895 41.7887 46.7895 40.7226V23.2821C46.7895 22.2159 45.9251 21.3516 44.859 21.3516Z"
      stroke="white" stroke-linecap="round" stroke-linejoin="round" />
  </symbol>

  <symbol id="message-circle-filled-alt" viewBox="0 0 64 64" fill="none" xmlns="http://www.w3.org/2000/svg">
    <path
      d="M32 64C49.6731 64 64 49.6731 64 32C64 14.3269 49.6731 0 32 0C14.3269 0 0 14.3269 0 32C0 49.6731 14.3269 64 32 64Z"
      fill="currentColor" />
    <path d="M17.1561 21.8848H46.8451" stroke="white" stroke-linecap="round" stroke-linejoin="round" />
    <path d="M17.1561 17.1562V40.9053H24.8726V46.8452L30.8126 40.9053H46.8451V17.1562H17.1561Z" stroke="white"
      stroke-linecap="round" stroke-linejoin="round" />
  </symbol>

  <symbol id="location-circle-filled-alt" viewBox="0 0 64 64" fill="none" xmlns="http://www.w3.org/2000/svg">
    <path
      d="M32 64C49.6731 64 64 49.6731 64 32C64 14.3269 49.6731 0 32 0C14.3269 0 0 14.3269 0 32C0 49.6731 14.3269 64 32 64Z"
      fill="currentColor" />
    <path
      d="M32 33.0992C34.7338 33.0992 36.95 30.883 36.95 28.1492C36.95 25.4154 34.7338 23.1992 32 23.1992C29.2662 23.1992 27.05 25.4154 27.05 28.1492C27.05 30.883 29.2662 33.0992 32 33.0992Z"
      stroke="white" stroke-linecap="round" stroke-linejoin="round" />
    <path
      d="M32 45.75C35.9435 42.0595 41.9 34.398 41.9 28.15C41.9 22.683 37.467 18.25 32 18.25C26.533 18.25 22.1 22.683 22.1 28.15C22.1 34.398 28.0565 42.0595 32 45.75Z"
      stroke="white" stroke-linecap="round" stroke-linejoin="round" />
  </symbol>

  <symbol id="secure-lock" viewBox="0 0 64 64" fill="none" xmlns="http://www.w3.org/2000/svg">
    <path
      d="M32 64C49.6731 64 64 49.6731 64 32C64 14.3269 49.6731 0 32 0C14.3269 0 0 14.3269 0 32C0 49.6731 14.3269 64 32 64Z"
      fill="currentColor" />
    <path fill-rule="evenodd" clip-rule="evenodd"
      d="M32 46.2992C38.2975 44.3467 45.75 38.8632 45.75 33.6492C45.75 28.7487 44.8205 23.3697 43.1375 18.6177C43.1375 18.6177 38.9245 17.6992 32 17.6992C25.0755 17.6992 20.8625 18.6177 20.8625 18.6177C19.174 23.3752 18.25 28.7487 18.25 33.6492C18.25 38.8632 25.7025 44.3467 32 46.2992Z"
      stroke="white" stroke-width="1.5" stroke-linecap="round" stroke-linejoin="round" />
    <path
      d="M35.3 29.25H28.7C27.7888 29.25 27.05 29.9887 27.05 30.9V35.3C27.05 36.2113 27.7888 36.95 28.7 36.95H35.3C36.2113 36.95 36.95 36.2113 36.95 35.3V30.9C36.95 29.9887 36.2113 29.25 35.3 29.25Z"
      fill="white" stroke="white" stroke-width="1.5" stroke-linecap="round" stroke-linejoin="round" />
    <path d="M35.85 29.25V27.6C35.85 25.4715 34.1285 23.75 32 23.75C29.8715 23.75 28.15 25.4715 28.15 27.6V29.25"
      stroke="white" stroke-width="1.5" stroke-linecap="round" stroke-linejoin="round" />
    <path
      d="M33.1 33.1C33.1 32.495 32.605 32 32 32C31.395 32 30.9 32.495 30.9 33.1C30.9 33.4465 31.065 33.749 31.3125 33.9525V34.6125C31.3125 34.992 31.6205 35.3 32 35.3C32.3795 35.3 32.6875 34.992 32.6875 34.6125V33.9525C32.935 33.749 33.1 33.4465 33.1 33.1Z"
      fill="currentColor" />
  </symbol>

  <symbol id="people-group" viewBox="0 0 64 64" fill="none" xmlns="http://www.w3.org/2000/svg">
    <path
      d="M32 64C49.6731 64 64 49.6731 64 32C64 14.3269 49.6731 0 32 0C14.3269 0 0 14.3269 0 32C0 49.6731 14.3269 64 32 64Z"
      fill="currentColor" />
    <path
      d="M35.5089 34.3594C34.9204 35.7564 33.5344 36.7354 31.9229 36.7354C30.3114 36.7354 29.0299 35.8279 28.4084 34.5079"
      stroke="white" stroke-width="1.5" stroke-linecap="round" stroke-linejoin="round" />
    <path
      d="M29.536 30.8168C28.359 30.0358 27.589 28.6938 27.589 27.1758V23.7768C27.589 21.3623 29.547 19.4043 31.9615 19.4043C34.376 19.4043 36.334 21.3623 36.334 23.7768V27.1758C36.334 29.5903 34.376 31.5483 31.9615 31.5483C31.9615 31.5483 30.812 31.6473 30.0255 31.1193L29.5415 30.8168H29.536Z"
      stroke="white" stroke-width="1.5" stroke-linecap="round" stroke-linejoin="round" />
    <path
      d="M29.7725 30.9831V33.4361L23.5025 36.0101C22.0175 36.5711 21.033 37.9956 21.033 39.5851V44.5901H42.8845V39.5741C42.8845 37.9901 41.9055 36.5711 40.426 36.0046L34.145 33.3921V30.9336"
      stroke="white" stroke-width="1.5" stroke-linecap="round" stroke-linejoin="round" />
    <path d="M41.2565 31.4668V33.7163L47.004 36.1033C48.357 36.6203 49.2535 37.9238 49.2535 39.3703V42.7253H44.7435"
      stroke="white" stroke-linecap="round" stroke-linejoin="round" />
    <path
      d="M37.5825 21.281C37.9675 21.105 38.391 20.984 38.831 20.94C38.9685 20.9235 39.1115 20.918 39.2545 20.918C41.4655 20.918 43.253 22.711 43.253 24.9165V28.0295C43.253 29.5035 42.4555 30.796 41.262 31.489"
      stroke="white" stroke-linecap="round" stroke-linejoin="round" />
    <path d="M22.7436 31.4668V33.7163L16.9961 36.1033C15.6431 36.6203 14.7466 37.9238 14.7466 39.3703V42.7253H19.2566"
      stroke="white" stroke-linecap="round" stroke-linejoin="round" />
    <path
      d="M26.4174 21.281C26.0324 21.105 25.6089 20.984 25.1689 20.94C25.0314 20.9235 24.8884 20.918 24.7454 20.918C22.5344 20.918 20.7469 22.711 20.7469 24.9165V28.0295C20.7469 29.5035 21.5444 30.796 22.7379 31.489"
      stroke="white" stroke-linecap="round" stroke-linejoin="round" />
  </symbol>

  <symbol id="dollar-hand" viewBox="0 0 64 64" fill="none" xmlns="http://www.w3.org/2000/svg">
    <path
      d="M32 64C49.6731 64 64 49.6731 64 32C64 14.3269 49.6731 0 32 0C14.3269 0 0 14.3269 0 32C0 49.6731 14.3269 64 32 64Z"
      fill="currentColor" />
    <path
      d="M21.209 46.2453C21.209 46.2453 24.003 44.2818 24.597 43.8968C25.191 43.5118 25.7245 42.9453 26.5605 42.9453H36.609C37.9785 42.9453 38.93 42.4723 39.733 41.7573C40.536 41.0423 47.257 35.2893 47.906 34.6953C48.126 34.4918 48.5 34.0793 48.5 33.0288C48.5 32.4073 47.6585 31.9453 46.85 31.9453C45.959 31.9453 45.53 31.9728 44.485 32.6603C43.4455 33.3423 40.514 35.2178 38.369 36.0538"
      stroke="white" stroke-width="1.5" stroke-linecap="round" stroke-linejoin="round" />
    <path
      d="M15.5 39.6449C15.5 39.6449 18.415 37.9619 21.539 34.6894C22.4685 33.7159 23.9095 33.0449 26.489 33.0449C28.876 33.0449 30.1685 34.2879 32.209 34.8379C32.88 35.0194 34.4695 35.0964 35.861 35.2449C37.126 35.3769 38.6 35.4374 38.6 36.8949C38.6 38.4569 37.0215 38.5449 35.861 38.5449H31.329"
      stroke="white" stroke-width="1.5" stroke-linecap="round" stroke-linejoin="round" />
    <path
      d="M29.25 27.7155C29.5635 28.403 30.482 29.2115 32 29.2115C33.518 29.2115 34.75 28.172 34.75 26.8905C34.75 23.189 29.426 25.29 29.426 22.133C29.426 20.978 30.548 20.043 31.9175 20.043C33.287 20.043 33.9635 20.6535 34.2385 20.934"
      stroke="white" stroke-width="1.5" stroke-miterlimit="10" stroke-linecap="round" />
    <path d="M32 17.7559V20.0439" stroke="white" stroke-miterlimit="10" stroke-linecap="round" />
    <path d="M32 29.2109V31.5044" stroke="white" stroke-miterlimit="10" stroke-linecap="round" />
  </symbol>

  <symbol id="checkmark" viewBox="0 0 32 32" fill="none" xmlns="http://www.w3.org/2000/svg">
    <path
      d="M27.9993 9.33312L11.9993 25.3331L4.66602 17.9998L6.54602 16.1198L11.9993 21.5598L26.1194 7.45312L27.9993 9.33312Z"
      fill="currentColor" />
  </symbol>


  <defs>
    <linearGradient id="paint0_linear_1365_7052" x1="21.799" y1="32.0035" x2="1.95302" y2="26.7183"
      gradientUnits="userSpaceOnUse">
      <stop stop-color="#00A0FF" />
      <stop offset="0.007" stop-color="#00A1FF" />
      <stop offset="0.26" stop-color="#00BEFF" />
      <stop offset="0.512" stop-color="#00D2FF" />
      <stop offset="0.76" stop-color="#00DFFF" />
      <stop offset="1" stop-color="#00E3FF" />
    </linearGradient>
    <linearGradient id="paint1_linear_1365_7052" x1="33.8369" y1="20.7141" x2="9.63191" y2="20.7141"
      gradientUnits="userSpaceOnUse">
      <stop stop-color="#FFE000" />
      <stop offset="0.409" stop-color="#FFBD00" />
      <stop offset="0.775" stop-color="#FFA500" />
      <stop offset="1" stop-color="#FF9C00" />
    </linearGradient>
    <linearGradient id="paint2_linear_1365_7052" x1="24.822" y1="18.4166" x2="8.884" y2="-8.41201"
      gradientUnits="userSpaceOnUse">
      <stop stop-color="#FF3A44" />
      <stop offset="1" stop-color="#C31162" />
    </linearGradient>
    <linearGradient id="paint3_linear_1365_7052" x1="7.30099" y1="40.5442" x2="14.416" y2="28.5589"
      gradientUnits="userSpaceOnUse">
      <stop stop-color="#32A071" />
      <stop offset="0.068" stop-color="#2DA771" />
      <stop offset="0.476" stop-color="#15CF74" />
      <stop offset="0.801" stop-color="#06E775" />
      <stop offset="1" stop-color="#00F076" />
    </linearGradient>
  </defs>

  <symbol id="google-play-badge" viewBox="0 0 135 40" fill="none" xmlns="http://www.w3.org/2000/svg">
    <mask id="mask0_1365_7052" style="mask-type:luminance" maskUnits="userSpaceOnUse" x="0" y="0" width="135"
      height="40">
      <path d="M135 0H0V40H135V0Z" fill="white" />
    </mask>
    <g mask="url(#mask0_1365_7052)">
      <path
        d="M128 0H7C3.134 0 0 3.13401 0 7V33C0 36.866 3.134 40 7 40H128C131.866 40 135 36.866 135 33V7C135 3.13401 131.866 0 128 0Z"
        fill="black" />
      <path
        d="M47.4149 10.2472C47.4329 10.6137 47.3759 10.9799 47.2479 11.3237C47.1199 11.6675 46.9229 11.9817 46.6699 12.2472C46.3859 12.5415 46.0439 12.7727 45.6649 12.9257C45.2859 13.0787 44.8789 13.1501 44.4699 13.1352C43.6389 13.1352 42.8419 12.805 42.2539 12.2173C41.6659 11.6296 41.3359 10.8324 41.3359 10.0012C41.3359 9.17002 41.6659 8.37288 42.2539 7.78515C42.8419 7.19741 43.6389 6.86721 44.4699 6.86721C44.8939 6.86567 45.3129 6.95111 45.7019 7.11821C46.0639 7.26451 46.3849 7.49407 46.6409 7.78821L46.1139 8.31621C45.9129 8.07963 45.6599 7.8924 45.3759 7.76896C45.0909 7.64551 44.7809 7.58914 44.4709 7.60421C44.0779 7.60507 43.6919 7.7024 43.3449 7.88761C42.9989 8.07282 42.7029 8.34026 42.4839 8.66646C42.2649 8.99266 42.1289 9.36763 42.0889 9.75846C42.0489 10.1493 42.1049 10.544 42.2529 10.908C42.4009 11.272 42.6359 11.594 42.9379 11.846C43.2389 12.0979 43.5979 12.2719 43.9819 12.3528C44.3669 12.4337 44.7649 12.4189 45.1429 12.3099C45.5199 12.2008 45.8649 12.0007 46.1469 11.7272C46.4539 11.3952 46.6319 10.9641 46.6469 10.5122H44.4669V9.79921H47.3749C47.4019 9.94709 47.4149 10.097 47.4149 10.2472Z"
        fill="white" />
      <path
        d="M44.468 13.2414C43.988 13.2414 43.515 13.1346 43.081 12.9288C42.648 12.7231 42.266 12.4235 41.963 12.0519C41.66 11.6802 41.443 11.2457 41.328 10.7799C41.214 10.3141 41.204 9.8287 41.3 9.35877C41.397 8.88885 41.596 8.44622 41.885 8.06294C42.173 7.67966 42.543 7.36533 42.968 7.14274C43.393 6.92015 43.862 6.79485 44.341 6.77595C44.82 6.75705 45.298 6.845 45.739 7.03344C46.115 7.18688 46.449 7.42669 46.715 7.73344L46.774 7.80345L46.105 8.47344L46.035 8.38944C45.844 8.16354 45.603 7.98495 45.331 7.86767C45.06 7.75039 44.765 7.6976 44.469 7.71343C44.092 7.71339 43.721 7.80587 43.389 7.98275C43.056 8.15963 42.772 8.41549 42.562 8.72785C42.351 9.04022 42.22 9.39952 42.181 9.77418C42.142 10.1488 42.196 10.5274 42.337 10.8766C42.478 11.2257 42.703 11.5348 42.992 11.7767C43.281 12.0186 43.625 12.1858 43.993 12.2637C44.362 12.3416 44.744 12.3278 45.106 12.2235C45.468 12.1192 45.799 11.9275 46.069 11.6654C46.336 11.379 46.499 11.0108 46.531 10.6204H44.368V9.70243H47.459L47.474 9.78443C47.503 9.9395 47.517 10.0968 47.518 10.2544C47.536 10.6345 47.476 11.0142 47.343 11.3707C47.21 11.7271 47.006 12.0529 46.744 12.3284C46.45 12.6315 46.095 12.8694 45.703 13.0267C45.311 13.184 44.89 13.2571 44.468 13.2414ZM44.468 6.97344C43.663 6.97344 42.892 7.29309 42.323 7.86207C41.754 8.43106 41.434 9.20277 41.434 10.0074C41.434 10.8121 41.754 11.5838 42.323 12.1528C42.892 12.7218 43.663 13.0414 44.468 13.0414C44.864 13.056 45.258 12.9872 45.625 12.8396C45.992 12.6919 46.325 12.4687 46.6 12.1844C46.844 11.9272 47.033 11.6232 47.156 11.2908C47.28 10.9584 47.334 10.6045 47.317 10.2504C47.317 10.1323 47.308 10.0143 47.29 9.89744H44.568V10.4184H46.756L46.747 10.5274C46.728 11.003 46.539 11.456 46.215 11.8044C45.921 12.0867 45.563 12.2928 45.171 12.4046C44.779 12.5164 44.366 12.5305 43.968 12.4458C43.569 12.3611 43.197 12.1801 42.885 11.9186C42.573 11.657 42.329 11.323 42.175 10.9456C42.022 10.5682 41.963 10.159 42.004 9.75364C42.045 9.34829 42.185 8.95917 42.411 8.6203C42.637 8.28142 42.943 8.00308 43.302 7.80961C43.66 7.61614 44.061 7.51342 44.468 7.51043C44.774 7.49741 45.08 7.55012 45.364 7.665C45.648 7.77988 45.904 7.95426 46.115 8.17643L46.501 7.79045C46.264 7.54208 45.978 7.34648 45.66 7.21644C45.283 7.0551 44.878 6.97241 44.468 6.97344Z"
        fill="white" />
      <path d="M52.0239 7.742H49.2909V9.642H51.7549V10.363H49.2909V12.263H52.0239V13H48.5239V7H52.0239V7.742Z"
        fill="white" />
      <path
        d="M48.422 6.90625H52.122V7.84325H49.389V9.54324H51.853V10.4642H49.389V12.1642H52.122V13.1013H48.422V6.90625ZM51.922 7.10625H48.622V12.9062H51.922V12.3692H49.189V10.2693H51.653V9.74825H49.189V7.64825H51.922V7.10625Z"
        fill="white" />
      <path d="M55.268 13.0068H54.497V7.74481H52.821V7.00781H56.944V7.74481H55.268V13.0068Z" fill="white" />
      <path
        d="M55.3741 13.1052H54.4031V7.84325H52.7271V6.90625H57.05V7.84325H55.3741V13.1052ZM54.6031 12.9052H55.1741V7.64325H56.8501V7.10625H52.927V7.64325H54.6031V12.9052Z"
        fill="white" />
      <path d="M59.938 13V7H60.709V13H59.938Z" fill="white" />
      <path d="M60.8069 13.1062H59.8359V6.90625H60.8069V13.1062ZM60.0359 12.9062H60.6069V7.10625H60.0359V12.9062Z"
        fill="white" />
      <path d="M64.1269 13.0068H63.3559V7.74481H61.6799V7.00781H65.8029V7.74481H64.1269V13.0068Z" fill="white" />
      <path
        d="M64.225 13.1052H63.254V7.84325H61.578V6.90625H65.901V7.84325H64.225V13.1052ZM63.454 12.9052H64.025V7.64325H65.701V7.10625H61.778V7.64325H63.454V12.9052Z"
        fill="white" />
      <path
        d="M73.604 12.2321C73.021 12.8147 72.229 13.1419 71.405 13.1419C70.58 13.1419 69.788 12.8147 69.205 12.2321C68.637 11.6306 68.321 10.8348 68.321 10.0077C68.321 9.18053 68.637 8.3847 69.205 7.78316C69.493 7.4929 69.835 7.26254 70.213 7.10533C70.591 6.94813 70.996 6.86719 71.405 6.86719C71.814 6.86719 72.218 6.94813 72.596 7.10533C72.974 7.26254 73.316 7.4929 73.604 7.78316C74.173 8.38346 74.49 9.17884 74.49 10.0057C74.49 10.8325 74.173 11.6278 73.604 12.2281V12.2321ZM69.775 11.7321C70.207 12.164 70.793 12.4066 71.405 12.4066C72.016 12.4066 72.602 12.164 73.035 11.7321C73.464 11.2611 73.701 10.6468 73.701 10.0097C73.701 9.37247 73.464 8.75822 73.035 8.28716C72.602 7.8553 72.016 7.61275 71.405 7.61275C70.793 7.61275 70.207 7.8553 69.775 8.28716C69.346 8.75843 69.108 9.3726 69.108 10.0097C69.108 10.6467 69.346 11.2609 69.775 11.7321Z"
        fill="white" />
      <path
        d="M71.41 13.2377C70.987 13.2472 70.566 13.1686 70.175 13.0067C69.784 12.8449 69.4311 12.6034 69.1391 12.2977C68.5531 11.6775 68.2271 10.8567 68.2271 10.0037C68.2271 9.1506 68.5531 8.32984 69.1391 7.70966C69.4361 7.41048 69.7901 7.17307 70.1791 7.01105C70.5691 6.84903 70.9871 6.76562 71.4081 6.76562C71.8301 6.76562 72.2481 6.84903 72.6371 7.01105C73.0271 7.17307 73.3801 7.41048 73.6781 7.70966C74.2651 8.32866 74.5921 9.14918 74.5921 10.0022C74.5921 10.8552 74.2651 11.6757 73.6781 12.2947C73.3861 12.6003 73.0331 12.8419 72.6431 13.0042C72.2521 13.1665 71.833 13.246 71.41 13.2377ZM71.41 6.96967C71.014 6.96056 70.6201 7.034 70.2541 7.18533C69.8881 7.33666 69.5571 7.56257 69.2831 7.84866C68.7331 8.43155 68.427 9.20247 68.427 10.0037C68.427 10.8049 68.7331 11.5758 69.2831 12.1587C69.8481 12.7217 70.6131 13.0378 71.4111 13.0378C72.2091 13.0378 72.9741 12.7217 73.5391 12.1587C74.0891 11.577 74.3961 10.8065 74.3961 10.0057C74.3961 9.20477 74.0891 8.43431 73.5391 7.85266C73.2651 7.56584 72.9341 7.33921 72.5671 7.18719C72.2011 7.03518 71.807 6.9611 71.41 6.96967ZM71.41 12.5007C71.094 12.5066 70.7801 12.4476 70.4871 12.3271C70.1951 12.2067 69.9301 12.0275 69.7101 11.8007C69.2631 11.3108 69.0151 10.6714 69.0151 10.0082C69.0151 9.34489 69.2631 8.70557 69.7101 8.21567C70.1611 7.76549 70.772 7.51266 71.41 7.51266C72.047 7.51266 72.6591 7.76549 73.1101 8.21567C73.5571 8.70536 73.8061 9.34476 73.8061 10.0082C73.8061 10.6716 73.5571 11.311 73.1101 11.8007C72.8901 12.0276 72.6251 12.2068 72.3331 12.3272C72.0401 12.4477 71.726 12.5067 71.41 12.5007ZM71.41 7.70766C71.12 7.7025 70.832 7.7571 70.563 7.86806C70.295 7.97902 70.0531 8.14398 69.8511 8.35266C69.4421 8.80491 69.2151 9.39291 69.2151 10.0027C69.2151 10.6124 69.4421 11.2004 69.8511 11.6527C70.2651 12.0653 70.8251 12.297 71.4091 12.297C71.9941 12.297 72.554 12.0653 72.968 11.6527C73.377 11.2006 73.604 10.6125 73.604 10.0027C73.604 9.39279 73.377 8.8047 72.968 8.35266C72.766 8.144 72.5241 7.97905 72.2561 7.86809C71.9881 7.75712 71.7 7.70251 71.41 7.70766Z"
        fill="white" />
      <path
        d="M75.571 13V7H76.509L79.425 11.667H79.458L79.425 10.511V7H80.196V13H79.396L76.345 8.10599H76.312L76.345 9.26199V12.999L75.571 13Z"
        fill="white" />
      <path
        d="M80.295 13.1062H79.335L76.415 8.42325L76.439 9.26625V13.1062H75.469V6.90625H76.569L79.354 11.3643L79.33 10.5202V6.90625H80.301L80.295 13.1062ZM79.446 12.9062H80.095V7.10625H79.524V10.5173L79.56 11.7733H79.36L76.444 7.10625H75.664V12.9062H76.234V9.26926L76.198 8.01324H76.389L79.446 12.9062Z"
        fill="white" />
      <path
        d="M68.1311 21.7518C67.2911 21.755 66.4701 22.0071 65.7731 22.4764C65.0751 22.9456 64.5331 23.6109 64.2131 24.3883C63.8941 25.1657 63.8121 26.0204 63.9781 26.8443C64.1441 27.6683 64.5501 28.4246 65.1451 29.0178C65.7411 29.6109 66.4991 30.0144 67.3231 30.1772C68.1481 30.34 69.0021 30.2549 69.7781 29.9325C70.5541 29.6102 71.2181 29.065 71.6841 28.366C72.1511 27.6669 72.4001 26.8453 72.4001 26.0048C72.4081 25.4427 72.3031 24.8846 72.0921 24.3638C71.8801 23.843 71.5651 23.3702 71.1671 22.9734C70.7691 22.5766 70.2951 22.2639 69.7731 22.0541C69.2521 21.8442 68.6931 21.7414 68.1311 21.7518ZM68.1311 28.5828C67.6131 28.6198 67.0971 28.5 66.6481 28.2392C66.2001 27.9784 65.8401 27.5886 65.6161 27.1205C65.3921 26.6524 65.3141 26.1278 65.3931 25.6148C65.4711 25.1019 65.7021 24.6245 66.0561 24.2447C66.4091 23.8649 66.8691 23.6004 67.3751 23.4855C67.8811 23.3706 68.4101 23.4108 68.8931 23.6007C69.3761 23.7906 69.7901 24.1215 70.0821 24.5503C70.3751 24.9791 70.5311 25.486 70.5311 26.0048C70.5471 26.3328 70.4971 26.6607 70.3851 26.9691C70.2721 27.2775 70.0991 27.5603 69.8751 27.8007C69.6511 28.0411 69.3821 28.2344 69.0821 28.369C68.7831 28.5037 68.4591 28.5771 68.1311 28.5848V28.5828ZM58.8181 21.7518C57.9781 21.755 57.1571 22.0071 56.4601 22.4764C55.7621 22.9456 55.2201 23.6109 54.9001 24.3883C54.5811 25.1657 54.4991 26.0204 54.6651 26.8443C54.8311 27.6683 55.2371 28.4246 55.8321 29.0178C56.4281 29.6109 57.1861 30.0144 58.0101 30.1772C58.8351 30.34 59.6891 30.2549 60.4651 29.9325C61.2411 29.6102 61.905 29.065 62.371 28.366C62.838 27.6669 63.0871 26.8453 63.0871 26.0048C63.0951 25.4429 62.9911 24.8849 62.7791 24.3643C62.5671 23.8436 62.2531 23.3709 61.8551 22.9741C61.4571 22.5773 60.9831 22.2647 60.4621 22.0547C59.9401 21.8447 59.3821 21.7417 58.8201 21.7518H58.8181ZM58.8181 28.5828C58.3001 28.6198 57.7841 28.5 57.3351 28.2392C56.8871 27.9784 56.5271 27.5886 56.3031 27.1205C56.0791 26.6524 56.001 26.1278 56.08 25.6148C56.158 25.1019 56.3891 24.6245 56.7431 24.2447C57.0961 23.8649 57.5561 23.6004 58.0621 23.4855C58.5681 23.3706 59.097 23.4108 59.58 23.6007C60.063 23.7906 60.4771 24.1215 60.7691 24.5503C61.0621 24.9791 61.218 25.486 61.218 26.0048C61.234 26.3328 61.1841 26.6607 61.0721 26.9691C60.9591 27.2775 60.7861 27.5603 60.5621 27.8007C60.3381 28.0411 60.0691 28.2344 59.7691 28.369C59.4701 28.5037 59.1461 28.5771 58.8181 28.5848V28.5828ZM47.7391 23.0518V24.8518H52.0571C51.9951 25.6983 51.6481 26.4988 51.0741 27.1238C50.6411 27.5649 50.1211 27.9103 49.5471 28.1379C48.9721 28.3654 48.3561 28.4699 47.7391 28.4448C46.4661 28.4448 45.2451 27.9391 44.3451 27.0389C43.4451 26.1388 42.9391 24.9179 42.9391 23.6448C42.9391 22.3718 43.4451 21.1509 44.3451 20.2507C45.2451 19.3505 46.4661 18.8448 47.7391 18.8448C48.9511 18.8289 50.1211 19.2922 50.9931 20.1338L52.2661 18.8608C51.6711 18.2712 50.9641 17.8065 50.1861 17.4938C49.409 17.1811 48.5771 17.0267 47.7391 17.0398C45.9871 17.0398 44.3071 17.7358 43.0681 18.9747C41.8291 20.2135 41.1331 21.8938 41.1331 23.6458C41.1331 25.3979 41.8291 27.0781 43.0681 28.317C44.3071 29.5558 45.9871 30.2518 47.7391 30.2518C48.5951 30.2872 49.4481 30.1402 50.2421 29.8205C51.0371 29.5009 51.7541 29.0159 52.3471 28.3978C53.3991 27.249 53.96 25.734 53.91 24.1768C53.913 23.7985 53.8801 23.4207 53.8101 23.0488L47.7391 23.0518ZM93.0471 24.4518C92.7921 23.6813 92.3051 23.0081 91.6541 22.5238C91.0021 22.0394 90.2181 21.7675 89.4061 21.7448C88.8601 21.7481 88.3191 21.8622 87.8181 22.0802C87.3171 22.2982 86.8651 22.6156 86.4901 23.0131C86.1151 23.4107 85.8251 23.8802 85.6361 24.3932C85.4481 24.9062 85.3661 25.4521 85.3941 25.9978C85.3821 26.557 85.482 27.1129 85.69 27.6323C85.897 28.1518 86.2071 28.6241 86.6011 29.0211C86.9951 29.4181 87.4651 29.7316 87.9831 29.9429C88.5011 30.1541 89.0561 30.2589 89.6151 30.2508C90.3161 30.2547 91.0061 30.0845 91.6251 29.7555C92.2431 29.4265 92.7711 28.949 93.1591 28.3658L91.7091 27.3988C91.4921 27.7597 91.1841 28.0578 90.8171 28.264C90.4501 28.4701 90.0351 28.5773 89.6141 28.5748C89.1811 28.5914 88.7521 28.4774 88.3851 28.2475C88.0171 28.0177 87.727 27.6826 87.552 27.2858L93.2391 24.9338L93.0471 24.4518ZM87.2471 25.8698C87.2271 25.5603 87.2691 25.2499 87.3701 24.9567C87.4721 24.6636 87.6311 24.3936 87.8381 24.1626C88.0451 23.9316 88.2961 23.7442 88.576 23.6113C88.856 23.4784 89.1601 23.4028 89.4701 23.3888C89.7931 23.3674 90.1141 23.4413 90.3951 23.6013C90.676 23.7613 90.9031 24.0004 91.0491 24.2888L87.2471 25.8698ZM82.6231 29.9938H84.4921V17.4938H82.6231V29.9938ZM79.5621 22.6938H79.4981C79.2141 22.3852 78.8671 22.1408 78.481 21.9769C78.094 21.8131 77.6781 21.7336 77.2581 21.7438C76.1621 21.7914 75.1271 22.2602 74.3681 23.0526C73.6091 23.845 73.1861 24.8997 73.1861 25.9968C73.1861 27.0939 73.6091 28.1486 74.3681 28.941C75.1271 29.7334 76.1621 30.2023 77.2581 30.2498C77.6791 30.2611 78.0981 30.1804 78.4851 30.0134C78.8721 29.8464 79.2171 29.5971 79.4981 29.2828H79.5621V29.8948C79.5621 31.5218 78.6921 32.3948 77.2901 32.3948C76.8231 32.3837 76.3701 32.2337 75.9881 31.9641C75.6061 31.6945 75.314 31.3174 75.147 30.8808L73.5201 31.5578C73.827 32.3045 74.3491 32.9426 75.0211 33.3903C75.6931 33.838 76.4831 34.075 77.2901 34.0708C79.4811 34.0708 81.3341 32.7818 81.3341 29.6408V22.0118H79.5621V22.6938ZM77.4191 28.5748C76.8951 28.6442 76.3621 28.552 75.8911 28.3107C75.4211 28.0693 75.0351 27.6902 74.7861 27.2239C74.5361 26.7576 74.4351 26.2263 74.4951 25.7009C74.5551 25.1756 74.7741 24.6811 75.1231 24.2834C75.4721 23.8857 75.9331 23.6038 76.4461 23.4753C76.9591 23.3467 77.4991 23.3776 77.994 23.5639C78.489 23.7502 78.9151 24.083 79.216 24.5178C79.517 24.9527 79.6781 25.469 79.6781 25.9978C79.6811 26.629 79.4531 27.2394 79.0361 27.714C78.6201 28.1886 78.0451 28.4948 77.4191 28.5748ZM101.8 17.4908H97.3311V29.9908H99.1971V25.2548H101.797C102.324 25.2829 102.852 25.2033 103.347 25.0209C103.843 24.8384 104.296 24.557 104.679 24.1937C105.062 23.8304 105.367 23.3929 105.576 22.9078C105.784 22.4228 105.892 21.9003 105.892 21.3723C105.892 20.8443 105.784 20.3219 105.576 19.8368C105.367 19.3517 105.062 18.9142 104.679 18.551C104.296 18.1877 103.843 17.9062 103.347 17.7238C102.852 17.5414 102.324 17.4618 101.797 17.4898L101.8 17.4908ZM101.848 23.5158H99.1941V19.2308H101.848C102.133 19.2247 102.417 19.2755 102.682 19.3804C102.948 19.4853 103.189 19.6422 103.393 19.8417C103.597 20.0413 103.759 20.2796 103.87 20.5426C103.98 20.8056 104.037 21.088 104.037 21.3733C104.037 21.6586 103.98 21.9411 103.87 22.2041C103.759 22.4671 103.597 22.7054 103.393 22.9049C103.189 23.1045 102.948 23.2613 102.682 23.3662C102.417 23.4711 102.133 23.522 101.848 23.5158ZM113.38 21.7158C112.699 21.6757 112.021 21.8355 111.43 22.1755C110.838 22.5156 110.359 23.0211 110.051 23.6298L111.708 24.3218C111.872 24.0206 112.12 23.7735 112.422 23.6107C112.724 23.4478 113.066 23.3763 113.408 23.4048C113.881 23.3596 114.353 23.5032 114.72 23.8045C115.088 24.1057 115.322 24.5401 115.37 25.0128V25.1418C114.771 24.8232 114.103 24.6573 113.424 24.6588C111.639 24.6588 109.824 25.6398 109.824 27.4738C109.841 27.8599 109.936 28.2385 110.103 28.5872C110.269 28.936 110.504 29.2478 110.793 29.5043C111.082 29.7607 111.419 29.9565 111.785 30.0801C112.152 30.2037 112.539 30.2526 112.924 30.2238C113.394 30.2515 113.862 30.1527 114.281 29.9378C114.699 29.7229 115.053 29.3997 115.304 29.0018H115.368V29.9668H117.168V25.1738C117.179 22.9648 115.522 21.7258 113.383 21.7258L113.38 21.7158ZM113.155 28.5668C112.544 28.5668 111.691 28.2668 111.691 27.5048C111.691 26.5398 112.752 26.1698 113.669 26.1698C114.263 26.1548 114.85 26.2991 115.369 26.5878C115.303 27.1308 115.043 27.6315 114.637 27.9974C114.23 28.3633 113.705 28.5695 113.158 28.5778L113.155 28.5668ZM123.738 21.9888L121.599 27.4088H121.531L119.312 21.9888H117.302L120.631 29.5638L118.731 33.7778H120.677L125.807 21.9888H123.738ZM106.931 29.9888H108.797V17.4888H106.931V29.9888Z"
        fill="white" />

      <path
        d="M10.435 7.54175C10.108 7.93241 9.94301 8.43314 9.97201 8.94174V31.0577C9.94301 31.5663 10.108 32.0671 10.435 32.4577L10.509 32.5297L22.898 20.1407V19.8487L10.509 7.46875L10.435 7.54175Z"
        fill="url(/icons/icon-sprite.svg#paint0_linear_1365_7052)" />
      <path
        d="M27.0239 24.2816L22.8989 20.1496V19.8576L27.0289 15.7266L27.1219 15.7796L32.0149 18.5596C33.4149 19.3536 33.4149 20.6526 32.0149 21.4476L27.1219 24.2276L27.0239 24.2816Z"
        fill="url(/icons/icon-sprite.svg#paint1_linear_1365_7052)" />
      <path
        d="M27.125 24.227L22.901 20L10.438 32.466C10.722 32.7172 11.086 32.8608 11.466 32.8722C11.845 32.8835 12.217 32.7618 12.516 32.528L27.124 24.228"
        fill="url(/icons/icon-sprite.svg#paint2_linear_1365_7052)" />
      <path
        d="M27.124 15.7782L12.516 7.47818C12.217 7.2443 11.845 7.12237 11.466 7.13351C11.086 7.14465 10.723 7.28816 10.438 7.53918L22.9 19.9982L27.124 15.7782Z"
        fill="url(/icons/icon-sprite.svg#paint3_linear_1365_7052)" />

      <path opacity="0.2"
        d="M27.028 24.1328L12.513 32.3798C12.226 32.598 11.875 32.7171 11.515 32.7191C11.154 32.721 10.802 32.6059 10.513 32.3908L10.438 32.4658L10.512 32.5378C10.801 32.7529 11.153 32.868 11.514 32.8661C11.874 32.8641 12.225 32.745 12.512 32.5268L27.12 24.2268L27.028 24.1328Z"
        fill="black" />
      <path opacity="0.12"
        d="M10.435 32.3219C10.108 31.9312 9.94301 31.4305 9.97201 30.9219V31.0679C9.94301 31.5765 10.108 32.0772 10.435 32.4679L10.51 32.3929L10.435 32.3219Z"
        fill="black" />
      <path opacity="0.12"
        d="M32.017 21.3L27.031 24.133L27.125 24.226L32.017 21.446C32.305 21.3201 32.553 21.1196 32.736 20.8653C32.92 20.611 33.032 20.3122 33.06 20C33 20.2829 32.874 20.5476 32.693 20.7733C32.512 20.999 32.28 21.1793 32.017 21.3Z"
        fill="black" />
      <path opacity="0.25"
        d="M12.51 7.62112L32.01 18.7011C32.274 18.8211 32.506 19.0012 32.688 19.2269C32.87 19.4526 32.997 19.7177 33.058 20.0011C33.029 19.6886 32.916 19.3898 32.731 19.1358C32.547 18.8818 32.298 18.6819 32.01 18.5571L12.51 7.47712C11.11 6.68312 9.96899 7.34311 9.96899 8.94311V9.08912C9.96899 7.48712 11.116 6.82712 12.51 7.62112Z"
        fill="white" />
    </g>
  </symbol>

  <symbol id="app-store-badge" viewBox="0 0 123 40" fill="none" xmlns="http://www.w3.org/2000/svg">
    <mask id="mask0_1365_7024" style="mask-type:luminance" maskUnits="userSpaceOnUse" x="0" y="0" width="123"
      height="40">
      <path d="M122.282 0H0V40H122.282V0Z" fill="white" />
    </mask>
    <g mask="url(#mask0_1365_7024)">
      <path
        d="M122.282 34.594C122.282 36.0267 121.713 37.4008 120.701 38.4145C119.688 39.4281 118.315 39.9984 116.882 40H5.406C3.97224 40 2.5972 39.4304 1.58338 38.4166C0.56956 37.4028 0 36.0278 0 34.594V5.40497C0.000265128 3.97155 0.569805 2.59695 1.58338 1.58337C2.59696 0.569797 3.97158 0.000265128 5.405 0H116.878C117.588 -3.04166e-07 118.29 0.139811 118.946 0.411499C119.601 0.683187 120.197 1.08141 120.698 1.58337C121.2 2.08534 121.597 2.68124 121.868 3.33698C122.139 3.99271 122.279 4.69541 122.278 5.40497L122.282 34.594Z"
        fill="black" />
      <path
        d="M31.8895 26.4399C31.4007 27.6089 30.801 28.7284 30.0985 29.7829C28.9355 31.5539 27.2985 33.7579 25.2655 33.7769C23.4655 33.7939 22.9975 32.6019 20.5475 32.6159C18.0975 32.6299 17.5865 33.7979 15.7815 33.7819C13.7505 33.7629 12.1975 31.7719 11.0345 30.0019C7.78245 25.0519 7.44245 19.2419 9.44845 16.1529C10.0551 15.1438 10.9 14.2988 11.9091 13.6921C12.9182 13.0854 14.0607 12.7355 15.2365 12.6729C17.3895 12.6729 18.7425 13.8539 20.5225 13.8539C22.2485 13.8539 23.3015 12.6719 25.7895 12.6719C26.8239 12.7194 27.835 12.9951 28.7504 13.4792C29.6658 13.9633 30.4628 14.6437 31.0845 15.4719C30.0734 16.033 29.244 16.8718 28.6943 17.8892C28.1445 18.9065 27.8974 20.0599 27.982 21.2131C28.0667 22.3664 28.4796 23.4714 29.172 24.3975C29.8643 25.3237 30.8073 26.0324 31.8895 26.4399Z"
        fill="white" />
      <path
        d="M23.903 10.6938C24.4126 10.0743 24.7937 9.35956 25.0241 8.59125C25.2545 7.82294 25.3296 7.0164 25.245 6.21875C23.6041 6.4138 22.0981 7.22398 21.031 8.48578C20.5075 9.07565 20.1143 9.76929 19.877 10.5214C19.6398 11.2736 19.5638 12.0673 19.654 12.8508C20.4786 12.8321 21.2884 12.6287 22.0238 12.2554C22.7592 11.882 23.4014 11.3484 23.903 10.6938Z"
        fill="white" />
      <path
        d="M41.7986 16.0781L37.1406 29.7911H39.2736L40.6646 25.5801H45.1756L46.6056 29.7911H48.7976L44.1186 16.0781H41.7986ZM42.9036 18.3331C43.0606 18.9451 43.2306 19.5811 43.4486 20.2681L44.7036 23.9041H41.1306L42.3686 20.2441C42.5586 19.6501 42.7366 19.0091 42.9036 18.3331Z"
        fill="white" />
      <path
        d="M54.8299 19.6365C54.1921 19.6086 53.5574 19.7383 52.9818 20.0143C52.4061 20.2902 51.9075 20.7039 51.5299 21.2186L51.4469 19.8546H49.5469L49.5579 20.0286C49.6139 20.8786 49.6369 21.8135 49.6369 23.1555V33.7256H51.7119V28.7936C52.0665 29.192 52.5043 29.5076 52.9944 29.7183C53.4844 29.9289 54.0147 30.0294 54.5479 30.0126C55.1357 30.0179 55.7183 29.9018 56.2592 29.6718C56.8002 29.4417 57.2879 29.1026 57.6919 28.6755C58.6514 27.5741 59.1486 26.1447 59.0799 24.6855C59.1285 23.3665 58.7028 22.0736 57.8799 21.0416C57.5061 20.5991 57.0396 20.2443 56.5133 20.0023C55.9871 19.7604 55.4141 19.6372 54.8349 19.6415L54.8299 19.6365ZM54.3129 21.3546C56.1629 21.3546 56.9899 23.0675 56.9899 24.7655C56.9899 26.9555 55.9339 28.3156 54.2339 28.3156C53.6696 28.3154 53.1218 28.1254 52.6785 27.7762C52.2352 27.4271 51.9222 26.939 51.7899 26.3905C51.7367 26.1709 51.7118 25.9454 51.7159 25.7195V24.0505C51.7237 23.8783 51.7458 23.7071 51.7819 23.5385C51.7919 23.4815 51.8039 23.4255 51.8119 23.3705C51.9461 22.8046 52.2644 22.2992 52.7169 21.9336C53.1693 21.568 53.7303 21.3629 54.3119 21.3505L54.3129 21.3546Z"
        fill="white" />
      <path
        d="M65.5096 19.6365C64.8719 19.6087 64.2371 19.7386 63.6616 20.0145C63.086 20.2904 62.5873 20.704 62.2096 21.2185L62.1266 19.8545H60.2266L60.2375 20.0285C60.2935 20.8795 60.3176 21.8135 60.3176 23.1555V33.7255H62.3925V28.7935C62.7471 29.1918 63.1848 29.5073 63.6746 29.718C64.1645 29.9286 64.6946 30.0292 65.2276 30.0125C65.8155 30.0175 66.3981 29.9014 66.9392 29.6713C67.4803 29.4413 67.9682 29.1023 68.3726 28.6755C69.3311 27.5735 69.8279 26.1444 69.7596 24.6855C69.8064 23.3657 69.3785 22.0728 68.5536 21.0415C68.1804 20.5982 67.7143 20.2425 67.1882 19.9997C66.6621 19.7568 66.089 19.6328 65.5096 19.6365ZM64.9936 21.3545C66.8426 21.3545 67.6696 23.0675 67.6696 24.7655C67.6696 26.9555 66.6126 28.3155 64.9136 28.3155C64.3493 28.3153 63.8015 28.1253 63.3582 27.7762C62.9149 27.4271 62.6019 26.939 62.4696 26.3905C62.4167 26.1708 62.3922 25.9453 62.3965 25.7194V24.0505C62.4041 23.8776 62.4262 23.7057 62.4626 23.5365C62.4726 23.4805 62.4836 23.4245 62.4926 23.3695C62.6269 22.8036 62.9452 22.2983 63.3977 21.9329C63.8501 21.5675 64.4111 21.3627 64.9926 21.3505L64.9936 21.3545Z"
        fill="white" />
      <path
        d="M78.8941 21.8921C76.9581 21.1421 76.3371 20.5531 76.3371 19.4631C76.3371 18.5461 77.0661 17.6201 78.6951 17.6201C79.5472 17.6002 80.3887 17.8117 81.1301 18.2321L81.3061 18.3411L81.8911 16.6101L81.7751 16.5421C80.8446 16.0562 79.803 15.8225 78.7541 15.8641C76.1081 15.8641 74.2601 17.4261 74.2601 19.6641C74.2601 21.4641 75.4171 22.7271 77.9011 23.6311C79.6621 24.2891 80.3171 24.9631 80.3171 26.1191C80.3171 27.4271 79.3061 28.2391 77.6801 28.2391C76.624 28.24 75.5885 27.9463 74.6901 27.3911L74.5101 27.2761L73.9531 29.0481L74.0531 29.1161C75.1245 29.7138 76.3323 30.0238 77.5591 30.0161C81.1251 30.0161 82.3891 27.8421 82.3891 25.9801C82.3941 24.0561 81.3801 22.8751 78.8941 21.8921Z"
        fill="white" />
      <path
        d="M86.1266 17.4922L84.0916 18.1312V19.8552H82.6016V21.5132H84.0916V26.5922C84.0046 27.5275 84.2597 28.4626 84.8096 29.2242C85.0705 29.4884 85.3839 29.695 85.7296 29.8307C86.0753 29.9665 86.4455 30.0282 86.8166 30.0121C87.36 30.019 87.9007 29.9352 88.4166 29.7642L88.5326 29.7231L88.4326 28.0621L88.2325 28.1232C87.9187 28.2106 87.5931 28.2484 87.2675 28.2352C86.4675 28.2352 86.1205 27.7262 86.1205 26.5352V21.5162H88.6205V19.8531H86.1205L86.1266 17.4922Z"
        fill="white" />
      <path
        d="M93.7738 19.6348C90.8738 19.6348 88.8438 21.8018 88.8438 24.9018C88.8438 27.9098 90.8057 30.0109 93.6147 30.0109H93.6337C94.314 30.0185 94.9884 29.8841 95.6138 29.6163C96.2392 29.3486 96.8019 28.9533 97.2659 28.4557C97.7298 27.9581 98.0849 27.3693 98.3084 26.7267C98.5318 26.0841 98.6188 25.402 98.5637 24.7239C98.6116 23.376 98.1381 22.0615 97.2417 21.0538C96.7949 20.588 96.2554 20.2211 95.6581 19.9767C95.0608 19.7323 94.4189 19.6158 93.7738 19.6348ZM93.7137 21.2728C95.5797 21.2728 96.4296 23.0928 96.4296 24.7838C96.4296 26.8638 95.2697 28.3728 93.6747 28.3728H93.6547C92.0817 28.3728 90.9397 26.8889 90.9397 24.8439C90.9387 23.0669 91.7967 21.2728 93.7137 21.2728Z"
        fill="white" />
      <path
        d="M104.913 19.7298L104.789 19.6978C104.621 19.6538 104.447 19.632 104.273 19.6328C103.728 19.6447 103.197 19.8069 102.738 20.1016C102.279 20.3963 101.911 20.812 101.673 21.3028L101.612 19.8508H99.75L99.762 20.0248C99.817 20.8458 99.84 21.7678 99.84 23.0118L99.821 29.7898H101.896V24.5018C101.895 24.2341 101.914 23.9667 101.953 23.7018C102.001 23.1478 102.25 22.6304 102.651 22.2457C103.053 21.861 103.58 21.6354 104.136 21.6108C104.322 21.6127 104.508 21.6244 104.693 21.6458L104.915 21.6688L104.913 19.7298Z"
        fill="white" />
      <path
        d="M109.582 19.6172C106.82 19.6172 104.89 21.8242 104.89 24.9832C104.836 25.6445 104.925 26.3099 105.15 26.9342C105.374 27.5585 105.731 28.1273 106.194 28.6022C106.658 29.077 107.218 29.4469 107.836 29.6869C108.455 29.9269 109.118 30.0313 109.78 29.9932C110.908 30.0183 112.028 29.8036 113.066 29.3632L113.191 29.3071L112.791 27.7612L112.617 27.8312C111.792 28.1643 110.907 28.3226 110.017 28.2961C109.61 28.3284 109.2 28.2735 108.815 28.1351C108.43 27.9967 108.079 27.778 107.785 27.4935C107.491 27.209 107.261 26.8652 107.11 26.485C106.959 26.1048 106.891 25.6968 106.91 25.2882L113.609 25.3082L113.637 25.1761C113.684 24.8901 113.705 24.6002 113.699 24.3102C113.697 22.1462 112.62 19.6172 109.582 19.6172ZM109.444 21.1952C109.724 21.1826 110.003 21.2276 110.265 21.3276C110.527 21.4275 110.766 21.5802 110.966 21.7762C111.429 22.3132 111.683 22.9986 111.681 23.7072H106.95C106.982 23.0549 107.255 22.4378 107.716 21.9745C108.176 21.5112 108.791 21.2344 109.444 21.1972V21.1952Z"
        fill="white" />
      <path
        d="M37.1406 6.71194C37.8003 6.62323 38.465 6.57812 39.1306 6.57693C40.1679 6.49311 41.2018 6.7763 42.0516 7.37698C42.3937 7.65966 42.6648 8.01853 42.8432 8.4249C43.0215 8.83126 43.1022 9.27379 43.0786 9.71695C43.0965 10.1873 43.013 10.656 42.8339 11.0913C42.6548 11.5266 42.3843 11.9183 42.0406 12.24C41.1192 12.9225 39.9845 13.2537 38.8406 13.174C38.2729 13.1818 37.7053 13.1561 37.1406 13.097V6.71194ZM38.0826 12.461C38.3953 12.4961 38.7101 12.5091 39.0246 12.5C41.0146 12.509 42.0946 11.4999 42.0946 9.74594C42.1056 8.19594 41.1426 7.24594 39.1736 7.24594C38.808 7.24115 38.4428 7.27032 38.0826 7.33298V12.461Z"
        fill="white" />
      <path
        d="M46.413 13.2253C46.0889 13.2453 45.7641 13.1975 45.4594 13.0851C45.1547 12.9727 44.8767 12.7979 44.6432 12.5722C44.4098 12.3464 44.2258 12.0745 44.1032 11.7737C43.9806 11.4729 43.922 11.1499 43.9311 10.8253C43.9197 10.4892 43.9791 10.1545 44.1054 9.84285C44.2317 9.53121 44.4221 9.24961 44.6642 9.01626C44.9063 8.78291 45.1948 8.60303 45.5109 8.4883C45.827 8.37358 46.1636 8.32657 46.499 8.3503C46.8238 8.32585 47.15 8.37001 47.4565 8.47994C47.763 8.58987 48.0429 8.76312 48.2781 8.98836C48.5132 9.21361 48.6983 9.48582 48.8213 9.78731C48.9444 10.0888 49.0025 10.4128 48.9921 10.7383C49.0027 11.0745 48.9428 11.4092 48.8165 11.7209C48.6901 12.0326 48.4999 12.3145 48.2582 12.5484C48.0165 12.7823 47.7286 12.963 47.4129 13.0791C47.0972 13.1951 46.7607 13.2439 46.4251 13.2223L46.413 13.2253ZM46.4451 12.5903C46.6699 12.5799 46.8902 12.5237 47.0927 12.4254C47.2951 12.327 47.4754 12.1885 47.6226 12.0183C47.7698 11.848 47.8807 11.6495 47.9487 11.435C48.0167 11.2204 48.0403 10.9942 48.0181 10.7703C47.9728 10.4715 47.843 10.192 47.6439 9.96462C47.4449 9.73728 47.185 9.57167 46.8948 9.48732C46.6047 9.40298 46.2965 9.40341 46.0066 9.48861C45.7167 9.57381 45.4572 9.74024 45.2588 9.96816C45.0605 10.1961 44.9315 10.476 44.8871 10.7749C44.8427 11.0737 44.8848 11.3791 45.0084 11.6549C45.132 11.9306 45.3319 12.1652 45.5845 12.331C45.8371 12.4967 46.1319 12.5867 46.434 12.5903H46.4451Z"
        fill="white" />
      <path
        d="M50.4834 8.4541L51.1834 10.8131C51.3224 11.3331 51.4614 11.8241 51.5574 12.3051H51.5894C51.7074 11.8331 51.8784 11.3331 52.0494 10.8221L52.8944 8.45312H53.6864L54.4864 10.7831C54.6784 11.3321 54.8284 11.8331 54.9464 12.3051H54.9784C55.081 11.7935 55.2146 11.2885 55.3784 10.7931L56.1164 8.45312H57.0474L55.3784 13.1131H54.5204L53.7284 10.8891C53.5478 10.3839 53.3939 9.86949 53.2674 9.34808H53.2464C53.1223 9.87418 52.965 10.3919 52.7754 10.8981L51.9414 13.1131H51.0854L49.5234 8.45312L50.4834 8.4541Z"
        fill="white" />
      <path
        d="M57.9883 9.72132C57.9883 9.23032 57.9773 8.84529 57.9453 8.45929H58.7803L58.8333 9.22034H58.8553C59.0425 8.94125 59.2982 8.71493 59.598 8.56311C59.8978 8.41129 60.2316 8.33905 60.5673 8.35333C60.8236 8.34323 61.0791 8.3889 61.316 8.48718C61.5529 8.58546 61.7657 8.73399 61.9396 8.92255C62.1135 9.1111 62.2445 9.33513 62.3233 9.57923C62.4022 9.82332 62.427 10.0816 62.3963 10.3363V13.1143H61.4553V10.4343C61.4553 9.68333 61.1443 9.04828 60.2553 9.04828C59.9817 9.04702 59.7142 9.12942 59.4886 9.28436C59.2631 9.43931 59.0903 9.65941 58.9933 9.91528C58.9483 10.0437 58.9266 10.1792 58.9293 10.3153V13.1273H57.9883V9.72132Z"
        fill="white" />
      <path d="M63.9219 6.28125H64.8639V13.1172H63.9219V6.28125Z" fill="white" />
      <path
        d="M68.5379 13.2222C68.2138 13.2421 67.889 13.1944 67.5843 13.082C67.2796 12.9695 67.0016 12.7948 66.7681 12.569C66.5346 12.3432 66.3507 12.0713 66.2281 11.7706C66.1055 11.4698 66.0469 11.1468 66.056 10.8221C66.045 10.4863 66.1048 10.152 66.2312 9.84068C66.3577 9.5294 66.5482 9.24814 66.7902 9.01512C67.0323 8.7821 67.3206 8.60251 67.6365 8.48796C67.9524 8.37342 68.2888 8.32645 68.6239 8.35014C68.9485 8.326 69.2746 8.3704 69.5809 8.48045C69.8872 8.59051 70.167 8.76374 70.402 8.98894C70.637 9.21414 70.822 9.48629 70.945 9.78764C71.068 10.089 71.1262 10.4128 71.116 10.7381C71.1266 11.0744 71.0667 11.4092 70.9403 11.721C70.8139 12.0328 70.6236 12.3147 70.3818 12.5486C70.14 12.7825 69.8519 12.9633 69.5361 13.0793C69.2203 13.1953 68.8837 13.2439 68.548 13.2222H68.5379ZM68.57 12.5871C68.7948 12.5767 69.0151 12.5206 69.2175 12.4222C69.42 12.3239 69.6003 12.1854 69.7475 12.0151C69.8946 11.8448 70.0056 11.6464 70.0736 11.4318C70.1416 11.2173 70.1652 10.9911 70.143 10.7671C70.0977 10.4683 69.9678 10.1888 69.7688 9.96141C69.5697 9.73405 69.3097 9.56843 69.0195 9.48412C68.7293 9.3998 68.421 9.4003 68.1311 9.48558C67.8412 9.57086 67.5817 9.73736 67.3834 9.96538C67.1851 10.1934 67.0562 10.4734 67.0119 10.7723C66.9676 11.0713 67.0098 11.3767 67.1336 11.6524C67.2573 11.9281 67.4574 12.1626 67.7101 12.3282C67.9629 12.4939 68.2578 12.5837 68.56 12.5871H68.57Z"
        fill="white" />
      <path
        d="M75.9466 11.9964C75.9418 12.3702 75.9669 12.7437 76.0216 13.1134H75.1756L75.0896 12.5264H75.0576C74.8628 12.7535 74.6193 12.9336 74.3452 13.0536C74.0712 13.1736 73.7736 13.2303 73.4746 13.2194C73.2813 13.2434 73.0851 13.227 72.8984 13.1714C72.7117 13.1158 72.5385 13.0222 72.3897 12.8964C72.2409 12.7707 72.1198 12.6155 72.0339 12.4406C71.948 12.2658 71.8992 12.0751 71.8906 11.8804C71.8906 10.7544 73.0026 10.1374 75.0036 10.1474V10.0474C75.0036 9.66244 74.8866 8.95944 73.8266 8.96944C73.3511 8.96306 72.8823 9.08243 72.4677 9.31545L72.2536 8.74745C72.7832 8.47654 73.3709 8.3392 73.9656 8.34743C74.2283 8.30789 74.4965 8.32926 74.7495 8.40993C75.0026 8.49059 75.2336 8.6284 75.4249 8.81264C75.6162 8.99687 75.7626 9.2226 75.8527 9.47243C75.9428 9.72226 75.9743 9.98951 75.9446 10.2534L75.9466 11.9964ZM75.0266 10.7354C73.9996 10.7164 72.8336 10.8794 72.8336 11.7844C72.8297 11.8977 72.8503 12.0104 72.894 12.1149C72.9376 12.2194 73.0033 12.3133 73.0865 12.3901C73.1698 12.4669 73.2687 12.5249 73.3764 12.56C73.4841 12.595 73.5981 12.6064 73.7106 12.5934C73.9771 12.6092 74.2421 12.5429 74.4697 12.4035C74.6973 12.264 74.8767 12.058 74.9836 11.8134C75.0138 11.7267 75.0284 11.6352 75.0266 11.5434V10.7354Z"
        fill="white" />
      <path
        d="M81.9329 6.28046V11.9135C81.9329 12.3275 81.9439 12.7995 81.9759 13.1135H81.1309L81.0879 12.3044H81.0659C80.8827 12.6007 80.6229 12.842 80.3141 13.0031C80.0052 13.1641 79.6587 13.2388 79.3109 13.2195C79.006 13.2207 78.704 13.1591 78.4239 13.0386C78.1438 12.9181 77.8915 12.7413 77.6827 12.519C77.4739 12.2968 77.3131 12.034 77.2102 11.7469C77.1074 11.4599 77.0647 11.1547 77.0849 10.8505C77.0605 10.5309 77.1024 10.2098 77.2081 9.90729C77.3138 9.60476 77.481 9.32733 77.699 9.09253C77.9171 8.85772 78.1814 8.67062 78.4753 8.54291C78.7693 8.4152 79.0864 8.34967 79.4069 8.35046C79.7053 8.3264 80.0049 8.3779 80.2781 8.50024C80.5512 8.62259 80.7892 8.81185 80.9699 9.05048H80.9909V6.27344L81.9329 6.28046ZM80.9919 10.3535C80.9936 10.2301 80.9792 10.1071 80.9489 9.98749C80.8628 9.69727 80.6825 9.44398 80.4363 9.26776C80.1902 9.09154 79.8924 9.00242 79.5899 9.01447C79.3667 9.01956 79.1472 9.07129 78.9452 9.16632C78.7432 9.26135 78.5634 9.39755 78.4172 9.56622C78.271 9.7349 78.1618 9.93227 78.0965 10.1457C78.0311 10.3591 78.0112 10.5839 78.0379 10.8055C78.0115 11.0223 78.0313 11.2422 78.096 11.4508C78.1608 11.6594 78.269 11.8519 78.4136 12.0157C78.5581 12.1794 78.7357 12.3106 78.9347 12.4008C79.1337 12.4909 79.3495 12.5378 79.5679 12.5385C79.8773 12.5462 80.1806 12.4512 80.4303 12.2682C80.68 12.0853 80.862 11.8248 80.9479 11.5275C80.9793 11.4081 80.9937 11.2848 80.9909 11.1614L80.9919 10.3535Z"
        fill="white" />
      <path
        d="M87.8662 13.2252C87.542 13.2452 87.2172 13.1975 86.9125 13.085C86.6078 12.9726 86.3298 12.7979 86.0963 12.5721C85.8628 12.3463 85.6789 12.0744 85.5563 11.7736C85.4337 11.4729 85.3751 11.1499 85.3842 10.8252C85.3728 10.4891 85.4322 10.1544 85.5585 9.84277C85.6848 9.53113 85.8752 9.24952 86.1173 9.01617C86.3595 8.78282 86.6479 8.60294 86.964 8.48822C87.2801 8.37349 87.6167 8.32649 87.9522 8.35022C88.2768 8.32593 88.603 8.37023 88.9094 8.48022C89.2159 8.59021 89.4957 8.76343 89.7309 8.98865C89.966 9.21386 90.1511 9.48599 90.2741 9.78741C90.3972 10.0888 90.4555 10.4128 90.4452 10.7382C90.4558 11.0744 90.396 11.4091 90.2696 11.7208C90.1432 12.0325 89.9531 12.3144 89.7114 12.5483C89.4696 12.7822 89.1817 12.9629 88.866 13.079C88.5503 13.195 88.2138 13.2439 87.8782 13.2222L87.8662 13.2252ZM87.8982 12.5902C88.123 12.5798 88.3434 12.5236 88.5458 12.4253C88.7482 12.3269 88.9285 12.1885 89.0757 12.0182C89.2229 11.8479 89.3338 11.6494 89.4018 11.4349C89.4698 11.2203 89.4934 10.9942 89.4712 10.7702C89.4259 10.4714 89.2961 10.1918 89.097 9.96448C88.8979 9.73712 88.6379 9.5715 88.3477 9.48718C88.0575 9.40286 87.7492 9.40336 87.4593 9.48865C87.1694 9.57393 86.91 9.74042 86.7116 9.96844C86.5133 10.1965 86.3844 10.4764 86.3401 10.7754C86.2958 11.0743 86.3381 11.3797 86.4618 11.6555C86.5855 11.9312 86.7856 12.1657 87.0384 12.3313C87.2911 12.4969 87.586 12.5868 87.8882 12.5902H87.8982Z"
        fill="white" />
      <path
        d="M91.6367 9.72132C91.6367 9.23032 91.6258 8.84529 91.5938 8.45929H92.4286L92.4826 9.22034H92.5037C92.6908 8.94125 92.9465 8.71493 93.2463 8.56311C93.5461 8.41129 93.8799 8.33905 94.2156 8.35333C94.472 8.34326 94.7275 8.38891 94.9644 8.48718C95.2014 8.58546 95.4143 8.73395 95.5882 8.92249C95.7622 9.11102 95.8932 9.33507 95.9722 9.57916C96.0512 9.82325 96.0762 10.0816 96.0456 10.3363V13.1143H95.1036V10.4343C95.1036 9.68333 94.7936 9.04828 93.9036 9.04828C93.6299 9.0471 93.3624 9.1295 93.1367 9.28443C92.9111 9.43935 92.7379 9.65942 92.6406 9.91528C92.5963 10.0422 92.5747 10.1759 92.5767 10.3103V13.1223H91.6356L91.6367 9.72132Z"
        fill="white" />
      <path
        d="M100.978 7.33594V8.45294H102.326V9.0979H100.978V11.6089C100.978 12.1869 101.16 12.5139 101.684 12.5139C101.868 12.5206 102.052 12.5011 102.23 12.4559L102.273 13.101C102.002 13.1811 101.72 13.2202 101.438 13.2169C101.066 13.2357 100.701 13.1079 100.422 12.8609C100.145 12.5164 100.015 12.0775 100.058 11.6379V9.09595H99.2578V8.45093H100.058V7.59393L100.978 7.33594Z"
        fill="white" />
      <path
        d="M103.38 6.28125H104.321V9.18927H104.343C104.505 8.92875 104.739 8.72042 105.017 8.58923C105.312 8.42872 105.644 8.34583 105.98 8.34827C106.236 8.34089 106.49 8.38896 106.725 8.48914C106.96 8.58931 107.171 8.73922 107.343 8.92859C107.515 9.11796 107.643 9.34226 107.72 9.58612C107.797 9.82998 107.82 10.0876 107.788 10.3412V13.1143H106.847V10.4373C106.847 9.67626 106.537 9.05127 105.647 9.05127C105.376 9.04963 105.11 9.12949 104.885 9.28052C104.66 9.43155 104.485 9.64677 104.384 9.89825C104.334 10.0253 104.312 10.1619 104.32 10.2983V13.1093H103.375L103.38 6.28125Z"
        fill="white" />
      <path
        d="M109.86 10.932C109.853 11.1594 109.895 11.3857 109.983 11.5954C110.071 11.8051 110.204 11.9931 110.371 12.1468C110.539 12.3005 110.738 12.4161 110.955 12.4857C111.171 12.5553 111.4 12.5772 111.626 12.55C112.114 12.5626 112.601 12.4839 113.06 12.318L113.231 12.918C112.678 13.1279 112.089 13.2297 111.497 13.218C111.171 13.2534 110.841 13.2185 110.529 13.1157C110.217 13.0129 109.931 12.8446 109.69 12.6221C109.449 12.3996 109.258 12.128 109.13 11.8257C109.003 11.5233 108.941 11.1971 108.95 10.869C108.929 10.5393 108.977 10.209 109.091 9.89896C109.205 9.58894 109.383 9.30613 109.612 9.06864C109.842 8.83115 110.118 8.64418 110.424 8.51975C110.73 8.39532 111.059 8.33613 111.389 8.34598C111.678 8.33243 111.967 8.38065 112.237 8.4874C112.506 8.59415 112.749 8.75701 112.951 8.96512C113.152 9.17324 113.307 9.42185 113.405 9.69443C113.502 9.96701 113.541 10.2573 113.518 10.546C113.521 10.6801 113.511 10.8141 113.486 10.946L109.86 10.932ZM112.611 10.325C112.63 10.1456 112.61 9.96425 112.553 9.79331C112.495 9.62237 112.401 9.46596 112.277 9.33475C112.154 9.20355 112.003 9.10069 111.836 9.03324C111.668 8.96579 111.488 8.93534 111.308 8.94401C110.938 8.94888 110.584 9.09351 110.316 9.34891C110.048 9.60432 109.887 9.95161 109.864 10.321L112.611 10.325Z"
        fill="white" />
    </g>
  </symbol>

  <symbol id="round-check-multi" viewBox="0 0 37 37" fill="none" xmlns="http://www.w3.org/2000/svg">
    <path d="M18.5 36.5C28.4411 36.5 36.5 28.4411 36.5 18.5C36.5 8.55888 28.4411 0.5 18.5 0.5C8.55888 0.5 0.5 8.55888 0.5 18.5C0.5 28.4411 8.55888 36.5 18.5 36.5Z" fill="var(--burst-default)" stroke="var(--burst-default)" stroke-linecap="round" stroke-linejoin="round"/>
    <path d="M26.7334 12.665L15.5417 24.3364L10.2656 19.067" stroke="currentColor" stroke-width="1.5" stroke-linecap="round" stroke-linejoin="round"/>
  </symbol>
</svg>