<svg width="41" height="40" viewBox="0 0 41 40" fill="none" xmlns="http://www.w3.org/2000/svg">
<rect x="0.5" width="40" height="40" rx="20" fill="#00525B"/>
<path d="M21.5029 11C23.1719 11 24.5252 10.9977 25.5879 11.1406C26.6791 11.2874 27.6136 11.6044 28.3574 12.3486C29.1007 13.0927 29.4165 14.0269 29.5635 15.1182C29.7065 16.1808 29.7051 17.5331 29.7051 19.2021V21.0029C29.7051 22.672 29.7074 24.0252 29.5645 25.0879C29.4176 26.1792 29.1009 27.1136 28.3564 27.8574C27.6124 28.6007 26.6782 28.9166 25.5869 29.0635C24.5243 29.2065 23.1719 29.2051 21.5029 29.2051H19.7021C18.0332 29.2051 16.6799 29.2074 15.6172 29.0645C14.526 28.9176 13.5914 28.6008 12.8477 27.8564C12.1045 27.1124 11.7885 26.1782 11.6416 25.0869C11.4986 24.0243 11.5 22.672 11.5 21.0029V19.2021C11.5 17.5331 11.4977 16.1799 11.6406 15.1172C11.7875 14.0259 12.1043 13.0915 12.8486 12.3477C13.5927 11.6044 14.527 11.2886 15.6182 11.1416C16.6807 10.9986 18.0332 11 19.7021 11H21.5029ZM19.7021 13C17.9769 13 16.783 13.0021 15.8848 13.123C15.0154 13.2401 14.5727 13.452 14.2617 13.7627C13.9514 14.0729 13.74 14.5147 13.623 15.3838C13.5022 16.2822 13.5 17.4765 13.5 19.2021V21.0029C13.5 22.7283 13.5022 23.922 13.623 24.8203C13.7401 25.6896 13.9521 26.1324 14.2627 26.4434C14.5729 26.7537 15.0148 26.9651 15.8838 27.082C16.7822 27.2029 17.9767 27.2051 19.7021 27.2051H21.5029C23.2282 27.2051 24.4221 27.2029 25.3203 27.082C26.1898 26.965 26.6324 26.753 26.9434 26.4424C27.2538 26.1322 27.4651 25.6905 27.582 24.8213C27.7029 23.9228 27.7051 22.7285 27.7051 21.0029V19.2021C27.7051 17.4768 27.7029 16.283 27.582 15.3848C27.465 14.5153 27.2531 14.0727 26.9424 13.7617C26.6322 13.4515 26.1903 13.24 25.3213 13.123C24.4229 13.0023 23.2284 13 21.5029 13H19.7021ZM20.6035 15.502C23.1444 15.5023 25.2041 17.5626 25.2041 20.1035C25.2037 22.6441 23.1441 24.7038 20.6035 24.7041C18.0627 24.7041 16.0024 22.6443 16.002 20.1035C16.002 17.5624 18.0624 15.502 20.6035 15.502ZM20.6035 17.502C19.167 17.502 18.002 18.667 18.002 20.1035C18.0024 21.5397 19.1672 22.7041 20.6035 22.7041C22.0395 22.7038 23.2037 21.5395 23.2041 20.1035C23.2041 18.6672 22.0398 17.5023 20.6035 17.502ZM25.5537 13.8008C26.2995 13.8008 26.9043 14.4056 26.9043 15.1514C26.9043 15.8971 26.2995 16.502 25.5537 16.502C24.8081 16.5017 24.2041 15.897 24.2041 15.1514C24.2041 14.4057 24.8081 13.801 25.5537 13.8008Z" fill="white"/>
</svg>
