<svg width="156" height="40" viewBox="0 0 156 40" fill="none" xmlns="http://www.w3.org/2000/svg">
<rect width="156" height="40" rx="20" fill="#F4F4F5"/>
<path d="M22 23L27.5 17L33 23" stroke="#00525B" stroke-width="1.5" stroke-linecap="round" stroke-linejoin="round"/>
<path d="M53.8011 14.3636H55.5511V22.6136C55.5511 23.3598 55.4034 23.9981 55.108 24.5284C54.8163 25.0587 54.4053 25.464 53.875 25.7443C53.3447 26.0208 52.7235 26.1591 52.0114 26.1591C51.3561 26.1591 50.767 26.0398 50.2443 25.8011C49.7254 25.5625 49.3144 25.2159 49.0114 24.7614C48.7121 24.303 48.5625 23.7462 48.5625 23.0909H50.3068C50.3068 23.4129 50.3807 23.6913 50.5284 23.9261C50.6799 24.161 50.8864 24.3447 51.1477 24.4773C51.4129 24.6061 51.7159 24.6705 52.0568 24.6705C52.428 24.6705 52.7424 24.5928 53 24.4375C53.2614 24.2784 53.4602 24.0455 53.5966 23.7386C53.733 23.4318 53.8011 23.0568 53.8011 22.6136V14.3636ZM63.4986 22.3807V17.2727H65.2031V26H63.5327V24.4886H63.4418C63.241 24.9545 62.919 25.3428 62.4759 25.6534C62.0365 25.9602 61.4891 26.1136 60.8338 26.1136C60.2732 26.1136 59.777 25.9905 59.3452 25.7443C58.9171 25.4943 58.58 25.125 58.3338 24.6364C58.0914 24.1477 57.9702 23.5436 57.9702 22.8239V17.2727H59.669V22.6193C59.669 23.214 59.8338 23.6875 60.1634 24.0398C60.4929 24.392 60.9209 24.5682 61.4474 24.5682C61.7656 24.5682 62.0819 24.4886 62.3963 24.3295C62.7145 24.1705 62.9777 23.9299 63.1861 23.608C63.3982 23.286 63.5024 22.8769 63.4986 22.3807ZM67.4858 26V17.2727H69.1165V18.6932H69.2244C69.4063 18.2121 69.7036 17.8371 70.1165 17.5682C70.5294 17.2955 71.0237 17.1591 71.5994 17.1591C72.1828 17.1591 72.6714 17.2955 73.0653 17.5682C73.4631 17.8409 73.7566 18.2159 73.946 18.6932H74.0369C74.2453 18.2273 74.5767 17.8561 75.0312 17.5795C75.4858 17.2992 76.0275 17.1591 76.6562 17.1591C77.4479 17.1591 78.0938 17.4072 78.5938 17.9034C79.0975 18.3996 79.3494 19.1477 79.3494 20.1477V26H77.6506V20.3068C77.6506 19.7159 77.4896 19.2879 77.1676 19.0227C76.8456 18.7576 76.4612 18.625 76.0142 18.625C75.4612 18.625 75.0312 18.7955 74.7244 19.1364C74.4176 19.4735 74.2642 19.9072 74.2642 20.4375V26H72.571V20.1989C72.571 19.7254 72.4233 19.3447 72.1278 19.0568C71.8324 18.7689 71.4479 18.625 70.9744 18.625C70.6525 18.625 70.3551 18.7102 70.0824 18.8807C69.8134 19.0473 69.5956 19.2803 69.429 19.5795C69.2661 19.8788 69.1847 20.2254 69.1847 20.6193V26H67.4858ZM81.6264 29.2727V17.2727H83.2855V18.6875H83.4276C83.526 18.5057 83.6681 18.2955 83.8537 18.0568C84.0393 17.8182 84.2969 17.6098 84.6264 17.4318C84.956 17.25 85.3916 17.1591 85.9332 17.1591C86.6378 17.1591 87.2666 17.3371 87.8196 17.6932C88.3726 18.0492 88.8063 18.5625 89.1207 19.233C89.4389 19.9034 89.598 20.7102 89.598 21.6534C89.598 22.5966 89.4408 23.4053 89.1264 24.0795C88.812 24.75 88.3802 25.267 87.831 25.6307C87.2817 25.9905 86.6548 26.1705 85.9503 26.1705C85.42 26.1705 84.9863 26.0814 84.6491 25.9034C84.3158 25.7254 84.0545 25.517 83.8651 25.2784C83.6757 25.0398 83.5298 24.8277 83.4276 24.642H83.3253V29.2727H81.6264ZM83.2912 21.6364C83.2912 22.25 83.3802 22.7879 83.5582 23.25C83.7363 23.7121 83.9938 24.0739 84.331 24.3352C84.6681 24.5928 85.081 24.7216 85.5696 24.7216C86.0772 24.7216 86.5014 24.5871 86.8423 24.3182C87.1832 24.0455 87.4408 23.6761 87.6151 23.2102C87.7931 22.7443 87.8821 22.2197 87.8821 21.6364C87.8821 21.0606 87.795 20.5436 87.6207 20.0852C87.4503 19.6269 87.1927 19.2652 86.848 19C86.5071 18.7348 86.081 18.6023 85.5696 18.6023C85.0772 18.6023 84.6605 18.7292 84.3196 18.983C83.9825 19.2367 83.7268 19.5909 83.5526 20.0455C83.3783 20.5 83.2912 21.0303 83.2912 21.6364ZM99.8097 17.2727V18.6364H95.0426V17.2727H99.8097ZM96.321 15.1818H98.0199V23.4375C98.0199 23.767 98.0691 24.0152 98.1676 24.1818C98.2661 24.3447 98.393 24.4564 98.5483 24.517C98.7074 24.5739 98.8797 24.6023 99.0653 24.6023C99.2017 24.6023 99.321 24.5928 99.4233 24.5739C99.5256 24.5549 99.6051 24.5398 99.6619 24.5284L99.9688 25.9318C99.8703 25.9697 99.7301 26.0076 99.5483 26.0455C99.3665 26.0871 99.1392 26.1098 98.8665 26.1136C98.4195 26.1212 98.0028 26.0417 97.6165 25.875C97.2301 25.7083 96.9176 25.4508 96.679 25.1023C96.4403 24.7538 96.321 24.3163 96.321 23.7898V15.1818ZM105.271 26.1761C104.453 26.1761 103.739 25.9886 103.129 25.6136C102.519 25.2386 102.046 24.714 101.709 24.0398C101.372 23.3655 101.203 22.5777 101.203 21.6761C101.203 20.7708 101.372 19.9792 101.709 19.3011C102.046 18.6231 102.519 18.0966 103.129 17.7216C103.739 17.3466 104.453 17.1591 105.271 17.1591C106.089 17.1591 106.804 17.3466 107.413 17.7216C108.023 18.0966 108.497 18.6231 108.834 19.3011C109.171 19.9792 109.339 20.7708 109.339 21.6761C109.339 22.5777 109.171 23.3655 108.834 24.0398C108.497 24.714 108.023 25.2386 107.413 25.6136C106.804 25.9886 106.089 26.1761 105.271 26.1761ZM105.277 24.75C105.807 24.75 106.247 24.6098 106.595 24.3295C106.944 24.0492 107.201 23.6761 107.368 23.2102C107.538 22.7443 107.624 22.2311 107.624 21.6705C107.624 21.1136 107.538 20.6023 107.368 20.1364C107.201 19.6667 106.944 19.2898 106.595 19.0057C106.247 18.7216 105.807 18.5795 105.277 18.5795C104.743 18.5795 104.3 18.7216 103.947 19.0057C103.599 19.2898 103.339 19.6667 103.169 20.1364C103.002 20.6023 102.919 21.1136 102.919 21.6705C102.919 22.2311 103.002 22.7443 103.169 23.2102C103.339 23.6761 103.599 24.0492 103.947 24.3295C104.3 24.6098 104.743 24.75 105.277 24.75ZM119.544 17.2727V18.6364H114.777V17.2727H119.544ZM116.055 15.1818H117.754V23.4375C117.754 23.767 117.804 24.0152 117.902 24.1818C118 24.3447 118.127 24.4564 118.283 24.517C118.442 24.5739 118.614 24.6023 118.8 24.6023C118.936 24.6023 119.055 24.5928 119.158 24.5739C119.26 24.5549 119.339 24.5398 119.396 24.5284L119.703 25.9318C119.605 25.9697 119.464 26.0076 119.283 26.0455C119.101 26.0871 118.874 26.1098 118.601 26.1136C118.154 26.1212 117.737 26.0417 117.351 25.875C116.964 25.7083 116.652 25.4508 116.413 25.1023C116.175 24.7538 116.055 24.3163 116.055 23.7898V15.1818ZM125.006 26.1761C124.188 26.1761 123.473 25.9886 122.864 25.6136C122.254 25.2386 121.78 24.714 121.443 24.0398C121.106 23.3655 120.938 22.5777 120.938 21.6761C120.938 20.7708 121.106 19.9792 121.443 19.3011C121.78 18.6231 122.254 18.0966 122.864 17.7216C123.473 17.3466 124.188 17.1591 125.006 17.1591C125.824 17.1591 126.538 17.3466 127.148 17.7216C127.758 18.0966 128.231 18.6231 128.568 19.3011C128.905 19.9792 129.074 20.7708 129.074 21.6761C129.074 22.5777 128.905 23.3655 128.568 24.0398C128.231 24.714 127.758 25.2386 127.148 25.6136C126.538 25.9886 125.824 26.1761 125.006 26.1761ZM125.011 24.75C125.542 24.75 125.981 24.6098 126.33 24.3295C126.678 24.0492 126.936 23.6761 127.102 23.2102C127.273 22.7443 127.358 22.2311 127.358 21.6705C127.358 21.1136 127.273 20.6023 127.102 20.1364C126.936 19.6667 126.678 19.2898 126.33 19.0057C125.981 18.7216 125.542 18.5795 125.011 18.5795C124.477 18.5795 124.034 18.7216 123.682 19.0057C123.333 19.2898 123.074 19.6667 122.903 20.1364C122.737 20.6023 122.653 21.1136 122.653 21.6705C122.653 22.2311 122.737 22.7443 122.903 23.2102C123.074 23.6761 123.333 24.0492 123.682 24.3295C124.034 24.6098 124.477 24.75 125.011 24.75ZM130.97 29.2727V17.2727H132.629V18.6875H132.771C132.87 18.5057 133.012 18.2955 133.197 18.0568C133.383 17.8182 133.641 17.6098 133.97 17.4318C134.3 17.25 134.735 17.1591 135.277 17.1591C135.982 17.1591 136.61 17.3371 137.163 17.6932C137.716 18.0492 138.15 18.5625 138.464 19.233C138.783 19.9034 138.942 20.7102 138.942 21.6534C138.942 22.5966 138.785 23.4053 138.47 24.0795C138.156 24.75 137.724 25.267 137.175 25.6307C136.625 25.9905 135.999 26.1705 135.294 26.1705C134.764 26.1705 134.33 26.0814 133.993 25.9034C133.66 25.7254 133.398 25.517 133.209 25.2784C133.019 25.0398 132.874 24.8277 132.771 24.642H132.669V29.2727H130.97ZM132.635 21.6364C132.635 22.25 132.724 22.7879 132.902 23.25C133.08 23.7121 133.338 24.0739 133.675 24.3352C134.012 24.5928 134.425 24.7216 134.913 24.7216C135.421 24.7216 135.845 24.5871 136.186 24.3182C136.527 24.0455 136.785 23.6761 136.959 23.2102C137.137 22.7443 137.226 22.2197 137.226 21.6364C137.226 21.0606 137.139 20.5436 136.964 20.0852C136.794 19.6269 136.536 19.2652 136.192 19C135.851 18.7348 135.425 18.6023 134.913 18.6023C134.421 18.6023 134.004 18.7292 133.663 18.983C133.326 19.2367 133.071 19.5909 132.896 20.0455C132.722 20.5 132.635 21.0303 132.635 21.6364Z" fill="#00525B"/>
</svg>
