<svg width="41" height="40" viewBox="0 0 41 40" fill="none" xmlns="http://www.w3.org/2000/svg">
<rect x="0.5" width="40" height="40" rx="20" fill="#00525B"/>
<path d="M13.5 11.5H27.5C27.8978 11.5 28.2792 11.6581 28.5605 11.9395C28.8419 12.2208 29 12.6022 29 13V27C29 27.3978 28.8419 27.7792 28.5605 28.0605C28.2792 28.3419 27.8978 28.5 27.5 28.5H13.5C13.1022 28.5 12.7208 28.3419 12.4395 28.0605C12.1581 27.7792 12 27.3978 12 27V13C12 12.6022 12.1581 12.2208 12.4395 11.9395C12.7208 11.6581 13.1022 11.5 13.5 11.5ZM13.5 27H17.2695V17.6299H13.5V27ZM23.7402 17.4404C23.1307 17.4404 22.4731 17.6581 21.9199 18.0322V17.6299H18.1299V27H21.9199V21.5703C21.9199 21.0719 22.3206 20.6702 22.8096 20.6699C23.0482 20.6699 23.2775 20.7648 23.4463 20.9336C23.6151 21.1024 23.71 21.3316 23.71 21.5703V27H27.5V21.2002C27.5 20.203 27.1036 19.2462 26.3984 18.541C25.6934 17.8361 24.7372 17.4405 23.7402 17.4404ZM15.3799 12.6904C14.7991 12.6905 14.2417 12.9204 13.8311 13.3311C13.4204 13.7417 13.1905 14.2991 13.1904 14.8799C13.1904 16.0898 14.1777 17.0595 15.3799 17.0596C15.9581 17.0596 16.513 16.8307 16.9219 16.4219C17.3307 16.013 17.5596 15.4581 17.5596 14.8799C17.5595 13.6777 16.5898 12.6904 15.3799 12.6904Z" fill="white" stroke="white"/>
</svg>
