<svg width="165" height="44" viewBox="0 0 165 44" fill="none" xmlns="http://www.w3.org/2000/svg">
<path d="M47.6568 9.14354H45.3201C44.2858 9.14354 43.8644 8.41455 43.8644 7.72392C43.8644 7.03329 44.4007 6.3043 45.3201 6.3043H53.173C54.0924 6.3043 54.6287 6.99493 54.6287 7.72392C54.6287 8.45292 54.2073 9.14354 53.173 9.14354H50.8363V19.4262C50.8363 20.4621 50.1468 20.9993 49.2274 20.9993C48.308 20.9993 47.6185 20.4238 47.6185 19.4262V9.14354H47.6568Z" fill="white"/>
<path d="M56.2375 16.3568C56.4674 17.8147 57.7315 18.467 59.1489 18.467C60.5662 18.467 61.8303 17.2776 62.6348 17.2776C63.4392 17.2776 63.8989 17.8915 63.8989 18.5437C63.8989 19.8099 61.1791 21.0377 58.8807 21.0377C55.4331 21.0377 53.0964 18.6205 53.0964 15.3975C53.0964 12.1746 55.3565 9.71906 58.6126 9.71906C61.8686 9.71906 64.1671 12.5967 64.1671 15.0522C64.1671 17.5078 63.7457 16.3568 62.8263 16.3568H56.2375ZM61.0642 14.4C60.911 13.1338 60.0299 12.1746 58.6126 12.1746C57.1952 12.1746 56.3142 13.1722 56.1609 14.4H61.0642Z" fill="white"/>
<path d="M76.3869 19.0042C76.3869 19.7715 76.3869 20.9226 74.893 20.9226C73.399 20.9226 73.6288 20.4621 73.399 19.6948C72.5946 20.5772 71.6369 21.076 70.4877 21.076C67.6147 21.076 65.3929 18.7356 65.3929 15.4359C65.3929 12.1363 67.653 9.75743 70.4877 9.75743C73.3224 9.75743 72.7478 10.1795 73.399 11.1003C73.4756 10.3713 74.1268 9.87254 74.893 9.87254C76.3869 9.87254 76.3869 11.0236 76.3869 11.7909V19.0425V19.0042ZM70.9474 18.3519C72.5563 18.3519 73.3224 16.8172 73.3224 15.3975C73.3224 13.9779 72.5563 12.4048 70.9474 12.4048C69.3385 12.4048 68.4957 13.9779 68.4957 15.3975C68.4957 16.8172 69.2619 18.3519 70.9474 18.3519Z" fill="white"/>
<path d="M86.0403 12.9804C85.2741 12.9804 84.5846 12.4048 83.5886 12.4048C81.8265 12.4048 80.9838 13.9012 80.9838 15.3975C80.9838 16.8939 81.9031 18.3519 83.5886 18.3519C85.2741 18.3519 85.504 17.738 85.887 17.738C86.6149 17.738 87.2278 18.3135 87.2278 19.0042C87.2278 20.5005 84.5846 20.9993 83.4737 20.9993C80.141 20.9993 77.9575 18.4286 77.9575 15.3592C77.9575 12.2897 80.2176 9.6807 83.4737 9.6807C86.7298 9.6807 87.2278 10.1027 87.2278 11.5224C87.2278 12.942 86.7681 12.942 86.0403 12.942V12.9804Z" fill="white"/>
<path d="M88.4919 7.91576C88.4919 6.95656 89.1431 6.3043 90.0242 6.3043C90.9052 6.3043 91.5564 6.95656 91.5564 7.91576V10.755H91.5948C92.246 9.98764 93.4335 9.75743 94.3912 9.75743C96.8045 9.75743 98.6049 11.2154 98.6049 13.7094V19.3111C98.6049 20.2703 97.9537 20.9226 97.0726 20.9226C96.1916 20.9226 95.5404 20.2703 95.5404 19.3111V14.2081C95.5404 12.8269 94.6593 12.213 93.5484 12.213C92.4375 12.213 91.5948 13.0955 91.5948 14.2081V19.3111C91.5948 20.2703 90.9435 20.9226 90.0625 20.9226C89.1814 20.9226 88.5302 20.2703 88.5302 19.3111V7.91576H88.4919Z" fill="white"/>
<path d="M103.048 16.3568C103.278 17.8147 104.542 18.467 105.96 18.467C107.377 18.467 108.641 17.2776 109.446 17.2776C110.25 17.2776 110.71 17.8915 110.71 18.5437C110.71 19.8099 107.99 21.0377 105.692 21.0377C102.244 21.0377 99.9073 18.6205 99.9073 15.3975C99.9073 12.1746 102.167 9.71906 105.424 9.71906C108.68 9.71906 110.978 12.5967 110.978 15.0522C110.978 17.5078 110.557 16.3568 109.637 16.3568H103.048ZM107.875 14.4C107.722 13.1338 106.841 12.1746 105.424 12.1746C104.006 12.1746 103.125 13.1722 102.972 14.4H107.875Z" fill="white"/>
<path d="M112.242 11.2538C112.242 10.2946 113.047 9.7958 113.813 9.7958C114.579 9.7958 115.307 10.0644 115.307 11.0236H115.345C115.92 10.2178 116.533 9.7958 117.49 9.7958C118.448 9.7958 118.984 10.2946 118.984 11.3689C118.984 12.4432 118.065 12.3665 117.145 12.7885C116.226 13.2106 115.268 13.5942 115.268 14.7453V19.3111C115.268 20.2703 114.617 20.9226 113.736 20.9226C112.855 20.9226 112.204 20.2703 112.204 19.3111V11.2538H112.242Z" fill="white"/>
<path d="M126.492 13.1722C125.918 13.1722 124.73 12.3281 123.734 12.3281C122.738 12.3281 122.7 12.5583 122.7 13.1338C122.7 14.5151 128.063 14.2849 128.063 17.6229C128.063 20.9609 126.339 21.076 123.696 21.076C121.053 21.076 119.406 20.1552 119.406 18.8123C119.406 17.4694 119.865 17.5078 120.746 17.5078C121.627 17.5078 122.47 18.5054 123.926 18.5054C125.381 18.5054 125.152 18.2368 125.152 17.6613C125.152 16.3184 119.789 16.5102 119.789 13.1722C119.789 9.83417 121.512 9.75743 123.964 9.75743C126.416 9.75743 127.795 10.4097 127.795 11.8677C127.795 13.3257 127.258 13.1722 126.531 13.1722H126.492Z" fill="white"/>
<path d="M60.0299 26.7545C59.915 26.0255 59.0722 25.1814 57.923 25.1814C56.7738 25.1814 56.0077 25.9104 55.7779 26.6394L53.2496 34.6967H53.2113L50.683 26.6394C50.4532 25.9104 49.6105 25.1814 48.5379 25.1814C47.4653 25.1814 46.5842 26.0255 46.431 26.7545L44.439 38.1115C44.439 38.2266 44.439 38.3417 44.439 38.4568C44.439 39.3393 45.1286 39.9148 45.9713 39.9148C46.8141 39.9148 47.5036 39.4544 47.6568 38.4952L48.9209 30.2077H48.9592L51.5258 38.7254C51.679 39.2242 52.1004 39.9148 53.2496 39.9148C54.3988 39.9148 54.8202 39.2242 54.9734 38.7254L57.54 30.2077H57.5783L58.8424 38.4952C58.9956 39.4544 59.417 39.9148 60.4896 39.9148C61.5622 39.9148 62.0219 39.3393 62.0219 38.4568C62.0219 37.5743 62.0219 38.2266 62.0219 38.1115L60.0299 26.7545Z" fill="white"/>
<path d="M72.2498 28.7497C71.3687 28.7497 70.7175 29.4019 70.7175 30.3611V35.6559C70.7175 36.8837 69.7599 37.536 68.7256 37.536C67.6913 37.536 66.7336 36.8453 66.7336 35.6559V30.3611C66.7336 29.4019 66.0824 28.7497 65.2013 28.7497C64.3203 28.7497 63.6691 29.4019 63.6691 30.3611V35.7327C63.6691 38.3417 65.4695 39.9915 68.7256 39.9915C71.9817 39.9915 73.7821 38.3417 73.7821 35.7327V30.3611C73.7821 29.4019 73.1309 28.7497 72.2498 28.7497Z" fill="white"/>
<path d="M80.9838 28.788H80.1027V26.9464C80.1027 25.9872 79.4515 25.3349 78.5704 25.3349C77.6894 25.3349 77.0382 25.9872 77.0382 26.9464V28.788H76.3486C75.5825 28.788 75.0079 29.3252 75.0079 30.0542C75.0079 30.7832 75.5059 31.3203 76.3486 31.3203H77.0382V38.2266C77.0382 39.1858 77.6894 39.8381 78.5704 39.8381C79.4515 39.8381 80.1027 39.1858 80.1027 38.2266V31.3203H80.9838C81.7882 31.3203 82.4777 30.9366 82.4777 30.0542C82.4777 29.1717 81.7882 28.788 80.9838 28.788Z" fill="white"/>
<path d="M92.0928 28.7497C91.2117 28.7497 90.5605 29.4019 90.5605 30.3611V35.6559C90.5605 36.8837 89.6028 37.536 88.5685 37.536C87.5342 37.536 86.5766 36.8453 86.5766 35.6559V30.3611C86.5766 29.4019 85.9253 28.7497 85.0443 28.7497C84.1632 28.7497 83.512 29.4019 83.512 30.3611V35.7327C83.512 38.3417 85.3124 39.9915 88.5685 39.9915C91.8246 39.9915 93.625 38.3417 93.625 35.7327V30.3611C93.625 29.4019 92.9738 28.7497 92.0928 28.7497Z" fill="white"/>
<path d="M104.619 28.8264C103.853 28.8264 103.24 29.3252 103.125 30.0542C102.436 29.1333 101.325 28.7113 100.214 28.7113C97.3791 28.7113 95.119 31.1669 95.119 34.3898C95.119 37.6127 97.3025 40.0299 100.214 40.0299C103.125 40.0299 102.359 39.5695 103.125 38.6486C103.355 39.416 103.7 39.8764 104.619 39.8764C106.113 39.8764 106.113 38.7254 106.113 37.958V30.7064C106.113 29.9391 106.113 28.788 104.619 28.788V28.8264ZM100.673 37.3441C98.988 37.3441 98.2218 35.8094 98.2218 34.3898C98.2218 32.9702 98.988 31.3971 100.673 31.3971C102.359 31.3971 103.048 32.9702 103.048 34.3898C103.048 35.8094 102.282 37.3441 100.673 37.3441Z" fill="white"/>
<path d="M109.561 25.2198C108.68 25.2198 108.028 25.872 108.028 26.8313V38.2266C108.028 39.1858 108.68 39.8381 109.561 39.8381C110.442 39.8381 111.093 39.1858 111.093 38.2266V26.8313C111.093 25.872 110.442 25.2198 109.561 25.2198Z" fill="white"/>
<path d="M125.956 31.9342C127.335 31.282 127.948 30.3228 127.948 28.9031C127.948 26.7545 126.148 25.3349 123.926 25.3349H119.827C118.831 25.3349 118.141 25.8721 118.141 26.8696V38.265C118.141 39.2242 118.869 39.7997 119.865 39.7997H124.271C127.22 39.7997 129.212 38.265 129.212 35.3873C129.212 32.5097 127.795 32.1644 125.956 31.9342ZM121.321 28.0207H123.006C123.964 28.0207 124.73 28.5195 124.73 29.4787C124.73 30.4379 124.041 31.0901 123.006 31.0901H121.321V28.0207ZM123.849 37.1139H121.321V33.7375H123.581C125.075 33.7375 125.841 34.3898 125.841 35.349C125.841 36.3082 124.998 37.1139 123.849 37.1139Z" fill="white"/>
<path d="M139.555 28.8648C138.789 28.8648 138.176 29.3636 138.099 30.0925C137.41 29.1717 136.299 28.7497 135.188 28.7497C132.353 28.7497 130.093 31.2052 130.093 34.4281C130.093 37.6511 132.315 40.0683 135.188 40.0683C138.061 40.0683 137.333 39.6078 138.099 38.7254C138.329 39.4927 138.674 39.9532 139.555 39.9532C141.049 39.9532 141.049 38.8021 141.049 38.0347V30.7832C141.049 30.0158 141.049 28.8648 139.555 28.8648ZM135.571 37.3825C133.886 37.3825 133.119 35.8478 133.119 34.4281C133.119 33.0085 133.886 31.4354 135.571 31.4354C137.257 31.4354 137.946 33.0085 137.946 34.4281C137.946 35.8478 137.18 37.3825 135.571 37.3825Z" fill="white"/>
<path d="M148.94 28.7497C147.484 28.7497 146.565 29.1717 145.952 29.9391C145.837 29.2868 145.339 28.8648 144.535 28.8648C143.73 28.8648 143.003 29.517 143.003 30.4762V38.3033C143.003 39.2625 143.654 39.9148 144.535 39.9148C145.416 39.9148 146.067 39.2625 146.067 38.3033V33.2004C146.067 32.0493 146.757 31.2052 148.021 31.2052C149.285 31.2052 150.013 31.8575 150.013 33.2004V38.3033C150.013 39.2625 150.664 39.9148 151.545 39.9148C152.426 39.9148 153.077 39.2625 153.077 38.3033V32.7016C153.077 30.2077 151.277 28.7497 148.863 28.7497H148.94Z" fill="white"/>
<path d="M164.531 37.6894L160.93 33.6608L163.65 31.3587C164.11 30.975 164.263 30.6297 164.263 30.2077C164.263 29.5554 163.727 28.9031 162.96 28.9031C162.194 28.9031 162.079 29.095 161.581 29.517L158.21 32.6248V26.9847C158.21 26.0255 157.559 25.3733 156.678 25.3733C155.797 25.3733 155.146 26.0255 155.146 26.9847V38.3417C155.146 39.3009 155.797 39.9532 156.678 39.9532C157.559 39.9532 158.21 39.3009 158.21 38.3417V34.7735H158.249L162.003 39.1858C162.501 39.7613 162.922 40.0683 163.497 40.0683C164.301 40.0683 164.952 39.4544 164.952 38.687C164.952 37.9196 164.837 38.0348 164.569 37.7278L164.531 37.6894Z" fill="white"/>
<path d="M25.6687 27.5986H10.6524C9.92457 27.5986 9.23505 27.2149 8.85198 26.5627C8.46891 25.9488 8.4306 25.1431 8.77536 24.4908L21.0336 1.1246C21.5698 0.0886613 22.834 -0.29502 23.8683 0.242134C24.9025 0.779288 25.2856 2.04544 24.7493 3.08138L14.1 23.3398H25.6304C26.7796 23.3398 27.7372 24.299 27.7372 25.45C27.7372 26.601 26.7796 27.5602 25.6304 27.5602L25.6687 27.5986Z" fill="white"/>
<path d="M18.2372 43.8283C10.1161 43.8283 3.3741 39.6462 0.194633 32.6248C-0.303356 31.5505 0.194633 30.3228 1.22892 29.824C2.2632 29.3252 3.52733 29.824 4.02532 30.8599C6.55357 36.4233 11.725 39.6078 18.1988 39.6078C24.6727 39.6078 18.1988 39.6078 18.2372 39.6078C24.9409 39.6078 31.0316 36.078 33.3684 30.8599C33.828 29.7856 35.0922 29.3252 36.1648 29.7856C37.2373 30.246 37.697 31.5122 37.2373 32.5865C34.2494 39.2625 26.6264 43.79 18.2755 43.8283C18.2755 43.8283 18.2372 43.8283 18.1988 43.8283H18.2372Z" fill="white"/>
<path d="M34.0494 8.00019C35.1863 6.86143 35.1863 5.01513 34.0494 3.87637C32.9125 2.73761 31.0691 2.73761 29.9322 3.87637C28.7952 5.01513 28.7952 6.86143 29.9322 8.00019C31.0691 9.13895 32.9125 9.13895 34.0494 8.00019Z" fill="white"/>
<path d="M2.53135 5.92062C2.53135 7.53208 3.83378 8.8366 5.44267 8.8366C7.05156 8.8366 8.35399 7.53208 8.35399 5.92062C8.35399 4.30916 7.05156 3.00464 5.44267 3.00464C3.83378 3.00464 2.53135 4.30916 2.53135 5.92062Z" fill="white"/>
</svg>
