<svg width="24" height="24" viewBox="0 0 24 24" fill="none" xmlns="http://www.w3.org/2000/svg">
<path d="M12 4.2002H14.7V6.0002H12" stroke="#00525B" stroke-width="0.75" stroke-linecap="round" stroke-linejoin="round"/>
<path d="M12 3.8999V9.5999" stroke="#00525B" stroke-width="0.75" stroke-linecap="round" stroke-linejoin="round"/>
<path d="M20.7 20.1001H3.30005" stroke="#00525B" stroke-width="0.75" stroke-linecap="round" stroke-linejoin="round"/>
<path d="M6.29995 12.6001H5.69995V13.2001H6.29995V12.6001Z" stroke="#00525B" stroke-width="0.75" stroke-miterlimit="10" stroke-linecap="round"/>
<path d="M8.1 12.6001H7.5V13.2001H8.1V12.6001Z" stroke="#00525B" stroke-width="0.75" stroke-miterlimit="10" stroke-linecap="round"/>
<path d="M6.29995 14.3999H5.69995V14.9999H6.29995V14.3999Z" stroke="#00525B" stroke-width="0.75" stroke-miterlimit="10" stroke-linecap="round"/>
<path d="M8.1 14.3999H7.5V14.9999H8.1V14.3999Z" stroke="#00525B" stroke-width="0.75" stroke-miterlimit="10" stroke-linecap="round"/>
<path d="M6.29995 16.2002H5.69995V16.8002H6.29995V16.2002Z" stroke="#00525B" stroke-width="0.75" stroke-miterlimit="10" stroke-linecap="round"/>
<path d="M8.1 16.2002H7.5V16.8002H8.1V16.2002Z" stroke="#00525B" stroke-width="0.75" stroke-miterlimit="10" stroke-linecap="round"/>
<path d="M6.29995 18H5.69995V18.6H6.29995V18Z" stroke="#00525B" stroke-width="0.75" stroke-miterlimit="10" stroke-linecap="round"/>
<path d="M8.1 18H7.5V18.6H8.1V18Z" stroke="#00525B" stroke-width="0.75" stroke-miterlimit="10" stroke-linecap="round"/>
<path d="M16.4999 12.6001H15.8999V13.2001H16.4999V12.6001Z" stroke="#00525B" stroke-width="0.75" stroke-miterlimit="10" stroke-linecap="round"/>
<path d="M18.3 12.6001H17.7V13.2001H18.3V12.6001Z" stroke="#00525B" stroke-width="0.75" stroke-miterlimit="10" stroke-linecap="round"/>
<path d="M16.4999 14.3999H15.8999V14.9999H16.4999V14.3999Z" stroke="#00525B" stroke-width="0.75" stroke-miterlimit="10" stroke-linecap="round"/>
<path d="M18.3 14.3999H17.7V14.9999H18.3V14.3999Z" stroke="#00525B" stroke-width="0.75" stroke-miterlimit="10" stroke-linecap="round"/>
<path d="M16.4999 16.2002H15.8999V16.8002H16.4999V16.2002Z" stroke="#00525B" stroke-width="0.75" stroke-miterlimit="10" stroke-linecap="round"/>
<path d="M18.3 16.2002H17.7V16.8002H18.3V16.2002Z" stroke="#00525B" stroke-width="0.75" stroke-miterlimit="10" stroke-linecap="round"/>
<path d="M16.4999 18H15.8999V18.6H16.4999V18Z" stroke="#00525B" stroke-width="0.75" stroke-miterlimit="10" stroke-linecap="round"/>
<path d="M18.3 18H17.7V18.6H18.3V18Z" stroke="#00525B" stroke-width="0.75" stroke-miterlimit="10" stroke-linecap="round"/>
<path d="M10.4999 12.6001H9.8999V13.2001H10.4999V12.6001Z" stroke="#00525B" stroke-width="0.75" stroke-miterlimit="10" stroke-linecap="round"/>
<path d="M12.3 12.6001H11.7V13.2001H12.3V12.6001Z" stroke="#00525B" stroke-width="0.75" stroke-miterlimit="10" stroke-linecap="round"/>
<path d="M14.1 12.6001H13.5V13.2001H14.1V12.6001Z" stroke="#00525B" stroke-width="0.75" stroke-miterlimit="10" stroke-linecap="round"/>
<path d="M10.4999 14.3999H9.8999V14.9999H10.4999V14.3999Z" stroke="#00525B" stroke-width="0.75" stroke-miterlimit="10" stroke-linecap="round"/>
<path d="M12.3 14.3999H11.7V14.9999H12.3V14.3999Z" stroke="#00525B" stroke-width="0.75" stroke-miterlimit="10" stroke-linecap="round"/>
<path d="M14.1 14.3999H13.5V14.9999H14.1V14.3999Z" stroke="#00525B" stroke-width="0.75" stroke-miterlimit="10" stroke-linecap="round"/>
<path d="M14.0999 20.1V16.5H9.8999V20.1" stroke="#00525B" stroke-linecap="round" stroke-linejoin="round"/>
<path d="M19.8 11.1001V20.1001H4.19995V11.1001" stroke="#00525B" stroke-linecap="round" stroke-linejoin="round"/>
<path d="M13.2 8.1001H17.7L20.7 11.1001H3.30005L6.30005 8.1001H10.8" stroke="#00525B" stroke-linecap="round" stroke-linejoin="round"/>
<path d="M11.3999 9.6001H12.5999" stroke="#00525B" stroke-linecap="round" stroke-linejoin="round"/>
<path d="M12 16.5V20.1" stroke="#00525B" stroke-linecap="round" stroke-linejoin="round"/>
</svg>
