<svg width="40" height="40" viewBox="0 0 40 40" fill="none" xmlns="http://www.w3.org/2000/svg">
<rect width="40" height="40" rx="20" fill="#F3F5F6"/>
<path d="M14.321 12.8418C15.395 14.4198 16.784 16.2228 17.876 17.3358" stroke="#00525B" stroke-linecap="round" stroke-linejoin="round"/>
<path d="M22.6609 22.1509C24.0979 23.4049 25.8769 24.8089 27.2149 25.6069" stroke="#00525B" stroke-linecap="round" stroke-linejoin="round"/>
<path d="M19.037 20.963C16.637 18.563 17.159 18.074 17.534 17.699L18.203 17.03C18.566 16.667 18.632 16.253 18.338 15.887C17.618 14.984 16.592 13.634 15.881 12.722C15.44 12.158 14.357 12.521 13.52 13.358C12.752 14.126 12.188 15.593 12.572 16.799C13.073 18.365 15.032 21.143 16.943 23.054C18.854 24.965 21.635 26.924 23.198 27.425C24.404 27.812 25.871 27.245 26.639 26.477C27.476 25.64 27.839 24.557 27.275 24.116C26.363 23.405 25.013 22.379 24.11 21.659C23.744 21.368 23.33 21.431 22.967 21.794C22.781 21.98 22.523 22.238 22.298 22.463C21.923 22.838 21.434 23.36 19.034 20.96L19.037 20.963Z" stroke="#00525B" stroke-linecap="round" stroke-linejoin="round"/>
</svg>
