<svg width="36" height="36" viewBox="0 0 36 36" fill="none" xmlns="http://www.w3.org/2000/svg">
<rect x="0.5" y="0.5" width="35" height="35" rx="17.5" fill="white" fill-opacity="0.1"/>
<rect x="0.5" y="0.5" width="35" height="35" rx="17.5" stroke="white"/>
<path d="M22.0649 20.277L25.7519 23.964C26.2139 24.426 26.2139 25.182 25.7519 25.647L25.6439 25.755C25.1819 26.217 24.4259 26.217 23.9609 25.755L20.2739 22.068" stroke="white" stroke-miterlimit="10" stroke-linecap="round"/>
<path d="M21.3012 21.0273C23.8015 18.3749 23.6783 14.1979 21.0259 11.6976C18.3736 9.19723 14.1965 9.32047 11.6962 11.9728C9.19586 14.6252 9.3191 18.8022 11.9715 21.3026C14.6238 23.8029 18.8009 23.6797 21.3012 21.0273Z" stroke="white" stroke-miterlimit="10" stroke-linecap="round"/>
<path d="M17.5049 11.685C19.4699 11.991 21.0209 13.548 21.3149 15.516" stroke="white" stroke-miterlimit="10" stroke-linecap="round"/>
</svg>
