<svg width="24" height="24" viewBox="0 0 24 24" fill="none" xmlns="http://www.w3.org/2000/svg">
<path d="M16.0649 14.2769L19.7519 17.9639C20.2139 18.4259 20.2139 19.1819 19.7519 19.6469L19.6439 19.7549C19.1819 20.2169 18.4259 20.2169 17.9609 19.7549L14.2739 16.0679" stroke="#00525B" stroke-miterlimit="10" stroke-linecap="round"/>
<path d="M15.3012 15.0274C17.8015 12.375 17.6783 8.19794 15.0259 5.69761C12.3736 3.19729 8.19651 3.32053 5.69618 5.97288C3.19586 8.62523 3.3191 12.8023 5.97146 15.3026C8.62381 17.803 12.8009 17.6797 15.3012 15.0274Z" stroke="#00525B" stroke-miterlimit="10" stroke-linecap="round"/>
<path fill-rule="evenodd" clip-rule="evenodd" d="M11.5049 5.68506C13.4699 5.99106 15.0209 7.54806 15.3149 9.51606L11.5049 5.68506Z" fill="#00525B"/>
<path d="M11.5049 5.68506C13.4699 5.99106 15.0209 7.54806 15.3149 9.51606" stroke="#00525B" stroke-miterlimit="10" stroke-linecap="round"/>
</svg>
