<svg width="65" height="64" viewBox="0 0 65 64" fill="none" xmlns="http://www.w3.org/2000/svg">
<path d="M32.25 8.80005V12" stroke="#00525B" stroke-width="1.5" stroke-miterlimit="10" stroke-linecap="round"/>
<path d="M32.25 33.6V51.912C32.25 53.552 31.354 55.2 29.114 55.2C27.234 55.2 25.978 53.896 25.978 52.056V51.616" stroke="#00525B" stroke-width="1.5" stroke-miterlimit="10" stroke-linecap="round"/>
<path d="M15.314 30.2C13.53 30.2 11.93 30.784 10.898 31.696C10.45 32.088 9.778 31.736 9.85 31.128C11.282 19.528 20.762 12 32.242 12C43.73 12 53.21 19.528 54.634 31.128C54.706 31.736 54.042 32.088 53.586 31.696C52.554 30.784 50.962 30.2 49.17 30.2C46.898 30.2 44.938 31.144 44.042 32.504C43.786 32.896 43.258 32.896 43.002 32.504C42.106 31.144 40.146 30.2 37.874 30.2C35.602 30.2 33.642 31.144 32.746 32.504C32.49 32.896 31.962 32.896 31.706 32.504C30.81 31.144 28.85 30.2 26.578 30.2C24.306 30.2 22.346 31.144 21.45 32.504C21.194 32.896 20.666 32.896 20.41 32.504C19.514 31.144 17.554 30.2 15.282 30.2H15.314Z" stroke="#00525B" stroke-width="1.5" stroke-miterlimit="10"/>
<path d="M43.554 32.8C43.554 23.048 39.058 15.048 32.162 12" stroke="#00525B" stroke-width="1.5" stroke-miterlimit="10"/>
<path d="M20.77 32.016C20.77 22.696 25.266 15.04 32.162 12.12" stroke="#00525B" stroke-width="1.5" stroke-miterlimit="10"/>
<path d="M32.25 12V32.8" stroke="#00525B" stroke-width="1.5" stroke-miterlimit="10" stroke-linecap="round"/>
</svg>
