<svg width="41" height="40" viewBox="0 0 41 40" fill="none" xmlns="http://www.w3.org/2000/svg">
<rect x="0.5" width="40" height="40" rx="20" fill="#00525B"/>
<path d="M20.6025 13C22.6089 13 24.1803 12.9995 25.373 13.1025C26.5416 13.2035 27.5565 13.4148 28.3066 13.998C29.1101 14.6231 29.426 15.5212 29.5684 16.5176C29.7074 17.491 29.7051 18.7579 29.7051 20.3018C29.7051 21.846 29.7074 23.1133 29.5684 24.0869C29.426 25.0832 29.11 25.9805 28.3066 26.6055C27.5565 27.1888 26.5417 27.4009 25.373 27.502C24.1803 27.605 22.6089 27.6035 20.6025 27.6035C18.5962 27.6035 17.0248 27.605 15.832 27.502C14.6634 27.4009 13.6485 27.1888 12.8984 26.6055C12.0953 25.9805 11.7791 25.0831 11.6367 24.0869C11.4977 23.1133 11.5 21.8459 11.5 20.3018C11.5 18.7578 11.4977 17.4911 11.6367 16.5176C11.7791 15.5212 12.095 14.6231 12.8984 13.998C13.6485 13.4147 14.6635 13.2036 15.832 13.1025C17.0248 12.9995 18.5962 13 20.6025 13ZM20.6025 15C18.558 15 17.0898 15.0009 16.0039 15.0947C14.8946 15.1907 14.3896 15.3729 14.127 15.5771C13.9179 15.7398 13.727 16.0243 13.6162 16.7998C13.5021 17.5986 13.5 18.6952 13.5 20.3018C13.5 21.9082 13.5021 23.0049 13.6162 23.8037C13.727 24.5791 13.918 24.8636 14.127 25.0264C14.3895 25.2306 14.8945 25.4128 16.0039 25.5088C17.0898 25.6026 18.558 25.6035 20.6025 25.6035C22.647 25.6035 24.1152 25.6026 25.2012 25.5088C26.3106 25.4129 26.8155 25.2306 27.0781 25.0264C27.2872 24.8637 27.478 24.5795 27.5889 23.8037C27.7029 23.0049 27.7051 21.9083 27.7051 20.3018C27.7051 18.6952 27.703 17.5986 27.5889 16.7998C27.478 16.0242 27.2873 15.7398 27.0781 15.5771C26.8154 15.373 26.3103 15.1906 25.2012 15.0947C24.1152 15.0009 22.647 15 20.6025 15ZM24.2041 20.3018L18.8027 23.4531V17.1514L24.2041 20.3018Z" fill="white"/>
</svg>
