<svg width="48" height="48" viewBox="0 0 48 48" fill="none" xmlns="http://www.w3.org/2000/svg">
<path d="M44.4001 33.5525H32.9761C30.2761 33.5525 28.0801 31.5245 28.0801 29.0165C28.0801 26.5085 30.2761 24.4805 32.9761 24.4805H44.4001" stroke="#003764" stroke-width="1.5" stroke-miterlimit="10"/>
<path d="M32.976 30.7441C33.9304 30.7441 34.704 29.9704 34.704 29.0161C34.704 28.0617 33.9304 27.2881 32.976 27.2881C32.0217 27.2881 31.248 28.0617 31.248 29.0161C31.248 29.9704 32.0217 30.7441 32.976 30.7441Z" fill="#003764"/>
<path d="M3.59961 18.8163C3.59961 16.3083 5.62761 14.2803 8.13561 14.2803H39.8636C42.3716 14.2803 44.3996 16.3083 44.3996 18.8163V39.2163C44.3996 41.7243 42.3716 43.7523 39.8636 43.7523H8.13561C5.62761 43.7523 3.59961 41.7243 3.59961 39.2163V18.8163Z" stroke="#003764" stroke-width="1.5" stroke-miterlimit="10" stroke-linecap="round"/>
<path d="M19.7637 5.73633L27.6717 13.6443" stroke="#003764" stroke-width="1.5" stroke-miterlimit="10" stroke-linecap="round"/>
<path d="M11.6523 13.6444L21.2403 4.05636C22.2243 3.07236 23.8083 3.07236 24.7923 4.05636L34.3803 13.6444" stroke="#003764" stroke-width="1.5" stroke-miterlimit="10" stroke-linecap="round"/>
</svg>
