<svg width="24" height="24" viewBox="0 0 24 24" fill="none" xmlns="http://www.w3.org/2000/svg">
<path d="M6.32031 4.8418C7.39431 6.4198 8.78331 8.2228 9.87531 9.3358" stroke="#003764" stroke-linecap="round" stroke-linejoin="round"/>
<path d="M14.6602 14.1504C16.0972 15.4044 17.8762 16.8084 19.2142 17.6064" stroke="#003764" stroke-linecap="round" stroke-linejoin="round"/>
<path d="M11.0379 12.964C8.63794 10.564 9.15994 10.075 9.53494 9.69996L10.2039 9.03096C10.5669 8.66796 10.6329 8.25396 10.3389 7.88796C9.61894 6.98496 8.59294 5.63496 7.88194 4.72296C7.44094 4.15896 6.35794 4.52196 5.52094 5.35896C4.75294 6.12696 4.18894 7.59396 4.57294 8.79996C5.07394 10.366 7.03294 13.144 8.94394 15.055C10.8549 16.966 13.6359 18.925 15.1989 19.426C16.4049 19.813 17.8719 19.246 18.6399 18.478C19.4769 17.641 19.8399 16.558 19.2759 16.117C18.3639 15.406 17.0139 14.38 16.1109 13.66C15.7449 13.369 15.3309 13.432 14.9679 13.795C14.7819 13.981 14.5239 14.239 14.2989 14.464C13.9239 14.839 13.4349 15.361 11.0349 12.961L11.0379 12.964Z" stroke="#003764" stroke-linecap="round" stroke-linejoin="round"/>
</svg>
