<svg width="33" height="40" viewBox="0 0 33 40" fill="none" xmlns="http://www.w3.org/2000/svg">
<path d="M6.635 30.2113C5.48836 23.0348 11.2911 15.928 14.7657 9.06506C13.1326 2.8292 8.71981 2.30664 8.71981 2.30664C9.86645 9.30892 -1.66946 14.43 0.206858 26.0308C1.63147 34.9143 9.97069 40.9411 18.8311 39.5128V39.4083C10.4919 40.7669 7.26044 34.0782 6.635 30.2113Z" fill="url(#paint0_linear_2862_327)"/>
<path d="M32.2788 20.8051C32.522 22.3379 32.5568 23.8707 32.3831 25.3339C31.8966 29.4099 29.8813 33.1026 26.8583 35.7502C23.4879 36.2728 20.8819 33.5206 20.0132 30.2111C19.9437 29.9324 19.8742 29.6537 19.8395 29.3402C19.0056 24.2539 23.1057 21.5715 24.3218 16.1717C24.4608 16.0672 24.6345 15.9278 24.7388 15.8233C25.1557 15.4053 25.4685 14.9524 25.7117 14.4647C26.9278 11.8519 25.8507 8.36816 25.8507 8.36816C29.1169 10.7371 31.3059 14.9176 32.2441 20.8399L32.2788 20.8051Z" fill="url(#paint1_linear_2862_327)"/>
<path d="M17.129 0.007468C17.129 0.11198 17.129 0.216491 17.129 0.321002C17.129 0.739049 17.129 1.12226 17.129 1.54031C16.9552 4.01375 16.0171 6.52203 14.7314 9.06515C11.2568 15.9281 5.45407 23.0349 6.60072 30.2113C7.22616 34.0434 10.4576 40.8367 18.7968 39.4781C21.8893 38.9903 24.6343 37.6317 26.8233 35.7156C23.1749 36.273 20.3952 32.9635 19.8045 29.3056C18.9706 24.2193 23.0707 21.5369 24.2868 16.1371C24.53 15.092 24.669 13.9424 24.6343 12.6534C24.6343 11.9218 24.53 11.1205 24.4258 10.2845C23.2097 2.68993 19.2138 -0.166718 17.129 0.007468Z" fill="url(#paint2_linear_2862_327)"/>
<path d="M9.97018 4.32715C9.97018 4.32715 9.97018 4.32715 10.0049 4.43166C10.0049 4.50133 10.0744 4.57101 10.1439 4.71036C10.2482 4.95422 10.3871 5.33743 10.4566 5.82515C10.5261 6.06901 10.5261 6.34771 10.5609 6.62641C10.5609 6.76576 10.5609 6.93994 10.5609 7.07929C10.5609 7.14896 10.5609 7.25348 10.5609 7.32315C10.5609 7.39283 10.5609 7.49734 10.5609 7.56701C10.5609 7.7412 10.5609 7.91538 10.5609 8.08957C10.5609 8.26376 10.4914 8.43794 10.4914 8.64697C10.4566 9.03018 10.3524 9.41338 10.2482 9.83143C10.2134 10.0405 10.1439 10.2495 10.0744 10.4585C10.0049 10.6675 9.93543 10.8765 9.86593 11.0856C9.79644 11.2946 9.6922 11.5036 9.62271 11.7126C9.58796 11.8172 9.55322 11.9217 9.48372 12.0262C9.44897 12.1307 9.41423 12.2352 9.34473 12.3397C9.24049 12.5487 9.13626 12.7926 9.03202 13.0016C8.92778 13.2106 8.82354 13.4545 8.68455 13.6635C8.54556 13.8726 8.44132 14.1164 8.30233 14.3254C8.16335 14.5345 8.05911 14.7783 7.92012 14.9873C7.71164 15.3357 7.46841 15.6493 7.25993 15.9976C7.25993 15.8234 7.25993 15.6493 7.25993 15.4751C7.25993 15.3009 7.22518 15.1267 7.19044 14.9525C7.05145 14.2558 6.80822 13.5939 6.59974 13.1061C6.39126 12.6184 6.18278 12.3397 6.18278 12.3397C6.18278 12.3397 6.35652 12.6532 6.4955 13.141C6.66924 13.6287 6.84297 14.3254 6.91246 14.9873C6.91246 15.1615 6.91246 15.3357 6.91246 15.5099C6.91246 15.6841 6.91246 15.8234 6.91246 15.9976C6.91246 16.0673 6.91246 16.137 6.91246 16.2415C6.91246 16.3112 6.91246 16.3808 6.87772 16.4505C6.87772 16.5202 6.87772 16.5899 6.80822 16.6595C6.80822 16.7292 6.77348 16.7989 6.73873 16.8337C6.73873 16.9382 6.66924 17.0079 6.63449 17.0776C6.63449 17.1124 6.565 17.1821 6.565 17.2169C6.565 17.2518 6.565 17.2866 6.565 17.2866C6.565 17.3214 6.53025 17.3563 6.53025 17.3911C6.46076 17.5305 6.39126 17.6001 6.39126 17.6001C6.35652 17.7046 6.28702 17.7743 6.25228 17.8788C5.73108 18.8891 5.34886 20.0039 5.10563 21.1535C4.89715 22.3032 4.82766 23.4528 4.89715 24.6024C4.96665 25.752 5.20987 26.832 5.48785 27.8771C5.80057 28.9222 6.18278 29.8628 6.63449 30.7686C6.70398 30.908 6.80822 31.0821 6.87772 31.2215C6.80822 30.8731 6.73873 30.5596 6.66924 30.246C6.66924 30.037 6.59974 29.828 6.59974 29.619C6.35652 29.0267 6.14804 28.3997 5.9743 27.7378C5.69633 26.7275 5.52259 25.6475 5.4531 24.5676C5.38361 23.4876 5.4531 22.3728 5.66158 21.258C5.87006 20.1781 6.25227 19.0981 6.73873 18.1227C6.77348 18.053 6.80822 17.9833 6.87772 17.8788C6.87772 17.8788 6.87772 17.8092 6.98196 17.7046C6.98196 17.635 7.05145 17.6001 7.05145 17.5305V17.4956C7.05145 17.4608 7.05145 17.3911 7.05145 17.3911C7.15569 17.2169 7.29468 17.0079 7.39892 16.8337C7.43366 16.764 7.50316 16.6944 7.57265 16.6247C7.64214 16.5202 7.74639 16.4157 7.85063 16.3112C7.88537 16.2763 7.95487 16.2066 7.98961 16.1718C8.05911 16.137 8.09385 16.0673 8.16335 16.0325C8.26759 15.9279 8.40657 15.8583 8.51081 15.7538C8.6498 15.6492 8.75404 15.5796 8.89303 15.5099C9.03201 15.4402 9.171 15.3706 9.27524 15.3009C9.41423 15.2312 9.51847 15.1964 9.65745 15.1267C9.7617 15.057 9.90068 15.057 10.0049 14.9873C10.1092 14.9525 10.2134 14.9177 10.3176 14.8828C10.4219 14.8828 10.4914 14.848 10.5609 14.8132C10.6999 14.8132 10.7694 14.7783 10.7694 14.7783C10.7694 14.7783 10.6999 14.7783 10.5609 14.7783C10.4914 14.7783 10.4219 14.7783 10.3176 14.7783C10.2134 14.7783 10.1092 14.8132 10.0049 14.848C9.90068 14.848 9.7617 14.8828 9.62271 14.9525C9.48372 14.9873 9.34474 15.0222 9.20575 15.0919C9.06676 15.1615 8.92777 15.1964 8.78879 15.266C8.6498 15.3357 8.51081 15.4054 8.37183 15.4751C8.30233 15.5099 8.23284 15.5447 8.16335 15.5796C8.23284 15.4751 8.30233 15.3706 8.37183 15.266C8.51081 15.057 8.6498 14.8132 8.75404 14.5693C8.89303 14.3254 8.99727 14.1164 9.13625 13.8726C9.27524 13.6635 9.34474 13.4197 9.44898 13.1758C9.55322 12.9319 9.65746 12.7229 9.7617 12.4791C9.83119 12.3745 9.86594 12.2352 9.90068 12.1307C9.93543 12.0262 9.97018 11.8868 10.0397 11.7823C10.1092 11.5733 10.2134 11.3294 10.2829 11.1204C10.3524 10.9114 10.3871 10.6675 10.4566 10.4585C10.5261 10.2495 10.5956 10.0405 10.6304 9.83143C10.6999 9.41338 10.8041 8.99534 10.8388 8.61213C10.8388 8.4031 10.8736 8.22892 10.8736 8.05473C10.8736 7.88055 10.8736 7.67152 10.8736 7.49734C10.8736 7.39283 10.8736 7.32315 10.8736 7.25348C10.8736 7.1838 10.8736 7.07929 10.8736 7.00962C10.8736 6.83543 10.8736 6.69608 10.8388 6.55673C10.8041 6.2432 10.7694 5.99934 10.6999 5.75548C10.5956 5.26775 10.4219 4.91938 10.3176 4.67552C10.2482 4.57101 10.2134 4.4665 10.1787 4.39682C10.1439 4.32715 10.1092 4.32715 10.1092 4.32715" fill="url(#paint3_linear_2862_327)"/>
<path d="M27.9 12.7227C27.9 12.7227 27.9695 13.071 28.039 13.6981C28.0738 14.0116 28.1085 14.3948 28.1085 14.8129C28.1085 15.2309 28.1085 15.7187 28.1085 16.2412C28.1085 16.7638 28.039 17.356 27.9348 17.9482C27.8653 18.5405 27.7263 19.1675 27.5526 19.7946C27.3788 20.4217 27.2051 21.0836 26.9271 21.7107C26.6839 22.3726 26.4059 22.9996 26.0932 23.6267C25.9195 23.9402 25.7805 24.2538 25.572 24.5325C25.4678 24.6718 25.3983 24.846 25.294 24.9854C25.1898 25.1247 25.1203 25.2989 25.0161 25.4382C24.9118 25.5776 24.8076 25.7169 24.7381 25.8563L24.5991 26.0653C24.5991 25.9956 24.5991 25.926 24.5991 25.8563C24.5991 25.7169 24.5991 25.5428 24.5991 25.4034C24.5991 25.2292 24.5644 25.0899 24.5296 24.9157C24.3906 24.2886 24.1474 23.6964 23.9389 23.2783C23.7304 22.8603 23.5567 22.5816 23.5567 22.5816C23.5567 22.5816 23.6957 22.8603 23.8694 23.3132C24.0432 23.7661 24.2169 24.3583 24.2864 24.9505C24.2864 25.0899 24.2864 25.2641 24.2864 25.4034C24.2864 25.5428 24.2864 25.7169 24.2864 25.8563C24.2864 25.9956 24.2516 26.135 24.2169 26.2395C24.2169 26.3789 24.1474 26.4834 24.1127 26.5879C24.1127 26.6227 24.0779 26.6924 24.0432 26.7272C24.0432 26.7621 24.0084 26.7969 23.9737 26.8317C23.9042 26.9014 23.8694 26.9711 23.7999 27.0408C23.5915 27.2846 23.383 27.5285 23.1745 27.7723C22.966 28.0162 22.7575 28.2252 22.549 28.4691C22.3406 28.6781 22.1321 28.8871 21.9236 29.0962C21.8194 29.2007 21.7151 29.3052 21.6456 29.4097C21.5414 29.5142 21.4372 29.5839 21.3329 29.6884C21.1244 29.8626 20.9507 30.0368 20.777 30.2109C20.6032 30.3851 20.4295 30.5245 20.2558 30.6638C20.1863 30.6987 20.1515 30.7683 20.082 30.8032C20.082 30.8729 20.1168 30.9425 20.1515 31.0122C20.221 30.9425 20.2905 30.9077 20.3948 30.838C20.5685 30.6987 20.777 30.5942 20.9507 30.42C21.1244 30.2806 21.3329 30.1064 21.5414 29.9323C21.6456 29.8626 21.7499 29.7581 21.8541 29.6884C21.9584 29.5839 22.0626 29.5142 22.1668 29.4097C22.3753 29.2007 22.6185 29.0265 22.827 28.8175C23.0355 28.6084 23.2787 28.3646 23.4872 28.1556C23.6957 27.9117 23.9389 27.6678 24.1474 27.424C24.5644 26.9362 24.9813 26.4137 25.3635 25.8563L25.433 25.7866C25.572 25.6473 25.711 25.5079 25.85 25.3686C25.989 25.2292 26.1627 25.0899 26.3364 24.9505C26.5102 24.8112 26.6839 24.7067 26.8576 24.5673C27.0661 24.4628 27.2399 24.3583 27.4483 24.2538C27.6568 24.1493 27.8306 24.0796 28.039 24.0099C28.2475 23.9402 28.4212 23.8706 28.595 23.8357C28.7687 23.8009 28.9424 23.7661 29.1162 23.7312C29.2899 23.7312 29.4289 23.6964 29.5679 23.6615C29.7069 23.6615 29.8111 23.6615 29.9154 23.6615C29.9154 23.6615 29.8806 23.6615 29.8459 23.6615C29.8111 23.6615 29.8459 23.6615 29.8111 23.6615C29.8111 23.6615 29.8111 23.6615 29.7764 23.6615C29.7069 23.6615 29.6374 23.6615 29.5679 23.6615C29.4289 23.6615 29.2899 23.6615 29.1162 23.6964C28.9424 23.6964 28.7687 23.7661 28.595 23.7661C28.4212 23.8009 28.2128 23.8357 28.0043 23.9054C27.7958 23.9751 27.5873 24.0448 27.3788 24.1144C27.1704 24.1841 26.9619 24.2886 26.7534 24.3931C26.5449 24.4976 26.3712 24.6022 26.1627 24.7415C26.0932 24.7763 26.0237 24.846 25.9542 24.8809V24.8112C26.1627 24.4976 26.3364 24.1841 26.5102 23.8706C26.8229 23.2087 27.1356 22.5816 27.3788 21.8848C27.6221 21.2229 27.7958 20.5262 27.9695 19.8991C28.1085 19.2372 28.2128 18.5753 28.2823 17.9831C28.3518 17.356 28.3518 16.7638 28.3518 16.2412C28.3518 15.9625 28.3518 15.7187 28.3518 15.4748C28.3518 15.2309 28.317 14.9871 28.2823 14.7781C28.2475 14.36 28.1433 13.9768 28.1085 13.6633C28.039 13.3497 27.9695 13.1059 27.9348 12.9665C27.9 12.7923 27.8653 12.7227 27.8653 12.7227" fill="url(#paint4_linear_2862_327)"/>
<path d="M19.4573 4.84961C19.4573 4.84961 19.4573 4.98896 19.492 5.26766C19.492 5.40701 19.492 5.58119 19.5268 5.79021C19.5268 5.99924 19.5268 6.20826 19.5268 6.48696C19.5268 7.00952 19.492 7.63659 19.4225 8.33333C19.4225 8.50752 19.353 8.68171 19.3183 8.89073C19.3183 9.06492 19.2488 9.27394 19.2141 9.48296C19.1793 9.69198 19.1098 9.86617 19.0751 10.0752C19.0056 10.2842 18.9708 10.4932 18.9013 10.7023C18.6581 11.5384 18.3106 12.4441 17.8937 13.3847C17.4767 14.3253 16.9903 15.2659 16.4691 16.2414C15.9479 17.2168 15.3572 18.2271 14.836 19.2722C14.3148 20.2825 13.7936 21.2928 13.3071 22.3727C13.2376 22.0244 13.1681 21.676 13.0639 21.3276C12.8554 20.596 12.6122 19.9341 12.4037 19.4116C12.1952 18.889 12.0215 18.5755 12.0215 18.5755C12.0215 18.5755 12.1257 18.9239 12.2995 19.4464C12.4384 19.969 12.6122 20.7006 12.7164 21.3973C12.7859 21.7457 12.8207 22.1289 12.8207 22.4424C12.8207 22.6166 12.8207 22.7559 12.8207 22.9301C12.8207 22.9998 12.8207 23.0695 12.8207 23.1392C12.8207 23.2088 12.8207 23.2785 12.8207 23.3482C12.8207 23.4875 12.8207 23.592 12.7859 23.6966C12.7859 23.7314 12.7859 23.8011 12.7859 23.8359C12.7859 23.8707 12.7859 23.9056 12.7859 23.9404C12.7859 24.0101 12.7512 24.0798 12.7164 24.1146C12.7164 24.1494 12.7164 24.1843 12.7164 24.1843V24.2191V24.2888C12.5427 24.8462 12.4037 25.4036 12.2647 25.9958C12.0215 27.1803 11.9867 28.3647 12.1257 29.5144C12.1257 29.6537 12.1605 29.7931 12.1952 29.9324V30.0369V30.0718V30.1066L12.23 30.3505C12.23 30.4898 12.2995 30.6292 12.2995 30.7685C12.3342 30.9079 12.369 31.0472 12.4037 31.1866L12.4732 31.3956L12.5427 31.6046C12.5774 31.744 12.6122 31.8485 12.6817 31.9878C12.7859 32.2317 12.8554 32.4755 12.9944 32.7194C13.4461 33.6948 14.0368 34.4961 14.697 35.1232C15.3572 35.7502 16.0521 36.238 16.7123 36.5515C17.025 36.7257 17.3377 36.865 17.6505 36.9695C17.9632 37.074 18.2411 37.1786 18.4844 37.2482C19.0056 37.3876 19.3878 37.4573 19.6658 37.4921C19.9437 37.4921 20.0827 37.5269 20.0827 37.5269C20.0827 37.5269 19.9437 37.5269 19.6658 37.4573C19.3878 37.3876 19.0056 37.2831 18.5191 37.1089C18.0327 36.9347 17.442 36.6908 16.8513 36.3076C16.2258 35.9593 15.6004 35.4715 15.0097 34.8096C14.419 34.1826 13.8978 33.3813 13.5156 32.4755C13.4114 32.2665 13.3419 32.0226 13.2376 31.7788C13.2029 31.6394 13.1681 31.5349 13.1334 31.3956L13.0639 31.2214V31.0472C12.9944 30.9079 12.9596 30.8033 12.9249 30.664C12.9249 30.5247 12.8902 30.4201 12.8554 30.2808V30.0718C12.8207 30.0718 12.8207 30.0718 12.8207 30.0718C12.8207 30.0369 12.8207 29.9324 12.8207 29.9324C12.8207 29.7931 12.8207 29.6537 12.7859 29.5144V29.3053C12.7859 29.2357 12.7859 29.166 12.7859 29.0963C12.7859 28.957 12.7859 28.8176 12.7859 28.6783V28.4693V28.2602C12.7859 28.1209 12.7859 27.9815 12.7859 27.8422C12.7859 27.7028 12.7859 27.5635 12.7859 27.4241C12.7859 27.2848 12.7859 27.1454 12.8207 27.0061C12.8554 26.7274 12.9249 26.4487 12.9596 26.17C13.0639 25.6823 13.1681 25.2294 13.3419 24.7417C13.3419 24.7417 13.4114 24.672 13.4114 24.6372C13.4114 24.6372 13.4808 24.5326 13.5503 24.3585C13.5851 24.2888 13.6546 24.1843 13.7241 24.0798C13.7936 23.9753 13.8631 23.8359 13.9673 23.6966C14.0715 23.5572 14.1758 23.4179 14.3148 23.2785C14.4538 23.1392 14.5927 22.9998 14.7317 22.8256C14.8707 22.6863 15.0444 22.5469 15.2182 22.4076C15.3919 22.2682 15.5656 22.1289 15.7741 21.9895C16.5386 21.467 17.3725 21.0489 18.0327 20.8051C18.6929 20.5612 19.1446 20.4567 19.1446 20.4567C19.1446 20.4567 18.6929 20.5264 17.9979 20.7006C17.3377 20.8747 16.4343 21.2231 15.6004 21.676C15.3919 21.7805 15.1834 21.9199 15.0097 22.0592C14.8012 22.1985 14.6275 22.3379 14.4538 22.4772C14.3148 22.5818 14.2105 22.6863 14.1063 22.7908C14.558 21.7457 15.0444 20.7354 15.6004 19.7251C16.1563 18.68 16.6775 17.6697 17.1987 16.6943C17.7199 15.684 18.1717 14.7085 18.5539 13.7679C18.9361 12.7925 19.2488 11.8867 19.4573 10.981C19.6658 10.11 19.77 9.27394 19.8395 8.54236C19.8395 8.36817 19.8395 8.19398 19.8395 8.0198C19.8395 7.95012 19.8395 7.84561 19.8395 7.77594C19.8395 7.70626 19.8395 7.60175 19.8395 7.53208C19.8395 7.35789 19.8395 7.21854 19.8395 7.07919C19.8395 7.00952 19.8395 6.93984 19.8395 6.87017C19.8395 6.80049 19.8395 6.73082 19.8395 6.66115C19.8395 6.41729 19.8047 6.17342 19.77 5.9644C19.77 5.75538 19.7005 5.58119 19.7005 5.44184C19.6658 5.16314 19.631 5.0238 19.631 5.0238" fill="url(#paint5_linear_2862_327)"/>
<defs>
<linearGradient id="paint0_linear_2862_327" x1="9.41474" y1="39.6173" x2="9.41474" y2="3.59562" gradientUnits="userSpaceOnUse">
<stop stop-color="#F04B39"/>
<stop offset="0.2" stop-color="#F36A2F"/>
<stop offset="0.4" stop-color="#F58227"/>
<stop offset="0.6" stop-color="#F79321"/>
<stop offset="0.8" stop-color="#F89D1E"/>
<stop offset="1" stop-color="#F9A11D"/>
</linearGradient>
<linearGradient id="paint1_linear_2862_327" x1="26.0939" y1="39.6172" x2="26.0939" y2="3.59546" gradientUnits="userSpaceOnUse">
<stop stop-color="#F04B39"/>
<stop offset="0.2" stop-color="#F36A2F"/>
<stop offset="0.4" stop-color="#F58227"/>
<stop offset="0.6" stop-color="#F79321"/>
<stop offset="0.8" stop-color="#F89D1E"/>
<stop offset="1" stop-color="#F9A11D"/>
</linearGradient>
<linearGradient id="paint2_linear_2862_327" x1="16.6773" y1="39.6522" x2="16.6773" y2="0.00746712" gradientUnits="userSpaceOnUse">
<stop stop-color="#EE3741"/>
<stop offset="1" stop-color="#F9A11D"/>
</linearGradient>
<linearGradient id="paint3_linear_2862_327" x1="6.85687" y1="41.8399" x2="6.85687" y2="5.81818" gradientUnits="userSpaceOnUse">
<stop stop-color="#CA373A"/>
<stop offset="0.2" stop-color="#CD5531"/>
<stop offset="0.4" stop-color="#CF6D2A"/>
<stop offset="0.5" stop-color="#D07E25"/>
<stop offset="0.8" stop-color="#D18821"/>
<stop offset="1" stop-color="#D28C21"/>
</linearGradient>
<linearGradient id="paint4_linear_2862_327" x1="23.5359" y1="41.8396" x2="23.5359" y2="5.81792" gradientUnits="userSpaceOnUse">
<stop stop-color="#CA373A"/>
<stop offset="0.2" stop-color="#CD5531"/>
<stop offset="0.4" stop-color="#CF6D2A"/>
<stop offset="0.5" stop-color="#D07E25"/>
<stop offset="0.8" stop-color="#D18821"/>
<stop offset="1" stop-color="#D28C21"/>
</linearGradient>
<linearGradient id="paint5_linear_2862_327" x1="-1.65135" y1="62.2544" x2="-1.65135" y2="22.5748" gradientUnits="userSpaceOnUse">
<stop stop-color="#AE2D36"/>
<stop offset="1" stop-color="#B47D20"/>
</linearGradient>
</defs>
</svg>
