<svg width="48" height="48" viewBox="0 0 48 48" fill="none" xmlns="http://www.w3.org/2000/svg">
<path d="M24 4.84766V6.20366" stroke="#003764" stroke-width="1.5" stroke-miterlimit="10" stroke-linecap="round"/>
<path d="M23.9991 25.8838V40.1638C23.9991 41.6638 23.1831 43.1518 21.1431 43.1518C19.4271 43.1518 18.2871 41.9638 18.2871 40.2838V39.8878" stroke="#003764" stroke-width="1.5" stroke-miterlimit="10" stroke-linecap="round"/>
<path d="M8.57929 22.7878C6.94729 22.7878 5.49529 23.3158 4.55929 24.1558C4.15129 24.5158 3.53929 24.1918 3.61129 23.6398C4.90729 13.0798 13.5473 6.21582 24.0113 6.21582C34.4753 6.21582 43.1033 13.0678 44.4113 23.6398C44.4833 24.1918 43.8713 24.5158 43.4633 24.1558C42.5273 23.3278 41.0753 22.7878 39.4433 22.7878C37.3793 22.7878 35.5913 23.6518 34.7753 24.8878C34.5353 25.2478 34.0673 25.2478 33.8273 24.8878C33.0113 23.6518 31.2233 22.7878 29.1593 22.7878C27.0953 22.7878 25.3073 23.6518 24.4913 24.8878C24.2513 25.2478 23.7833 25.2478 23.5433 24.8878C22.7273 23.6518 20.9393 22.7878 18.8753 22.7878C16.8113 22.7878 15.0233 23.6518 14.2073 24.8878C13.9673 25.2478 13.4993 25.2478 13.2593 24.8878C12.4433 23.6518 10.6553 22.7878 8.59129 22.7878H8.57929Z" stroke="#003764" stroke-width="1.5" stroke-miterlimit="10"/>
<path d="M34.296 25.1521C34.296 16.2721 30.204 8.9881 23.916 6.2041" stroke="#003764" stroke-width="1.5" stroke-miterlimit="10"/>
<path d="M13.5469 24.4432C13.5469 15.9472 17.6389 8.98724 23.9149 6.32324" stroke="#003764" stroke-width="1.5" stroke-miterlimit="10"/>
<path d="M24 6.2041V25.1521" stroke="#003764" stroke-width="1.5" stroke-miterlimit="10" stroke-linecap="round"/>
</svg>
