<svg width="48" height="48" viewBox="0 0 48 48" fill="none" xmlns="http://www.w3.org/2000/svg">
<path d="M34.3206 43.8952C40.219 43.8952 45.0006 39.1136 45.0006 33.2152C45.0006 27.3168 40.219 22.5352 34.3206 22.5352C28.4222 22.5352 23.6406 27.3168 23.6406 33.2152C23.6406 39.1136 28.4222 43.8952 34.3206 43.8952Z" stroke="#003764" stroke-width="1.5" stroke-linecap="round" stroke-linejoin="round"/>
<path d="M31.584 36.2873C32.136 37.2713 33.204 37.8473 34.32 37.7753C35.832 37.7753 37.056 36.7433 37.056 35.4593C37.056 31.7753 31.752 33.8633 31.752 30.7193C31.752 29.5673 32.868 28.6433 34.236 28.6433C35.1 28.5953 35.94 28.9193 36.552 29.5313" stroke="#003764" stroke-width="1.5" stroke-miterlimit="10" stroke-linecap="round"/>
<path d="M34.3203 26.3633V28.6553" stroke="#003764" stroke-width="1.5" stroke-miterlimit="10" stroke-linecap="round"/>
<path d="M34.3203 37.7754V40.0554" stroke="#003764" stroke-width="1.5" stroke-linecap="round" stroke-linejoin="round"/>
<path d="M14.5326 19.5715C12.9366 18.5155 11.8926 16.6915 11.8926 14.6395V10.0315C11.8926 6.75552 14.5446 4.10352 17.8206 4.10352C21.0966 4.10352 23.7486 6.75552 23.7486 10.0315V14.6395C23.7486 17.9155 21.0966 20.5675 17.8206 20.5675C17.8206 20.5675 16.2606 20.6995 15.1926 19.9915L14.5326 19.5835V19.5715Z" stroke="#003764" stroke-width="1.5" stroke-linecap="round" stroke-linejoin="round"/>
<path d="M24.6 38.2555H3V31.4755C3 29.3155 4.332 27.3835 6.348 26.6275L14.844 23.1355V19.8115" stroke="#003764" stroke-width="1.5" stroke-linecap="round" stroke-linejoin="round"/>
<path d="M20.7715 19.7393V23.0753L26.6155 25.4993" stroke="#003764" stroke-width="1.5" stroke-linecap="round" stroke-linejoin="round"/>
<path d="M22.6318 24.3838C21.8278 26.2798 19.9558 27.5998 17.7718 27.5998C15.5878 27.5998 13.8478 26.3638 13.0078 24.5878" stroke="#003764" stroke-width="1.5" stroke-linecap="round" stroke-linejoin="round"/>
</svg>
