<svg width="165" height="44" viewBox="0 0 165 44" fill="none" xmlns="http://www.w3.org/2000/svg">
<path fill-rule="evenodd" clip-rule="evenodd" d="M98.8936 31.1631C100.036 31.1631 101.293 31.4304 102.131 31.9268C102.969 32.4231 103.35 33.225 103.35 34.2939V40.8223C103.35 41.0132 103.388 41.1667 103.464 41.2812C103.54 41.3955 103.731 41.4717 103.959 41.4717H104.264C104.378 41.4717 104.492 41.4717 104.606 41.4336V42.8457C104.302 42.922 104.073 42.9989 103.921 42.999H103.273C102.626 42.999 102.131 42.7697 101.826 42.3115C101.674 42.0825 101.56 41.701 101.483 41.2812C101.103 41.7775 100.531 42.2355 99.8076 42.6172C99.0843 42.9989 98.2848 43.1894 97.4092 43.1895C96.5334 43.1895 95.5048 42.8843 94.8193 42.2354C94.172 41.5863 93.8291 40.7845 93.8291 39.8301C93.8291 38.8756 94.172 37.9594 94.8193 37.3867C95.4667 36.814 96.3429 36.4319 97.4092 36.3174L100.455 35.9355H100.531C100.95 35.8974 101.255 35.7067 101.407 35.4014C101.483 35.2487 101.521 34.9812 101.521 34.6758C101.521 34.0267 101.293 33.53 100.836 33.2627C100.379 32.9573 99.7312 32.8047 98.8555 32.8047C97.9799 32.8048 97.1426 33.0722 96.7617 33.6064C96.5332 33.9119 96.3808 34.3325 96.3047 34.9434H94.5146C94.5146 33.5307 95.0099 32.5756 95.8857 32.0029C96.7615 31.4685 97.7514 31.1631 98.8936 31.1631ZM101.521 37.043C101.293 37.1957 100.988 37.3103 100.607 37.4248C100.227 37.5393 99.8837 37.577 99.541 37.6533L98.3984 37.8066C97.7133 37.883 97.1806 38.0358 96.8379 38.2266C96.2667 38.5702 95.9619 39.1047 95.9619 39.8301C95.9619 40.5554 96.1524 40.8225 96.5713 41.1279L96.5332 41.0898C96.9519 41.3951 97.4086 41.5478 97.9795 41.5479C98.5507 41.5479 99.3126 41.3952 99.9219 41.0898C100.988 40.5554 101.521 39.7155 101.521 38.5703V37.043Z" fill="white"/>
<path fill-rule="evenodd" clip-rule="evenodd" d="M136.022 31.1631C137.165 31.1631 138.422 31.4304 139.26 31.9268C140.097 32.4231 140.479 33.225 140.479 34.2939V40.8223C140.479 41.0132 140.516 41.1667 140.592 41.2812C140.668 41.3957 140.859 41.4716 141.087 41.4717H141.392C141.506 41.4717 141.62 41.4717 141.734 41.4336V42.8457C141.43 42.922 141.201 42.999 141.049 42.999H140.402C139.755 42.999 139.26 42.7696 138.955 42.3115C138.803 42.0825 138.688 41.701 138.612 41.2812C138.231 41.7775 137.66 42.2354 136.937 42.6172C136.213 42.999 135.413 43.1895 134.537 43.1895C133.661 43.1894 132.634 42.8842 131.948 42.2354C131.301 41.5863 130.958 40.7845 130.958 39.8301C130.958 38.8756 131.301 37.9594 131.948 37.3867C132.596 36.8141 133.471 36.432 134.537 36.3174L137.584 35.9355H137.66C138.079 35.8974 138.384 35.7067 138.536 35.4014C138.612 35.2487 138.65 34.9812 138.65 34.6758C138.65 34.0267 138.422 33.53 137.965 33.2627C137.508 32.9573 136.86 32.8047 135.984 32.8047C135.109 32.8047 134.27 33.072 133.89 33.6064C133.661 33.9119 133.509 34.3325 133.433 34.9434H131.644C131.644 33.5307 132.139 32.5756 133.015 32.0029C133.89 31.4686 134.88 31.1631 136.022 31.1631ZM138.65 37.043C138.422 37.1957 138.117 37.3103 137.736 37.4248C137.356 37.5393 137.013 37.577 136.67 37.6533L135.527 37.8066C134.842 37.883 134.309 38.0357 133.966 38.2266C133.395 38.5702 133.091 39.1048 133.091 39.8301C133.091 40.5552 133.281 40.8226 133.699 41.1279L133.661 41.0898C134.08 41.3952 134.537 41.5478 135.108 41.5479C135.68 41.5479 136.441 41.3953 137.051 41.0898C138.117 40.5554 138.65 39.7155 138.65 38.5703V37.043Z" fill="white"/>
<path d="M66.4873 38.9902C66.4873 39.5627 66.5636 40.0588 66.7539 40.4023C67.0966 41.0896 67.7062 41.4336 68.582 41.4336C69.8765 41.4335 70.7521 40.8221 71.209 39.6387C71.4755 38.9897 71.5898 38.1118 71.5898 37.0049V31.4307H73.4941V42.8076H71.7041V41.1279C71.4756 41.5479 71.1709 41.9299 70.8281 42.2354C70.1047 42.846 69.2672 43.1132 68.2393 43.1133C66.6399 43.1133 65.5732 42.5789 65.002 41.4717C64.6973 40.899 64.5449 40.1352 64.5449 39.1426V31.4307H66.4873V38.9902Z" fill="white"/>
<path d="M84.5371 38.9902C84.5371 39.5626 84.6135 40.0588 84.8037 40.4023C85.1464 41.0896 85.756 41.4336 86.6318 41.4336C87.9266 41.4336 88.8028 40.8223 89.2598 39.6387C89.5262 38.9897 89.6406 38.1117 89.6406 37.0049V31.4307H91.5439V42.8076H89.7549V41.1279C89.5264 41.5479 89.2216 41.9299 88.8789 42.2354C88.1554 42.8462 87.3172 43.1133 86.2891 43.1133C84.6898 43.1133 83.624 42.5788 83.0527 41.4717C82.7481 40.899 82.5957 40.1353 82.5957 39.1426V31.4307H84.5371V38.9902Z" fill="white"/>
<path d="M78.9395 31.4307H80.7676V32.9961H78.9395V40.4023C78.9395 40.7841 79.0919 41.0514 79.3584 41.2041C79.5107 41.2805 79.7393 41.3193 80.082 41.3193H80.7676V42.8457C80.5391 42.9221 80.3105 42.9608 80.082 42.999C79.8535 42.999 79.5869 43.0371 79.3203 43.0371C78.4445 43.0371 77.8349 42.8078 77.4922 42.3496C77.1877 41.8916 76.9971 41.319 76.9971 40.5557V33.0342H75.4746V31.4688H76.9971V28.2617H78.9395V31.4307Z" fill="white"/>
<path d="M156.814 36.2412L161.689 31.4307H164.126L159.785 35.668L164.393 42.8076H161.955L158.376 37.043L156.814 38.5703V42.8457H154.986V27.1924H156.814V36.2412Z" fill="white"/>
<path d="M54.6064 40.3643L59.0615 27.1924H62.0693V42.7695H60.0518V29.6357L55.5957 42.7695H53.502L49.0078 29.6357V42.8076H46.9902V27.2305L47.1426 27.1924H50.1504L54.6064 40.3643Z" fill="white"/>
<path d="M108.262 42.7695H106.357V27.1924H108.262V42.7695Z" fill="white"/>
<path fill-rule="evenodd" clip-rule="evenodd" d="M124.027 27.1924C125.855 27.1924 127.15 27.7269 127.949 28.834C128.406 29.483 128.635 30.2089 128.635 31.0488C128.635 31.8887 128.368 32.8433 127.797 33.4541C127.492 33.7976 127.073 34.1029 126.54 34.3701C127.34 34.6756 127.949 35.0196 128.33 35.4014C129.015 36.0886 129.396 37.0048 129.396 38.2266C129.396 39.4482 129.092 40.1358 128.444 40.9375C127.492 42.159 126.007 42.7695 123.951 42.7695H117.325V27.1924H124.027ZM119.419 40.9756H123.989C125.284 40.9755 126.235 40.5934 126.769 39.8682C127.111 39.4101 127.302 38.8375 127.302 38.1504C127.302 37.0052 126.807 36.2413 125.779 35.8213C125.246 35.5922 124.522 35.4776 123.646 35.4775H119.419V40.9756ZM119.381 33.7598H123.266V33.7979C124.18 33.7978 124.865 33.6833 125.36 33.416C126.16 33.0342 126.54 32.308 126.54 31.3154C126.54 30.323 126.122 29.5975 125.284 29.2539C124.827 29.063 124.103 28.9482 123.189 28.9482H119.381V33.7598Z" fill="white"/>
<path d="M148.97 31.1631C150.569 31.1631 151.674 31.7356 152.245 32.8428C152.55 33.4537 152.702 34.3321 152.702 35.4775V42.7695H150.76V35.5918C150.76 34.9046 150.645 34.3321 150.455 33.9121C150.112 33.1867 149.503 32.8428 148.627 32.8428C147.752 32.8428 147.79 32.8817 147.523 32.9961C146.99 33.1488 146.533 33.454 146.152 33.9121C145.848 34.2939 145.619 34.6758 145.543 35.0576C145.429 35.4394 145.391 36.0119 145.391 36.7754V42.7314H143.486V31.4307H145.238V33.0342C145.771 32.3851 146.343 31.8884 146.952 31.583C147.561 31.2777 148.208 31.1631 148.97 31.1631Z" fill="white"/>
<path d="M143.486 31.4307H143.41L143.486 31.3535V31.4307Z" fill="white"/>
<path fill-rule="evenodd" clip-rule="evenodd" d="M100.836 9.28613C102.397 9.28613 101.902 9.36281 102.321 9.55371L102.283 9.47656C103.007 9.78198 103.578 10.3165 104.035 11.1182V9.47656H106.929V20.2822C106.929 21.7329 106.7 22.84 106.205 23.6035C105.367 24.9015 103.73 25.5127 101.331 25.5127C98.932 25.5127 98.703 25.2456 97.7891 24.6729C96.8752 24.1002 96.3808 23.2596 96.2666 22.1143H99.5029C99.5791 22.4578 99.7315 22.7252 99.9219 22.8779C100.227 23.1452 100.798 23.2979 101.521 23.2979C102.245 23.2978 103.312 22.9539 103.654 22.2285C103.883 21.7704 103.997 21.007 103.997 19.9004V19.1748C103.731 19.6711 103.388 20.015 103.083 20.2822C102.474 20.7404 101.712 20.9688 100.798 20.9688C99.3508 20.9687 98.1708 20.4722 97.2949 19.4414C96.4191 18.4106 96 17.0365 96 15.2803C96 13.524 96.4191 12.1493 97.2568 11.0039C98.0946 9.85874 99.2748 9.28615 100.836 9.28613ZM101.521 11.8057C100.76 11.8057 99.7695 12.3022 99.3887 13.2949C99.1983 13.8294 99.084 14.4786 99.084 15.2422C99.084 16.0055 99.1984 16.5018 99.4268 16.998C99.8456 17.9525 100.531 18.4492 101.598 18.4492C102.664 18.4492 102.893 18.182 103.35 17.6475H103.312C103.806 17.113 104.035 16.273 104.035 15.1279C104.035 13.9825 103.807 13.2182 103.35 12.6455C102.893 12.0729 102.283 11.8057 101.521 11.8057Z" fill="white"/>
<path fill-rule="evenodd" clip-rule="evenodd" d="M77.9111 9.13281C79.5867 9.13281 79.7775 9.32435 80.5771 9.66797L80.5391 9.70605C81.3387 10.0497 81.9864 10.6222 82.5195 11.3857C82.9764 12.0729 83.2803 12.8367 83.4326 13.7529C83.5088 14.2874 83.5469 15.0132 83.5469 16.0059H75.2842C75.3223 17.151 75.7405 17.953 76.4639 18.4111C76.9208 18.6784 77.4543 18.831 78.1016 18.8311C78.7488 18.8311 79.3204 18.6404 79.7393 18.2969C79.9677 18.106 80.1583 17.8386 80.3486 17.4951H83.3945C83.3182 18.1822 82.9382 18.8696 82.291 19.5566C81.2628 20.6639 79.8533 21.1982 78.0254 21.1982C76.1977 21.1982 75.1697 20.7396 74.0273 19.7852C72.885 18.8689 72.2754 17.342 72.2754 15.2422C72.2754 13.1423 72.8087 11.7673 73.8369 10.6982C74.865 9.62946 76.2359 9.13286 77.9111 9.13281ZM77.873 11.6152C77.1879 11.6153 76.5029 11.844 76.084 12.2637H76.1221C75.7032 12.6837 75.4365 13.2951 75.3223 14.0205H80.4248C80.3867 13.2187 80.12 12.6456 79.625 12.2256C79.13 11.8057 78.5584 11.6152 77.873 11.6152Z" fill="white"/>
<path fill-rule="evenodd" clip-rule="evenodd" d="M132.405 9.13281C134.08 9.13284 134.271 9.32441 135.07 9.66797L135.032 9.70605C135.832 10.0497 136.48 10.6222 137.013 11.3857C137.47 12.073 137.774 12.8367 137.927 13.7529C138.003 14.2874 138.041 15.0132 138.041 16.0059H129.777C129.815 17.1511 130.235 17.953 130.958 18.4111C131.415 18.6783 131.948 18.8311 132.596 18.8311C133.243 18.831 133.814 18.6402 134.232 18.2969C134.461 18.1061 134.651 17.8385 134.842 17.4951H137.889C137.812 18.1822 137.431 18.8695 136.784 19.5566C135.756 20.6637 134.347 21.1982 132.52 21.1982C130.692 21.1982 129.663 20.7397 128.521 19.7852C127.378 18.8688 126.769 17.3419 126.769 15.2422C126.769 13.1423 127.302 11.7673 128.33 10.6982C129.358 9.62928 130.73 9.13281 132.405 9.13281ZM132.329 11.6152C131.644 11.6152 130.958 11.8438 130.539 12.2637H130.577C130.158 12.6837 129.892 13.2951 129.777 14.0205H134.88C134.842 13.2187 134.575 12.6456 134.08 12.2256C133.623 11.8059 133.014 11.6153 132.329 11.6152Z" fill="white"/>
<path d="M150.912 9.13281C152.397 9.13281 153.502 9.40093 154.378 9.97363C155.253 10.5464 155.786 11.5389 155.9 12.9131H152.931C152.893 12.5315 152.778 12.2261 152.626 11.9971C152.283 11.5771 151.75 11.3857 150.95 11.3857C150.151 11.3857 149.846 11.5005 149.579 11.6914C149.313 11.8823 149.16 12.1116 149.16 12.417C149.16 12.7223 149.313 12.9899 149.617 13.1426C149.922 13.2953 150.95 13.5624 152.702 13.9824C153.882 14.2497 154.758 14.6696 155.367 15.2422C155.938 15.8148 156.243 16.54 156.243 17.3799C156.243 18.2198 155.824 19.4417 154.986 20.1289C154.149 20.8542 152.854 21.1982 151.103 21.1982C149.351 21.1982 147.98 20.8162 147.143 20.0527C146.305 19.2892 145.848 18.3348 145.848 17.1514H148.855L148.894 17.2275C148.97 17.762 149.084 18.144 149.312 18.373C149.693 18.7548 150.379 18.9834 151.369 18.9834C152.359 18.9834 152.436 18.9077 152.778 18.7168C153.121 18.526 153.311 18.2966 153.312 17.915C153.312 17.5334 153.159 17.3422 152.893 17.1514C152.626 16.9605 151.597 16.6925 149.77 16.2344C148.475 15.9289 147.561 15.5089 147.028 15.0508C146.495 14.5926 146.229 13.9056 146.229 12.9893C146.229 12.073 146.648 11.0419 147.447 10.2783C148.285 9.51499 149.427 9.13282 150.912 9.13281Z" fill="white"/>
<path d="M124.675 9.55371H126.502V11.6914H124.675V17.7236C124.675 18.1818 124.751 18.487 124.865 18.6016C124.979 18.7161 125.36 18.793 125.932 18.793H126.54V21.0068H125.132C123.723 21.1214 122.77 20.8547 122.275 20.3203C121.933 19.9767 121.78 19.442 121.78 18.7549V11.7295H120.181L120.143 11.6914V9.55371H121.742V6.38477H124.675V9.55371Z" fill="white"/>
<path d="M58.1094 8.2168H50.3408V11.7676H57.1572V14.4404H50.3408V20.8926H47.1426V5.50586H58.1094V8.2168Z" fill="white"/>
<path d="M71.7041 12.2637C71.5138 12.2637 71.3613 12.2638 71.209 12.2256H70.8662C69.686 12.2256 68.8867 12.6077 68.4678 13.4092C68.2393 13.8291 68.125 14.5165 68.125 15.4326V20.8926H65.1162V9.51465H67.9346V11.5C68.3914 10.7367 68.8106 10.2399 69.1152 9.93457C69.6863 9.47673 70.4097 9.24808 71.2852 9.24805H71.4375V9.20996H71.7041V12.2637Z" fill="white"/>
<path d="M145.391 12.2637C145.2 12.2637 145.048 12.2638 144.896 12.2256H144.553C143.372 12.2256 142.572 12.6075 142.153 13.4092C141.925 13.8291 141.811 14.5165 141.811 15.4326V20.8926H138.803V9.51465H141.62V11.5C142.077 10.7365 142.496 10.24 142.801 9.93457C143.372 9.47648 144.096 9.24805 144.972 9.24805H145.124V9.20996H145.391V12.2637Z" fill="white"/>
<path d="M62.7549 20.8545H59.7471V9.47656H62.7549V20.8545Z" fill="white"/>
<path d="M94.4766 20.8545H91.4678V9.47656H94.4766V20.8545Z" fill="white"/>
<path d="M111.993 10.9277C112.412 10.2788 112.907 9.821 113.479 9.55371C114.05 9.28646 114.621 9.17188 115.269 9.17188C115.916 9.17188 116.602 9.28645 117.173 9.55371C117.744 9.78281 118.201 10.1639 118.582 10.6602C118.887 11.0801 119.076 11.539 119.152 11.959C119.228 12.4171 119.267 13.1423 119.267 14.1729V20.8545H116.221V13.9053C116.221 13.2947 116.106 12.7987 115.916 12.417C115.649 11.8825 115.154 11.6152 114.393 11.6152C113.631 11.6153 113.021 11.8825 112.603 12.417C112.184 12.9514 111.993 13.6767 111.993 14.6689V20.8545H109.023V5.50586H111.993V10.9277Z" fill="white"/>
<path d="M89.4502 5.31543C89.6025 5.31543 89.7932 5.31536 90.0596 5.35352V7.75879C89.9073 7.75879 89.6023 7.75885 89.2217 7.7207C88.8409 7.7207 88.5742 7.79738 88.4219 7.98828C88.2697 8.1791 88.1934 8.36967 88.1934 8.59863V9.55371H90.1357V11.6533H88.1934V20.8164H85.2607V11.6533H83.585V9.55371H85.2227V8.82812C85.2227 7.60637 85.4131 6.76578 85.832 6.30762C86.251 5.6205 87.3177 5.27734 88.9551 5.27734H89.4502V5.31543Z" fill="white"/>
<path d="M62.7549 8.10254H59.7471V5.35352H62.7549V8.10254Z" fill="white"/>
<path d="M94.5146 8.10254H91.5059V5.35352H94.5146V8.10254Z" fill="white"/>
<path d="M7.27164 33.1095C6.01498 25.2444 12.3745 17.4557 16.1825 9.93425C14.3927 3.10004 9.55649 2.52734 9.55649 2.52734C10.8131 10.2015 -1.82965 15.814 0.226707 28.5279C1.78802 38.2637 10.9274 44.8689 20.638 43.3035V43.189C11.4986 44.678 7.95709 37.3474 7.27164 33.1095Z" fill="url(#paint0_linear_2308_7126)"/>
<path d="M35.3756 22.8021C35.6422 24.482 35.6803 26.1619 35.4899 27.7655C34.9567 32.2325 32.748 36.2796 29.435 39.1813C25.7412 39.754 22.8851 36.7378 21.9331 33.1107C21.857 32.8052 21.7808 32.4998 21.7427 32.1562C20.8288 26.5819 25.3223 23.6421 26.6551 17.7242C26.8075 17.6096 26.9979 17.4569 27.1121 17.3424C27.5691 16.8842 27.9118 16.3879 28.1784 15.8534C29.5112 12.9899 28.3307 9.17188 28.3307 9.17188C31.9103 11.7681 34.3094 16.3497 35.3375 22.8403L35.3756 22.8021Z" fill="url(#paint1_linear_2308_7126)"/>
<path d="M18.7725 0.00818457C18.7725 0.122724 18.7725 0.237263 18.7725 0.351803C18.7725 0.809962 18.7725 1.22994 18.7725 1.6881C18.5821 4.39887 17.5539 7.14783 16.1449 9.93496C12.3368 17.4564 5.97735 25.2451 7.23402 33.1102C7.91947 37.31 11.461 44.755 20.6004 43.266C23.9895 42.7315 26.9979 41.2425 29.397 39.1426C25.3985 39.7535 22.3521 36.1264 21.7047 32.1175C20.7908 26.5432 25.2843 23.6034 26.6171 17.6855C26.8837 16.5401 27.036 15.2802 26.9979 13.8675C26.9979 13.0657 26.8837 12.1876 26.7694 11.2713C25.4366 2.94804 21.0573 -0.182715 18.7725 0.00818457Z" fill="url(#paint2_linear_2308_7126)"/>
<path d="M10.9282 4.74219C10.9282 4.74219 10.9282 4.74219 10.9663 4.85673C10.9663 4.93309 11.0424 5.00945 11.1186 5.16217C11.2328 5.42943 11.3852 5.8494 11.4613 6.38392C11.5375 6.65118 11.5375 6.95662 11.5756 7.26206C11.5756 7.41478 11.5756 7.60568 11.5756 7.7584C11.5756 7.83476 11.5756 7.9493 11.5756 8.02566C11.5756 8.10202 11.5756 8.21656 11.5756 8.29292C11.5756 8.48382 11.5756 8.67472 11.5756 8.86562C11.5756 9.05652 11.4994 9.24742 11.4994 9.4765C11.4613 9.89648 11.3471 10.3165 11.2328 10.7746C11.1948 11.0037 11.1186 11.2328 11.0424 11.4619C10.9663 11.6909 10.8901 11.92 10.8139 12.1491C10.7378 12.3782 10.6235 12.6073 10.5474 12.8363C10.5093 12.9509 10.4712 13.0654 10.3951 13.18C10.357 13.2945 10.3189 13.409 10.2427 13.5236C10.1285 13.7527 10.0143 14.0199 9.90001 14.249C9.78577 14.4781 9.67153 14.7453 9.5192 14.9744C9.36688 15.2035 9.25264 15.4707 9.10031 15.6998C8.94799 15.9289 8.83375 16.1962 8.68143 16.4252C8.45294 16.807 8.18638 17.1507 7.95789 17.5325C7.95789 17.3416 7.95789 17.1507 7.95789 16.9598C7.95789 16.7689 7.91981 16.578 7.88173 16.3871C7.72941 15.6235 7.46285 14.898 7.23436 14.3635C7.00588 13.829 6.77739 13.5236 6.77739 13.5236C6.77739 13.5236 6.96779 13.8672 7.12012 14.4017C7.31052 14.9362 7.50092 15.6998 7.57709 16.4252C7.57709 16.6161 7.57709 16.807 7.57709 16.9979C7.57709 17.1888 7.57709 17.3416 7.57709 17.5325C7.57709 17.6088 7.57709 17.6852 7.57709 17.7997C7.57709 17.8761 7.57709 17.9524 7.539 18.0288C7.539 18.1052 7.53901 18.1815 7.46284 18.2579C7.46284 18.3342 7.42476 18.4106 7.38668 18.4488C7.38668 18.5633 7.31052 18.6397 7.27244 18.716C7.27244 18.7542 7.19628 18.8306 7.19628 18.8688C7.19628 18.9069 7.19628 18.9451 7.19628 18.9451C7.19628 18.9833 7.1582 19.0215 7.1582 19.0597C7.08204 19.2124 7.00587 19.2887 7.00587 19.2887C6.96779 19.4033 6.89163 19.4796 6.85355 19.5942C6.28234 20.7014 5.86345 21.9232 5.59689 23.1831C5.3684 24.443 5.29224 25.703 5.3684 26.9629C5.44457 28.2228 5.71113 29.4064 6.01578 30.5518C6.3585 31.6972 6.77739 32.7281 7.27244 33.7207C7.3486 33.8735 7.46284 34.0644 7.539 34.2171C7.46284 33.8353 7.38668 33.4917 7.31052 33.148C7.31052 32.919 7.23436 32.6899 7.23436 32.4608C6.9678 31.8118 6.73931 31.1245 6.54891 30.3991C6.24426 29.2919 6.05386 28.1083 5.9777 26.9247C5.90153 25.7411 5.97769 24.5194 6.20618 23.2976C6.43466 22.1141 6.85355 20.9305 7.38668 19.8614C7.42476 19.7851 7.46284 19.7087 7.539 19.5942C7.539 19.5942 7.53901 19.5178 7.65325 19.4033C7.65325 19.3269 7.72941 19.2887 7.72941 19.2124V19.1742C7.72941 19.136 7.72941 19.0597 7.72941 19.0597C7.84365 18.8688 7.99597 18.6397 8.11022 18.4488C8.1483 18.3724 8.22446 18.2961 8.30062 18.2197C8.37678 18.1052 8.49102 17.9906 8.60527 17.8761C8.64335 17.8379 8.71951 17.7615 8.75759 17.7234C8.83375 17.6852 8.87183 17.6088 8.94799 17.5706C9.06224 17.4561 9.21456 17.3797 9.3288 17.2652C9.48112 17.1507 9.59537 17.0743 9.74769 16.9979C9.90001 16.9216 10.0523 16.8452 10.1666 16.7689C10.3189 16.6925 10.4331 16.6543 10.5855 16.578C10.6997 16.5016 10.852 16.5016 10.9663 16.4252C11.0805 16.3871 11.1948 16.3489 11.309 16.3107C11.4232 16.3107 11.4994 16.2725 11.5756 16.2343C11.7279 16.2343 11.804 16.1962 11.804 16.1962C11.804 16.1962 11.7279 16.1962 11.5756 16.1962C11.4994 16.1962 11.4232 16.1962 11.309 16.1962C11.1948 16.1962 11.0805 16.2343 10.9663 16.2725C10.852 16.2725 10.6997 16.3107 10.5474 16.3871C10.3951 16.4252 10.2427 16.4634 10.0904 16.5398C9.93809 16.6161 9.78577 16.6543 9.63344 16.7307C9.48112 16.807 9.3288 16.8834 9.17648 16.9598C9.10032 16.9979 9.02415 17.0361 8.94799 17.0743C9.02415 16.9598 9.10032 16.8452 9.17648 16.7307C9.3288 16.5016 9.48112 16.2343 9.59536 15.9671C9.74769 15.6998 9.86193 15.4707 10.0143 15.2035C10.1666 14.9744 10.2427 14.7071 10.357 14.4399C10.4712 14.1726 10.5855 13.9435 10.6997 13.6763C10.7759 13.5617 10.8139 13.409 10.852 13.2945C10.8901 13.1799 10.9282 13.0272 11.0044 12.9127C11.0805 12.6836 11.1948 12.4164 11.2709 12.1873C11.3471 11.9582 11.3852 11.6909 11.4613 11.4619C11.5375 11.2328 11.6136 11.0037 11.6517 10.7746C11.7279 10.3165 11.8421 9.8583 11.8802 9.43832C11.8802 9.20924 11.9183 9.01834 11.9183 8.82744C11.9183 8.63654 11.9183 8.40746 11.9183 8.21656C11.9183 8.10202 11.9183 8.02566 11.9183 7.9493C11.9183 7.87294 11.9183 7.7584 11.9183 7.68204C11.9183 7.49114 11.9183 7.33842 11.8802 7.1857C11.8421 6.84208 11.804 6.57482 11.7279 6.30757C11.6136 5.77305 11.4232 5.39125 11.309 5.12399C11.2328 5.00945 11.1948 4.89491 11.1567 4.81855C11.1186 4.74219 11.0805 4.74219 11.0805 4.74219" fill="url(#paint3_linear_2308_7126)"/>
<path d="M30.5779 13.9434C30.5779 13.9434 30.6541 14.3252 30.7303 15.0124C30.7683 15.356 30.8064 15.776 30.8064 16.2342C30.8064 16.6923 30.8064 17.2268 30.8064 17.7995C30.8064 18.3722 30.7303 19.0213 30.616 19.6703C30.5398 20.3194 30.3875 21.0066 30.1971 21.6939C30.0067 22.3811 29.8163 23.1065 29.5117 23.7938C29.2451 24.5192 28.9405 25.2064 28.5977 25.8937C28.4073 26.2373 28.255 26.5809 28.0265 26.8864C27.9123 27.0391 27.8361 27.23 27.7219 27.3827C27.6076 27.5354 27.5315 27.7263 27.4172 27.879C27.303 28.0317 27.1887 28.1845 27.1126 28.3372L26.9603 28.5663C26.9603 28.4899 26.9603 28.4135 26.9603 28.3372C26.9603 28.1845 26.9603 27.9936 26.9603 27.8408C26.9603 27.65 26.9222 27.4972 26.8841 27.3063C26.7318 26.6191 26.4652 25.97 26.2367 25.5119C26.0082 25.0537 25.8178 24.7483 25.8178 24.7483C25.8178 24.7483 25.9702 25.0537 26.1606 25.5501C26.351 26.0464 26.5414 26.6955 26.6175 27.3445C26.6175 27.4972 26.6175 27.6881 26.6175 27.8408C26.6175 27.9936 26.6175 28.1845 26.6175 28.3372C26.6175 28.4899 26.5795 28.6426 26.5414 28.7572C26.5414 28.9099 26.4652 29.0244 26.4271 29.139C26.4271 29.1771 26.3891 29.2535 26.351 29.2917C26.351 29.3299 26.3129 29.368 26.2748 29.4062C26.1986 29.4826 26.1606 29.5589 26.0844 29.6353C25.8559 29.9026 25.6274 30.1698 25.399 30.4371C25.1705 30.7043 24.942 30.9334 24.7135 31.2007C24.485 31.4298 24.2565 31.6588 24.028 31.8879C23.9138 32.0025 23.7996 32.117 23.7234 32.2315C23.6092 32.3461 23.4949 32.4224 23.3807 32.537C23.1522 32.7279 22.9618 32.9188 22.7714 33.1097C22.581 33.3006 22.3906 33.4533 22.2002 33.606C22.124 33.6442 22.0859 33.7206 22.0098 33.7587C22.0098 33.8351 22.0478 33.9115 22.0859 33.9878C22.1621 33.9115 22.2383 33.8733 22.3525 33.7969C22.5429 33.6442 22.7714 33.5297 22.9618 33.3388C23.1522 33.186 23.3807 32.9951 23.6092 32.8042C23.7234 32.7279 23.8376 32.6133 23.9519 32.537C24.0661 32.4224 24.1804 32.3461 24.2946 32.2315C24.5231 32.0025 24.7897 31.8116 25.0181 31.5825C25.2466 31.3534 25.5132 31.0861 25.7417 30.8571C25.9702 30.5898 26.2367 30.3225 26.4652 30.0553C26.9222 29.5208 27.3791 28.9481 27.798 28.3372L27.8742 28.2608C28.0265 28.1081 28.1788 27.9554 28.3312 27.8027C28.4835 27.6499 28.6739 27.4972 28.8643 27.3445C29.0547 27.1918 29.2451 27.0773 29.4355 26.9245C29.664 26.81 29.8544 26.6955 30.0829 26.5809C30.3114 26.4664 30.5018 26.39 30.7303 26.3137C30.9587 26.2373 31.1491 26.1609 31.3395 26.1228C31.53 26.0846 31.7204 26.0464 31.9108 26.0082C32.1012 26.0082 32.2535 25.97 32.4058 25.9319C32.5581 25.9319 32.6724 25.9319 32.7866 25.9319C32.7866 25.9319 32.7485 25.9319 32.7104 25.9319C32.6724 25.9319 32.7105 25.9319 32.6724 25.9319C32.6724 25.9319 32.6724 25.9319 32.6343 25.9319C32.5581 25.9319 32.482 25.9319 32.4058 25.9319C32.2535 25.9319 32.1012 25.9319 31.9108 25.97C31.7204 25.97 31.53 26.0464 31.3395 26.0464C31.1491 26.0846 30.9207 26.1228 30.6922 26.1991C30.4637 26.2755 30.2352 26.3518 30.0067 26.4282C29.7782 26.5046 29.5498 26.6191 29.3213 26.7336C29.0928 26.8482 28.9024 26.9627 28.6739 27.1154C28.5977 27.1536 28.5216 27.23 28.4454 27.2682V27.1918C28.6739 26.8482 28.8643 26.5046 29.0547 26.1609C29.3974 25.4355 29.7402 24.7483 30.0067 23.9847C30.2733 23.2593 30.4637 22.4957 30.6541 21.8084C30.8064 21.083 30.9207 20.3576 30.9968 19.7085C31.073 19.0213 31.073 18.3722 31.073 17.7995C31.073 17.4941 31.073 17.2268 31.073 16.9596C31.073 16.6923 31.0349 16.4251 30.9968 16.196C30.9587 15.7378 30.8445 15.3178 30.8064 14.9742C30.7303 14.6306 30.6541 14.3633 30.616 14.2106C30.5779 14.0197 30.5398 13.9434 30.5398 13.9434" fill="url(#paint4_linear_2308_7126)"/>
<path d="M21.3231 5.31445C21.3231 5.31445 21.3231 5.46717 21.3612 5.77261C21.3612 5.92533 21.3612 6.11623 21.3993 6.34531C21.3993 6.57439 21.3993 6.80347 21.3993 7.10891C21.3993 7.68161 21.3612 8.36885 21.285 9.13244C21.285 9.32334 21.2089 9.51424 21.1708 9.74332C21.1708 9.93422 21.0946 10.1633 21.0565 10.3924C21.0185 10.6215 20.9423 10.8124 20.9042 11.0414C20.8281 11.2705 20.79 11.4996 20.7138 11.7287C20.4472 12.645 20.0664 13.6377 19.6095 14.6685C19.1525 15.6994 18.6194 16.7302 18.0482 17.7993C17.4769 18.8683 16.8296 19.9755 16.2584 21.1209C15.6872 22.2282 15.1159 23.3354 14.5828 24.519C14.5067 24.1372 14.4305 23.7554 14.3163 23.3736C14.0878 22.5718 13.8212 21.8464 13.5927 21.2737C13.3642 20.701 13.1738 20.3573 13.1738 20.3573C13.1738 20.3573 13.2881 20.7391 13.4785 21.3118C13.6308 21.8845 13.8212 22.6863 13.9354 23.4499C14.0116 23.8317 14.0497 24.2517 14.0497 24.5953C14.0497 24.7862 14.0497 24.9389 14.0497 25.1298C14.0497 25.2062 14.0497 25.2826 14.0497 25.3589C14.0497 25.4353 14.0497 25.5116 14.0497 25.588C14.0497 25.7407 14.0497 25.8552 14.0116 25.9698C14.0116 26.008 14.0116 26.0843 14.0116 26.1225C14.0116 26.1607 14.0116 26.1989 14.0116 26.237C14.0116 26.3134 13.9735 26.3898 13.9354 26.4279C13.9354 26.4661 13.9354 26.5043 13.9354 26.5043V26.5425V26.6188C13.745 27.2297 13.5927 27.8406 13.4404 28.4897C13.1738 29.7878 13.1357 31.0859 13.2881 32.3458C13.2881 32.4986 13.3262 32.6513 13.3642 32.804V32.9185V32.9567V32.9949L13.4023 33.2621C13.4023 33.4149 13.4785 33.5676 13.4785 33.7203C13.5166 33.873 13.5546 34.0258 13.5927 34.1785L13.6689 34.4075L13.745 34.6366C13.7831 34.7893 13.8212 34.9039 13.8974 35.0566C14.0116 35.3239 14.0878 35.5911 14.2401 35.8584C14.7351 36.9274 15.3825 37.8056 16.106 38.4928C16.8296 39.18 17.5912 39.7146 18.3147 40.0582C18.6575 40.2491 19.0002 40.4018 19.3429 40.5163C19.6856 40.6309 19.9903 40.7454 20.2568 40.8218C20.8281 40.9745 21.2469 41.0509 21.5516 41.089C21.8562 41.089 22.0086 41.1272 22.0086 41.1272C22.0086 41.1272 21.8562 41.1272 21.5516 41.0508C21.2469 40.9745 20.8281 40.86 20.2949 40.6691C19.7618 40.4782 19.1144 40.2109 18.4671 39.7909C17.7816 39.4091 17.0961 38.8746 16.4488 38.1492C15.8014 37.4619 15.2302 36.5838 14.8113 35.5911C14.6971 35.362 14.6209 35.0948 14.5067 34.8275C14.4686 34.6748 14.4305 34.5603 14.3924 34.4075L14.3163 34.2166V34.0257C14.2401 33.873 14.202 33.7585 14.1639 33.6058C14.1639 33.4531 14.1258 33.3385 14.0878 33.1858V32.9567C14.0497 32.9567 14.0497 32.9567 14.0497 32.9567C14.0497 32.9185 14.0497 32.804 14.0497 32.804C14.0497 32.6513 14.0497 32.4986 14.0116 32.3458V32.1168C14.0116 32.0404 14.0116 31.964 14.0116 31.8877C14.0116 31.735 14.0116 31.5822 14.0116 31.4295V31.2004V30.9714C14.0116 30.8186 14.0116 30.6659 14.0116 30.5132C14.0116 30.3605 14.0116 30.2078 14.0116 30.055C14.0116 29.9023 14.0116 29.7496 14.0497 29.5969C14.0878 29.2914 14.1639 28.986 14.202 28.6806C14.3162 28.146 14.4305 27.6497 14.6209 27.1152C14.6209 27.1152 14.6971 27.0388 14.6971 27.0006C14.6971 27.0006 14.7732 26.8861 14.8494 26.6952C14.8875 26.6188 14.9636 26.5043 15.0398 26.3898C15.1159 26.2752 15.1921 26.1225 15.3063 25.9698C15.4206 25.8171 15.5348 25.6643 15.6872 25.5116C15.8395 25.3589 15.9918 25.2062 16.1441 25.0153C16.2964 24.8626 16.4869 24.7099 16.6773 24.5571C16.8677 24.4044 17.0581 24.2517 17.2865 24.099C18.1243 23.5263 19.0383 23.0681 19.7618 22.8009C20.4853 22.5336 20.9804 22.4191 20.9804 22.4191C20.9804 22.4191 20.4853 22.4954 19.7237 22.6863C19.0002 22.8772 18.0101 23.259 17.0961 23.7554C16.8677 23.8699 16.6392 24.0226 16.4488 24.1753C16.2203 24.3281 16.0299 24.4808 15.8395 24.6335C15.6872 24.748 15.5729 24.8626 15.4587 24.9771C15.9537 23.8317 16.4869 22.7245 17.0961 21.6173C17.7054 20.4719 18.2766 19.3647 18.8479 18.2956C19.4191 17.1884 19.9141 16.1194 20.333 15.0885C20.7519 14.0195 21.0946 13.0268 21.3231 12.0341C21.5516 11.0796 21.6658 10.1633 21.742 9.36153C21.742 9.17063 21.742 8.97973 21.742 8.78883C21.742 8.71247 21.742 8.59793 21.742 8.52157C21.742 8.44521 21.742 8.33067 21.742 8.25431C21.742 8.06341 21.742 7.91069 21.742 7.75797C21.742 7.68161 21.742 7.60525 21.742 7.52889C21.742 7.45253 21.742 7.37617 21.742 7.29981C21.742 7.03255 21.7039 6.76529 21.6658 6.53621C21.6658 6.30713 21.5897 6.11623 21.5897 5.96351C21.5516 5.65807 21.5135 5.50535 21.5135 5.50535" fill="url(#paint5_linear_2308_7126)"/>
<defs>
<linearGradient id="paint0_linear_2308_7126" x1="10.3181" y1="43.418" x2="10.3181" y2="3.94" gradientUnits="userSpaceOnUse">
<stop stop-color="#F04B39"/>
<stop offset="0.2" stop-color="#F36A2F"/>
<stop offset="0.4" stop-color="#F58227"/>
<stop offset="0.6" stop-color="#F79321"/>
<stop offset="0.8" stop-color="#F89D1E"/>
<stop offset="1" stop-color="#F9A11D"/>
</linearGradient>
<linearGradient id="paint1_linear_2308_7126" x1="28.5972" y1="43.4193" x2="28.5972" y2="3.94123" gradientUnits="userSpaceOnUse">
<stop stop-color="#F04B39"/>
<stop offset="0.2" stop-color="#F36A2F"/>
<stop offset="0.4" stop-color="#F58227"/>
<stop offset="0.6" stop-color="#F79321"/>
<stop offset="0.8" stop-color="#F89D1E"/>
<stop offset="1" stop-color="#F9A11D"/>
</linearGradient>
<linearGradient id="paint2_linear_2308_7126" x1="18.2774" y1="43.4569" x2="18.2774" y2="0.0081836" gradientUnits="userSpaceOnUse">
<stop stop-color="#EE3741"/>
<stop offset="1" stop-color="#F9A11D"/>
</linearGradient>
<linearGradient id="paint3_linear_2308_7126" x1="7.51616" y1="45.8543" x2="7.51616" y2="6.37629" gradientUnits="userSpaceOnUse">
<stop stop-color="#CA373A"/>
<stop offset="0.2" stop-color="#CD5531"/>
<stop offset="0.4" stop-color="#CF6D2A"/>
<stop offset="0.5" stop-color="#D07E25"/>
<stop offset="0.8" stop-color="#D18821"/>
<stop offset="1" stop-color="#D28C21"/>
</linearGradient>
<linearGradient id="paint4_linear_2308_7126" x1="25.795" y1="45.8541" x2="25.795" y2="6.3761" gradientUnits="userSpaceOnUse">
<stop stop-color="#CA373A"/>
<stop offset="0.2" stop-color="#CD5531"/>
<stop offset="0.4" stop-color="#CF6D2A"/>
<stop offset="0.5" stop-color="#D07E25"/>
<stop offset="0.8" stop-color="#D18821"/>
<stop offset="1" stop-color="#D28C21"/>
</linearGradient>
<linearGradient id="paint5_linear_2308_7126" x1="-1.81094" y1="68.2273" x2="-1.81094" y2="24.7404" gradientUnits="userSpaceOnUse">
<stop stop-color="#AE2D36"/>
<stop offset="1" stop-color="#B47D20"/>
</linearGradient>
</defs>
</svg>
