<svg width="48" height="48" viewBox="0 0 48 48" fill="none" xmlns="http://www.w3.org/2000/svg">
<path d="M19.572 44.6156C28.5852 44.6156 35.892 37.3089 35.892 28.2956C35.892 19.2823 28.5852 11.9756 19.572 11.9756C10.5587 11.9756 3.25195 19.2823 3.25195 28.2956C3.25195 37.3089 10.5587 44.6156 19.572 44.6156Z" stroke="#003764" stroke-width="1.5" stroke-miterlimit="10" stroke-linecap="round"/>
<path d="M15.4922 32.8799C15.9602 33.8999 17.3162 35.0999 19.5722 35.0999C21.8282 35.0999 23.6522 33.5639 23.6522 31.6559C23.6522 26.1599 15.7562 29.2799 15.7562 24.5999C15.7562 22.8839 17.4242 21.5039 19.4522 21.5039C21.4802 21.5039 22.4882 22.4039 22.8962 22.8239" stroke="#003764" stroke-width="1.5" stroke-miterlimit="10" stroke-linecap="round"/>
<path d="M19.5723 18.0957V21.4917" stroke="#003764" stroke-width="1.5" stroke-miterlimit="10" stroke-linecap="round"/>
<path d="M19.5723 35.0996V38.4956" stroke="#003764" stroke-width="1.5" stroke-miterlimit="10" stroke-linecap="round"/>
<path d="M19.572 44.6156C28.5852 44.6156 35.892 37.3089 35.892 28.2956C35.892 19.2823 28.5852 11.9756 19.572 11.9756C10.5587 11.9756 3.25195 19.2823 3.25195 28.2956C3.25195 37.3089 10.5587 44.6156 19.572 44.6156Z" stroke="#003764" stroke-width="1.5" stroke-miterlimit="10" stroke-linecap="round"/>
<path d="M14.4727 12.1438C17.5207 6.64775 23.6167 3.17975 30.2647 3.80375C39.2407 4.64375 45.8407 12.5878 45.0007 21.5638C44.4127 27.9238 40.2367 33.0958 34.6567 35.2678" stroke="#003764" stroke-width="1.5" stroke-miterlimit="10" stroke-linecap="round"/>
</svg>
