<svg width="48" height="48" viewBox="0 0 48 48" fill="none" xmlns="http://www.w3.org/2000/svg">
<path d="M44.4001 33.5522H32.9761C30.2761 33.5522 28.0801 31.5242 28.0801 29.0162C28.0801 26.5082 30.2761 24.4802 32.9761 24.4802H44.4001" stroke="#172983" stroke-width="1.5" stroke-miterlimit="10"/>
<path d="M32.976 30.7441C33.9304 30.7441 34.704 29.9704 34.704 29.0161C34.704 28.0617 33.9304 27.2881 32.976 27.2881C32.0217 27.2881 31.248 28.0617 31.248 29.0161C31.248 29.9704 32.0217 30.7441 32.976 30.7441Z" fill="#172983"/>
<path d="M3.59961 18.816C3.59961 16.308 5.62761 14.28 8.13561 14.28H39.8636C42.3716 14.28 44.3996 16.308 44.3996 18.816V39.216C44.3996 41.724 42.3716 43.752 39.8636 43.752H8.13561C5.62761 43.752 3.59961 41.724 3.59961 39.216V18.816Z" stroke="#172983" stroke-width="1.5" stroke-miterlimit="10" stroke-linecap="round"/>
<path d="M19.7637 5.73608L27.6717 13.6441" stroke="#172983" stroke-width="1.5" stroke-miterlimit="10" stroke-linecap="round"/>
<path d="M11.6523 13.6441L21.2403 4.05612C22.2243 3.07212 23.8083 3.07212 24.7923 4.05612L34.3803 13.6441" stroke="#172983" stroke-width="1.5" stroke-miterlimit="10" stroke-linecap="round"/>
</svg>
