<svg width="40" height="40" viewBox="0 0 40 40" fill="none" xmlns="http://www.w3.org/2000/svg">
<rect width="40" height="40" rx="20" fill="#172983"/>
<path d="M26.6367 13.377L26.1904 13.3291C25.4762 13.2524 24.7583 13.2149 24.04 13.2178C22.9017 13.2178 21.8911 13.5672 21.1641 14.2861C20.4357 15.0065 20.047 16.0432 20.0469 17.3086V18.8135H17.7002V22.5293H20.0459V28.5H11.9932C11.7207 28.4998 11.5002 28.2793 11.5 28.0068V11.9932C11.5002 11.7207 11.7207 11.5002 11.9932 11.5H28.0068C28.2793 11.5002 28.4998 11.7207 28.5 11.9932V28.0068C28.4998 28.2793 28.2793 28.4998 28.0068 28.5H23.8525V22.5293H26.1318L26.1885 22.0938L26.5381 19.377L26.6113 18.8135H23.8516V17.5791C23.8516 17.2073 23.9094 17.0333 23.9844 16.9443C24.0432 16.8746 24.2019 16.7559 24.6992 16.7559H26.6367V13.377Z" fill="white" stroke="white"/>
</svg>
