<svg width="40" height="40" viewBox="0 0 40 40" fill="none" xmlns="http://www.w3.org/2000/svg">
<rect width="40" height="40" rx="20" fill="#172983"/>
<path d="M21.0029 11C22.6719 11 24.0252 10.9977 25.0879 11.1406C26.1791 11.2874 27.1136 11.6044 27.8574 12.3486C28.6007 13.0927 28.9165 14.0269 29.0635 15.1182C29.2065 16.1808 29.2051 17.5331 29.2051 19.2021V21.0029C29.2051 22.672 29.2074 24.0252 29.0645 25.0879C28.9176 26.1792 28.6009 27.1136 27.8564 27.8574C27.1124 28.6007 26.1782 28.9166 25.0869 29.0635C24.0243 29.2065 22.6719 29.2051 21.0029 29.2051H19.2021C17.5332 29.2051 16.1799 29.2074 15.1172 29.0645C14.026 28.9176 13.0914 28.6008 12.3477 27.8564C11.6045 27.1124 11.2885 26.1782 11.1416 25.0869C10.9986 24.0243 11 22.672 11 21.0029V19.2021C11 17.5331 10.9977 16.1799 11.1406 15.1172C11.2875 14.0259 11.6043 13.0915 12.3486 12.3477C13.0927 11.6044 14.027 11.2886 15.1182 11.1416C16.1807 10.9986 17.5332 11 19.2021 11H21.0029ZM19.2021 13C17.4769 13 16.283 13.0021 15.3848 13.123C14.5154 13.2401 14.0727 13.452 13.7617 13.7627C13.4514 14.0729 13.24 14.5147 13.123 15.3838C13.0022 16.2822 13 17.4765 13 19.2021V21.0029C13 22.7283 13.0022 23.922 13.123 24.8203C13.2401 25.6896 13.4521 26.1324 13.7627 26.4434C14.0729 26.7537 14.5148 26.9651 15.3838 27.082C16.2822 27.2029 17.4767 27.2051 19.2021 27.2051H21.0029C22.7282 27.2051 23.9221 27.2029 24.8203 27.082C25.6898 26.965 26.1324 26.753 26.4434 26.4424C26.7538 26.1322 26.9651 25.6905 27.082 24.8213C27.2029 23.9228 27.2051 22.7285 27.2051 21.0029V19.2021C27.2051 17.4768 27.2029 16.283 27.082 15.3848C26.965 14.5153 26.7531 14.0727 26.4424 13.7617C26.1322 13.4515 25.6903 13.24 24.8213 13.123C23.9229 13.0023 22.7284 13 21.0029 13H19.2021ZM20.1035 15.502C22.6444 15.5023 24.7041 17.5626 24.7041 20.1035C24.7037 22.6441 22.6441 24.7038 20.1035 24.7041C17.5627 24.7041 15.5024 22.6443 15.502 20.1035C15.502 17.5624 17.5624 15.502 20.1035 15.502ZM20.1035 17.502C18.667 17.502 17.502 18.667 17.502 20.1035C17.5024 21.5397 18.6672 22.7041 20.1035 22.7041C21.5395 22.7038 22.7037 21.5395 22.7041 20.1035C22.7041 18.6672 21.5398 17.5023 20.1035 17.502ZM25.0537 13.8008C25.7995 13.8008 26.4043 14.4056 26.4043 15.1514C26.4043 15.8971 25.7995 16.502 25.0537 16.502C24.3081 16.5017 23.7041 15.897 23.7041 15.1514C23.7041 14.4057 24.3081 13.801 25.0537 13.8008Z" fill="white"/>
</svg>
