<svg width="48" height="48" viewBox="0 0 48 48" fill="none" xmlns="http://www.w3.org/2000/svg">
<path d="M17.207 10.4641V9.45611C17.207 6.75611 18.479 5.41211 20.051 5.41211H27.935C29.507 5.41211 30.779 6.30011 30.779 9.45611V10.4641" stroke="#172983" stroke-width="1.5" stroke-linecap="round" stroke-linejoin="round"/>
<path d="M42.5996 10.4641H5.39961C4.4055 10.4641 3.59961 11.27 3.59961 12.2641V40.7881C3.59961 41.7822 4.4055 42.5881 5.39961 42.5881H42.5996C43.5937 42.5881 44.3996 41.7822 44.3996 40.7881V12.2641C44.3996 11.27 43.5937 10.4641 42.5996 10.4641Z" stroke="#172983" stroke-width="1.5" stroke-linecap="round" stroke-linejoin="round"/>
<path d="M13.2832 14.3882H19.2112" stroke="#172983" stroke-width="1.5" stroke-linecap="round" stroke-linejoin="round"/>
<path d="M13.2832 18.24H15.3112" stroke="#172983" stroke-width="1.5" stroke-linecap="round" stroke-linejoin="round"/>
<path d="M8.29102 36.7441H10.571" stroke="#172983" stroke-width="1.5" stroke-linecap="round" stroke-linejoin="round"/>
<path d="M37.416 36.7441H39.696" stroke="#172983" stroke-width="1.5" stroke-linecap="round" stroke-linejoin="round"/>
<path d="M9.44336 10.4641V42.5881" stroke="#172983" stroke-width="1.5" stroke-linecap="round" stroke-linejoin="round"/>
<path d="M38.5547 10.4641V42.5881" stroke="#172983" stroke-width="1.5" stroke-linecap="round" stroke-linejoin="round"/>
<path d="M38.5547 10.4641V42.5881" stroke="#172983" stroke-width="1.5" stroke-linecap="round" stroke-linejoin="round"/>
</svg>
