<svg width="48" height="48" viewBox="0 0 48 48" fill="none" xmlns="http://www.w3.org/2000/svg">
<path d="M34.3206 43.8959C40.219 43.8959 45.0006 39.1143 45.0006 33.2159C45.0006 27.3175 40.219 22.5359 34.3206 22.5359C28.4222 22.5359 23.6406 27.3175 23.6406 33.2159C23.6406 39.1143 28.4222 43.8959 34.3206 43.8959Z" stroke="#172983" stroke-width="1.5" stroke-linecap="round" stroke-linejoin="round"/>
<path d="M31.584 36.2881C32.136 37.2721 33.204 37.8481 34.32 37.7761C35.832 37.7761 37.056 36.7441 37.056 35.4601C37.056 31.7761 31.752 33.8641 31.752 30.7201C31.752 29.5681 32.868 28.6441 34.236 28.6441C35.1 28.5961 35.94 28.9201 36.552 29.5321" stroke="#172983" stroke-width="1.5" stroke-miterlimit="10" stroke-linecap="round"/>
<path d="M34.3203 26.364V28.656" stroke="#172983" stroke-width="1.5" stroke-miterlimit="10" stroke-linecap="round"/>
<path d="M34.3203 37.7761V40.0561" stroke="#172983" stroke-width="1.5" stroke-linecap="round" stroke-linejoin="round"/>
<path d="M14.5326 19.572C12.9366 18.516 11.8926 16.692 11.8926 14.64V10.032C11.8926 6.756 14.5446 4.104 17.8206 4.104C21.0966 4.104 23.7486 6.756 23.7486 10.032V14.64C23.7486 17.916 21.0966 20.568 17.8206 20.568C17.8206 20.568 16.2606 20.7 15.1926 19.992L14.5326 19.584V19.572Z" stroke="#172983" stroke-width="1.5" stroke-linecap="round" stroke-linejoin="round"/>
<path d="M24.6 38.256H3V31.476C3 29.316 4.332 27.384 6.348 26.628L14.844 23.136V19.812" stroke="#172983" stroke-width="1.5" stroke-linecap="round" stroke-linejoin="round"/>
<path d="M20.7715 19.74V23.076L26.6155 25.5" stroke="#172983" stroke-width="1.5" stroke-linecap="round" stroke-linejoin="round"/>
<path d="M22.6318 24.384C21.8278 26.28 19.9558 27.6 17.7718 27.6C15.5878 27.6 13.8478 26.364 13.0078 24.588" stroke="#172983" stroke-width="1.5" stroke-linecap="round" stroke-linejoin="round"/>
</svg>
