<svg width="150" height="48" viewBox="0 0 150 48" fill="none" xmlns="http://www.w3.org/2000/svg">
<path d="M39.2349 0C43.3648 0.000137696 46.8514 7.58034 47.9008 17.3936C46.5129 15.6002 44.0421 14.6181 42.011 14.0429L40.86 14.6525C44.5159 15.4985 46.9191 17.089 47.3253 19.4577C48.1713 24.1951 38.4561 29.8803 25.6262 32.1475C23.3582 32.5536 21.1914 32.8241 19.0926 32.9933C19.3296 30.0831 19.3635 26.9018 19.0926 23.5517C19.0249 22.6044 18.923 21.691 18.8215 20.7775L17.9075 20.3034C18.009 21.3863 18.0089 22.4692 18.0089 23.5859C18.0089 36.14 13.1344 47.1374 9.00446 47.1376C4.87451 47.1376 1.38798 39.558 0.338485 29.745C1.72648 31.5381 4.19735 32.5195 6.22831 33.0947L7.37935 32.4851C3.72337 31.6391 1.32023 30.0486 0.914004 27.6799C0.0682113 22.9425 9.78329 17.2582 22.6131 14.991C24.8812 14.5849 27.0478 14.3135 29.1467 14.1443C28.9097 17.0545 28.8759 20.2358 29.1467 23.5859C29.2144 24.5333 29.3163 25.4474 29.4178 26.361L30.3318 26.8342C30.2303 25.7514 30.2304 24.6684 30.2304 23.5517C30.2305 10.9975 35.1049 0 39.2349 0Z" fill="#172983"/>
<path d="M48.2061 23.5517C48.2061 36.106 42.8568 47.1044 39.2007 47.1044C35.5447 47.1042 32.3626 41.1139 30.9747 32.925H31.0088C36.3576 31.6391 45.498 28.1541 48.2061 22.5031V23.5517Z" fill="#172983"/>
<path fill-rule="evenodd" clip-rule="evenodd" d="M71.8346 35.9372C73.1547 35.9372 73.9671 36.4107 74.4411 36.9859C74.9149 37.561 75.0165 38.2378 75.0166 38.7115L75.0507 38.7456V42.4339C75.0507 43.1782 75.152 43.7537 75.3551 44.1936V44.3292H73.4598C73.392 44.16 73.3246 43.8892 73.2569 43.5508C72.6476 44.1598 71.8012 44.4647 71.0904 44.4648C70.3795 44.4648 69.7695 44.2618 69.2955 43.9234C68.6862 43.4835 68.2801 43.6182 68.2801 41.9939C68.2802 40.3699 69.4652 39.2871 72.0375 39.287H73.1554V38.7456C73.1554 38.0689 72.8162 37.3585 71.6991 37.3585C71.2931 37.3585 70.9884 37.4258 70.7177 37.6287C70.4808 37.8317 70.2778 38.1032 70.2778 38.4754H68.4498C68.4498 37.934 68.6865 37.2903 69.3297 36.7488C69.8713 36.309 70.5146 35.9373 71.8346 35.9372ZM72.2073 40.4712C70.887 40.4712 70.1422 41.1145 70.1422 41.8252C70.1423 42.5357 70.7857 42.9753 71.4288 42.9753C72.072 42.9752 72.8163 42.6706 73.1886 41.9939V40.4712H72.2073Z" fill="#172983"/>
<path fill-rule="evenodd" clip-rule="evenodd" d="M63.0331 33.2976C66.1137 33.2976 66.8588 34.8883 66.8588 36.2757C66.8587 37.6629 65.843 38.3061 65.2337 38.5768H65.2678C66.4185 38.9151 67.129 39.152 67.129 41.1141C67.129 43.0767 65.8429 44.3292 63.2701 44.3292H59.2415V33.2976H63.0331ZM61.1709 42.7724H63.3043C64.5226 42.7723 65.2336 42.2311 65.2337 41.0809C65.2337 39.9303 64.6579 39.3211 63.473 39.3211H61.1709V42.7724ZM61.1709 37.934H63.0672C64.1842 37.934 64.9625 37.5613 64.9625 36.3772C64.9625 35.1928 64.2518 34.8203 63.0331 34.8203H61.1709V37.934Z" fill="#172983"/>
<path d="M80.8059 35.9372C82.4984 35.9373 83.4123 36.9186 83.4123 38.8812V44.2951H81.5843V38.9827C81.5843 38.4751 81.4828 38.0685 81.2458 37.8316C81.009 37.5949 80.8733 37.46 80.1289 37.4599C79.3842 37.4599 78.8421 37.7986 78.4697 38.4754V44.3292H76.6417V36.106H78.3683L78.4356 37.0541C79.0448 36.3436 79.8576 35.9705 80.8391 35.9704L80.8059 35.9372Z" fill="#172983"/>
<path d="M86.9328 39.3885L87.5083 38.6783L89.7762 36.106H91.9769L88.9305 39.524L92.3154 44.3292H90.183L87.7453 40.8097L86.9328 41.6223V44.3292H85.0716V32.6548H86.9328V39.3885Z" fill="#172983"/>
<path d="M98.6461 20.7433C100.576 20.7433 101.929 21.7585 101.929 23.3488H100.101C100.101 22.7736 99.6954 22.0973 98.6461 22.0973C97.9353 22.0973 97.2582 22.5028 97.258 23.1118C97.258 23.7208 97.7319 23.9583 99.0519 24.2628V24.3643C100.981 24.7703 101.964 25.3454 101.964 26.8342C101.964 28.3231 100.711 29.305 98.6461 29.305C96.5812 29.305 95.1931 28.0527 95.1929 26.564H96.9868C97.0208 27.4436 97.597 27.9169 98.6802 27.9169C99.763 27.9169 100.17 27.4774 100.17 26.9024C100.17 26.3272 99.8308 25.9886 98.409 25.6841C97.7997 25.5487 97.2584 25.3789 96.8522 25.1759C95.9382 24.736 95.4641 23.958 95.4641 23.2474C95.4641 22.5369 95.7349 21.9958 96.2425 21.5559C96.818 21.0483 96.7165 20.7433 98.6461 20.7433Z" fill="#172983"/>
<path d="M106.703 20.7433C108.633 20.7435 109.987 21.7586 109.987 23.3488H108.159C108.159 22.7737 107.752 22.0974 106.703 22.0973C105.993 22.0973 105.315 22.5028 105.315 23.1118C105.315 23.7209 105.789 23.9583 107.109 24.2628V24.3643C109.039 24.7703 110.021 25.3454 110.021 26.8342C110.021 28.323 108.768 29.3049 106.703 29.305C104.638 29.305 103.25 28.0527 103.25 26.564H105.044C105.078 27.4435 105.654 27.9169 106.737 27.9169C107.82 27.9169 108.226 27.4775 108.226 26.9024C108.226 26.3272 107.888 25.9886 106.466 25.6841C105.857 25.5487 105.315 25.3789 104.909 25.1759C103.995 24.7359 103.52 23.9579 103.52 23.2474C103.52 22.5368 103.792 21.9958 104.3 21.5559C104.875 21.0483 104.774 20.7433 106.703 20.7433Z" fill="#172983"/>
<path d="M146.682 20.7433C148.612 20.7433 149.967 21.7584 149.967 23.3488H148.139C148.139 22.7736 147.732 22.0973 146.682 22.0973C145.972 22.0974 145.296 22.5029 145.295 23.1118C145.295 23.7209 145.769 23.9583 147.089 24.2628V24.3643C149.019 24.7703 150 25.3454 150 26.8342C150 28.3231 148.747 29.305 146.682 29.305C144.618 29.3049 143.23 28.0526 143.23 26.564H145.024C145.058 27.4435 145.634 27.9169 146.717 27.9169C147.8 27.9169 148.206 27.4775 148.206 26.9024C148.206 26.3272 147.867 25.9886 146.445 25.6841C145.836 25.5487 145.295 25.3789 144.889 25.1759C143.975 24.736 143.501 23.9579 143.501 23.2474C143.501 22.537 143.771 21.9957 144.279 21.5559C144.854 21.0483 144.753 20.7434 146.682 20.7433Z" fill="#172983"/>
<path fill-rule="evenodd" clip-rule="evenodd" d="M118.416 20.7433C120.718 20.7433 122.14 22.3674 122.241 24.6345V25.0744C122.241 27.4432 120.785 29.2367 118.416 29.2367C116.046 29.2366 114.591 27.5787 114.591 25.0071V24.9057C114.591 22.4693 116.08 20.7093 118.416 20.7092V20.7433ZM118.382 22.1646C117.536 22.1646 116.419 23.3493 116.419 25.0412C116.419 26.7329 117.163 27.748 118.416 27.7482V27.714C119.296 27.714 120.379 26.5296 120.379 24.8715C120.379 23.2137 119.635 22.1648 118.382 22.1646Z" fill="#172983"/>
<path fill-rule="evenodd" clip-rule="evenodd" d="M77.3187 20.7092C79.6206 20.7092 81.0428 22.3341 81.1444 24.6013V25.0412C81.1442 27.4098 79.6882 29.2026 77.3187 29.2026C74.9491 29.2025 73.4939 27.5447 73.4939 24.973V24.9057C73.4939 22.4693 75.0168 20.7093 77.3187 20.7092ZM77.3187 22.1305C76.4724 22.1307 75.3551 23.3153 75.3551 25.0071C75.3551 26.699 76.4726 27.714 77.3528 27.714C78.233 27.714 79.3164 26.5296 79.3164 24.8715C79.3163 23.2135 78.5712 22.1646 77.3187 22.1646V22.1305Z" fill="#172983"/>
<path fill-rule="evenodd" clip-rule="evenodd" d="M90.5888 20.676C92.7892 20.676 94.1101 22.0969 94.1102 24.7701V25.5144H88.7608C88.8285 26.6648 89.5396 27.7139 90.9273 27.714C91.7736 27.714 92.4507 27.3754 92.9923 26.6986L93.9746 27.6467C93.6699 28.1543 93.1954 29.2026 90.8258 29.2026C88.4563 29.2025 86.8996 27.6122 86.8996 25.1759V24.9398C86.8996 22.368 88.5579 20.7092 90.6229 20.7092L90.5888 20.676ZM90.6229 22.1987C89.2352 22.1988 88.8965 23.5177 88.7949 24.1946H92.3154V24.0599C92.2815 23.3155 92.0109 22.1987 90.6229 22.1987Z" fill="#172983"/>
<path fill-rule="evenodd" clip-rule="evenodd" d="M135.173 20.676C136.493 20.676 137.306 21.1494 137.779 21.7247C138.253 22.2999 138.355 22.9765 138.355 23.4503L138.389 23.4844V27.1727C138.389 27.9171 138.49 28.4925 138.693 28.9324V29.068H136.798C136.73 28.8988 136.663 28.6279 136.595 28.2896C135.986 28.8987 135.139 29.2026 134.428 29.2026C133.717 29.2025 133.108 28.9996 132.634 28.6612C132.025 28.2216 131.618 28.3568 131.618 26.7327C131.619 25.1085 132.803 24.0258 135.376 24.0258H136.493V23.4844C136.493 22.8076 136.155 22.0973 135.037 22.0973C134.631 22.0973 134.327 22.1646 134.056 22.3675C133.819 22.5705 133.616 22.8412 133.616 23.2132H131.787C131.787 22.6719 132.025 22.0289 132.668 21.4876C133.21 21.0478 133.853 20.676 135.173 20.676ZM135.546 25.2441C134.226 25.2441 133.481 25.8867 133.481 26.5971C133.481 27.3076 134.123 27.748 134.766 27.7482C135.409 27.7482 136.155 27.4435 136.527 26.7669V25.2441H135.546Z" fill="#172983"/>
<path d="M72.3087 20.7092C72.5793 20.7092 72.7824 20.7431 72.9516 20.8107V22.5372C72.715 22.4696 73.0532 22.4689 72.2073 22.4689C71.3611 22.4689 70.8195 22.8075 70.5148 23.4503L70.4807 23.4844V29.1012H68.6527V20.8789H70.4466V21.792C70.8867 21.0815 71.5302 20.7092 72.3087 20.7092Z" fill="#172983"/>
<path fill-rule="evenodd" clip-rule="evenodd" d="M63.473 18.0364C64.7254 18.0364 65.7071 18.3408 66.4179 18.9836C67.1288 19.6265 67.5017 20.4389 67.5017 21.5218C67.5016 22.6045 67.1288 23.4508 66.4179 24.0599C65.7071 24.6688 64.725 24.973 63.4389 24.973H61.1709V29.068H59.2415V18.0364H63.473ZM61.1709 23.4161H63.473C64.1501 23.4161 64.6584 23.2476 65.0308 22.943V22.9089C65.4029 22.6043 65.5722 22.0968 65.5722 21.5218C65.5722 20.9466 65.403 20.4727 65.0308 20.1005C64.6924 19.7622 64.1843 19.5592 63.5413 19.5591H61.1709V23.4161Z" fill="#172983"/>
<path d="M113.27 29.068H111.442V20.8448H113.27V29.068Z" fill="#172983"/>
<path d="M127.658 20.676C129.35 20.6762 130.265 21.6575 130.265 23.62V29.0338H128.437V23.7214C128.437 22.6724 127.725 22.1987 126.98 22.1987C126.236 22.1989 125.694 22.5368 125.322 23.2132V29.068H123.494V20.8448H125.22L125.288 21.792C125.897 21.0815 126.71 20.7093 127.691 20.7092L127.658 20.676Z" fill="#172983"/>
<path d="M141.91 29.0338H140.082V17.3936H141.91V29.0338Z" fill="#172983"/>
<path d="M85.7817 17.2239C86.0864 17.2239 86.4593 17.2579 86.764 17.3594V18.8148C86.5609 18.7472 86.933 18.7466 86.0529 18.7466C85.1727 18.7466 84.7321 19.1868 84.7321 20.1005V20.8448H86.3914V22.1646H84.7321V28.9997H82.9041V22.1646H81.6517V20.8107H82.9041V20.0664C82.9042 18.2393 83.9539 17.224 85.7817 17.2239Z" fill="#172983"/>
<path d="M9.00446 0.0341329C12.6605 0.0342209 15.8425 6.02359 17.2305 14.2126H17.1964C11.8477 15.4985 2.7084 18.9838 0 24.6345V23.5859C0 11.0316 5.34838 0.0341329 9.00446 0.0341329Z" fill="#172983"/>
<path d="M112.356 17.7321C113.067 17.7321 113.406 18.172 113.406 18.7134C113.406 19.2546 113.067 19.6947 112.356 19.6947C111.646 19.6946 111.307 19.2208 111.307 18.7134C111.307 18.2058 111.645 17.7321 112.356 17.7321Z" fill="#172983"/>
<path fill-rule="evenodd" clip-rule="evenodd" d="M81.1785 5.54945C82.4985 5.54955 83.3111 6.02383 83.785 6.59903C84.2586 7.17422 84.3605 7.85099 84.3605 8.32464V12.0129C84.3605 12.7573 84.4617 13.3327 84.6648 13.7726V13.9082H82.7695C82.7018 13.7391 82.6334 13.4681 82.5657 13.1298C81.9563 13.7387 81.1099 14.0429 80.3992 14.0429C79.6884 14.0428 79.0792 13.8398 78.6053 13.5015C77.996 13.0617 77.5898 13.1971 77.5898 11.573C77.5898 9.9487 78.7745 8.86604 81.3473 8.86603L81.3814 8.89921H82.4983V8.35783C82.4982 7.68122 82.1596 6.97081 81.043 6.9707C80.6367 6.9707 80.3315 7.03884 80.0607 7.24187C79.8239 7.44487 79.6207 7.71555 79.6207 8.08761H77.7927C77.7927 7.54628 78.0297 6.90336 78.6726 6.362C79.2142 5.92209 79.8583 5.54945 81.1785 5.54945ZM81.517 10.0503C80.1968 10.0503 79.452 10.6936 79.452 11.4042C79.4522 12.1144 80.0947 12.5541 80.7376 12.5543C81.3808 12.5543 82.126 12.2497 82.4983 11.573V10.0503H81.517Z" fill="#172983"/>
<path fill-rule="evenodd" clip-rule="evenodd" d="M72.9184 5.48213C75.1185 5.48226 76.4387 6.90319 76.4388 9.57618V10.3205H71.0904C71.1581 11.471 71.8689 12.5201 73.2569 12.5201C74.103 12.5201 74.7803 12.1823 75.3219 11.5056L76.3032 12.4528C75.9985 12.9604 75.0846 14.0095 73.1554 14.0097L73.1213 13.9755C70.7516 13.9755 69.1941 12.3851 69.1941 9.9488V9.71177C69.1941 7.14002 70.718 5.48213 72.9184 5.48213ZM72.9184 7.00484C71.5304 7.00484 71.1919 8.32483 71.0904 9.00161H74.6108V8.86603C74.5769 8.12162 74.2722 7.005 72.9184 7.00484Z" fill="#172983"/>
<path d="M92.3154 5.68503H93.7717V7.03897H92.3154V11.6071C92.3154 12.2836 92.5866 12.487 93.162 12.487C93.3651 12.4869 93.6018 12.4525 93.8049 12.4187V13.84C93.3651 13.9414 94.008 14.0097 92.5865 14.0097C91.1647 14.0097 90.4542 13.231 90.4542 11.6744H90.4873V7.03897H89.1334V5.68503H90.4873V3.68825H92.3154V5.68503Z" fill="#172983"/>
<path d="M61.1709 7.41064H66.1136V2.80838H68.0099V13.8741H66.1136V8.96748H61.1709V13.8741H59.2415V2.80838H61.1709V7.41064Z" fill="#172983"/>
<path d="M87.8809 13.8741H86.0529V2.23381H87.8809V13.8741Z" fill="#172983"/>
<path d="M97.021 6.5649C97.5964 5.85433 97.5289 5.51536 99.2889 5.51531C101.049 5.51531 101.964 6.53104 101.964 8.52754V13.8741H100.136V8.59486C100.136 8.01973 99.9999 7.61334 99.763 7.3765C99.5262 7.13988 99.4244 7.039 98.6802 7.03897C97.9354 7.03897 97.3933 7.37735 97.021 8.02029V13.8741H95.1929V2.23381H97.021V6.5649Z" fill="#172983"/>
</svg>
