<svg width="155" height="49" viewBox="0 0 155 49" fill="none" xmlns="http://www.w3.org/2000/svg">
<path d="M40.4111 0C44.6649 0.000141824 48.256 7.8076 49.3369 17.915C47.9074 16.0679 45.3625 15.0564 43.2705 14.4639L42.085 15.0918C45.8505 15.9632 48.3257 17.6013 48.7441 20.041C49.6155 24.9205 39.6091 30.7762 26.3945 33.1113C24.0585 33.5296 21.8268 33.8082 19.665 33.9824C19.9091 30.985 19.944 27.7083 19.665 24.2578C19.5953 23.2821 19.4903 22.3413 19.3857 21.4004L18.4443 20.9121C18.5489 22.0274 18.5488 23.1428 18.5488 24.293C18.5488 37.2235 13.5282 48.5506 9.27441 48.5508C5.02065 48.5508 1.42959 40.744 0.348633 30.6367C1.77824 32.4836 4.32319 33.4944 6.41504 34.0869L7.60059 33.459C3.835 32.5876 1.35981 30.9495 0.941406 28.5098C0.0702564 23.6304 10.0766 17.7756 23.291 15.4404C25.6271 15.0222 27.8587 14.7426 30.0205 14.5684C29.7764 17.5658 29.7416 20.8425 30.0205 24.293C30.0902 25.2688 30.1952 26.2103 30.2998 27.1514L31.2412 27.6387C31.1366 26.5234 31.1367 25.4079 31.1367 24.2578C31.1368 11.3273 36.1573 0 40.4111 0Z" fill="white"/>
<path d="M49.6514 24.2578C49.6514 37.1885 44.1417 48.5166 40.376 48.5166C36.6104 48.5164 33.3329 42.3465 31.9033 33.9121H31.9385C37.4476 32.5876 46.862 28.9982 49.6514 23.1777V24.2578Z" fill="white"/>
<path fill-rule="evenodd" clip-rule="evenodd" d="M73.9883 37.0146C75.3479 37.0146 76.1847 37.5023 76.6729 38.0947C77.1609 38.6871 77.2656 39.3841 77.2656 39.8721L77.3008 39.9072V43.7061C77.3008 44.4727 77.4051 45.0655 77.6143 45.5186V45.6582H75.6621C75.5924 45.4839 75.5229 45.205 75.4531 44.8564C74.8256 45.4837 73.9538 45.7978 73.2217 45.7979C72.4895 45.7979 71.8612 45.5888 71.373 45.2402C70.7455 44.7872 70.3271 44.9259 70.3271 43.2529C70.3273 41.5802 71.5478 40.4649 74.1973 40.4648H75.3486V39.9072C75.3486 39.2102 74.9992 38.4785 73.8486 38.4785C73.4305 38.4785 73.1167 38.5479 72.8379 38.7568C72.5938 38.966 72.3848 39.2455 72.3848 39.6289H70.502C70.502 39.0713 70.7457 38.4082 71.4082 37.8506C71.966 37.3976 72.6287 37.0147 73.9883 37.0146ZM74.3721 41.6846C73.0122 41.6846 72.2451 42.3472 72.2451 43.0791C72.2452 43.811 72.9079 44.2637 73.5703 44.2637C74.2327 44.2636 74.9993 43.9499 75.3828 43.2529V41.6846H74.3721Z" fill="white"/>
<path fill-rule="evenodd" clip-rule="evenodd" d="M64.9229 34.2959C68.0958 34.2959 68.8633 35.9343 68.8633 37.3633C68.8631 38.7921 67.817 39.4546 67.1895 39.7334H67.2246C68.4097 40.0818 69.1415 40.3258 69.1416 42.3467C69.1416 44.3682 67.8169 45.6582 65.167 45.6582H61.0176V34.2959H64.9229ZM63.0049 44.0547H65.2021C66.4571 44.0546 67.1893 43.4972 67.1895 42.3125C67.1895 41.1275 66.5963 40.5 65.376 40.5H63.0049V44.0547ZM63.0049 39.0713H64.958C66.1084 39.0712 66.9101 38.6874 66.9102 37.4678C66.9102 36.2479 66.1781 35.8643 64.9229 35.8643H63.0049V39.0713Z" fill="white"/>
<path d="M83.2285 37.0146C84.9718 37.0147 85.9131 38.0255 85.9131 40.0469V45.623H84.0303V40.1514C84.0303 39.6286 83.9257 39.2098 83.6816 38.9658C83.4377 38.722 83.2979 38.583 82.5312 38.583C81.7642 38.583 81.2058 38.9318 80.8223 39.6289V45.6582H78.9395V37.1885H80.7178L80.7871 38.165C81.4146 37.4332 82.2518 37.049 83.2627 37.0488L83.2285 37.0146Z" fill="white"/>
<path d="M89.5391 40.5693L90.1318 39.8379L92.4678 37.1885H94.7344L91.5967 40.709L95.083 45.6582H92.8867L90.376 42.0332L89.5391 42.8701V45.6582H87.6221V33.6338H89.5391V40.5693Z" fill="white"/>
<path d="M101.604 21.3652C103.591 21.3652 104.985 22.4108 104.985 24.0488H103.103C103.102 23.4563 102.684 22.7598 101.604 22.7598C100.871 22.7598 100.174 23.1775 100.174 23.8047C100.174 24.432 100.662 24.6766 102.021 24.9902V25.0947C104.009 25.513 105.02 26.1053 105.021 27.6387C105.021 29.1722 103.73 30.1836 101.604 30.1836C99.4767 30.1836 98.0471 28.8938 98.0469 27.3604H99.8945C99.9295 28.2663 100.523 28.7539 101.639 28.7539C102.754 28.7538 103.173 28.3012 103.173 27.709C103.173 27.1165 102.824 26.7678 101.359 26.4541C100.732 26.3147 100.174 26.1398 99.7559 25.9307C98.8144 25.4776 98.3262 24.6763 98.3262 23.9443C98.3262 23.2125 98.6051 22.6552 99.1279 22.2021C99.7207 21.6793 99.6161 21.3652 101.604 21.3652Z" fill="white"/>
<path d="M109.902 21.3652C111.89 21.3654 113.284 22.4109 113.284 24.0488H111.401C111.401 23.4564 110.983 22.7599 109.902 22.7598C109.17 22.7598 108.473 23.1775 108.473 23.8047C108.473 24.4321 108.96 24.6766 110.32 24.9902V25.0947C112.308 25.513 113.319 26.1053 113.319 27.6387C113.319 29.1721 112.029 30.1835 109.902 30.1836C107.776 30.1836 106.346 28.8938 106.346 27.3604H108.193C108.228 28.2663 108.821 28.7538 109.937 28.7539C111.052 28.7539 111.471 28.3013 111.471 27.709C111.471 27.1165 111.122 26.7678 109.658 26.4541C109.031 26.3147 108.472 26.1398 108.054 25.9307C107.113 25.4775 106.624 24.6762 106.624 23.9443C106.624 23.2124 106.904 22.6552 107.427 22.2021C108.019 21.6793 107.915 21.3652 109.902 21.3652Z" fill="white"/>
<path d="M151.08 21.3652C153.067 21.3652 154.463 22.4108 154.463 24.0488H152.58C152.58 23.4563 152.161 22.7598 151.08 22.7598C150.348 22.7599 149.652 23.1776 149.651 23.8047C149.651 24.4321 150.139 24.6766 151.499 24.9902V25.0947C153.486 25.513 154.497 26.1053 154.497 27.6387C154.497 29.1722 153.207 30.1836 151.08 30.1836C148.954 30.1834 147.525 28.8937 147.524 27.3604H149.372C149.407 28.2663 150 28.7539 151.115 28.7539C152.231 28.7539 152.649 28.3013 152.649 27.709C152.649 27.1165 152.3 26.7678 150.836 26.4541C150.208 26.3147 149.651 26.1397 149.232 25.9307C148.291 25.4776 147.803 24.6762 147.803 23.9443C147.803 23.2126 148.082 22.6552 148.604 22.2021C149.197 21.6794 149.093 21.3653 151.08 21.3652Z" fill="white"/>
<path fill-rule="evenodd" clip-rule="evenodd" d="M121.966 21.3652C124.337 21.3652 125.802 23.038 125.906 25.373V25.8262C125.906 28.2659 124.407 30.1133 121.966 30.1133C119.525 30.1131 118.026 28.4056 118.026 25.7568V25.6523C118.026 23.143 119.56 21.3302 121.966 21.3301V21.3652ZM121.932 22.8291C121.06 22.8291 119.909 24.0493 119.909 25.792C119.909 27.5343 120.676 28.5799 121.966 28.5801V28.5449C122.872 28.5449 123.988 27.325 123.988 25.6172C123.988 23.9096 123.221 22.8293 121.932 22.8291Z" fill="white"/>
<path fill-rule="evenodd" clip-rule="evenodd" d="M79.6367 21.3301C82.0077 21.3301 83.4725 23.0037 83.5771 25.3389V25.792C83.577 28.2316 82.0773 30.0781 79.6367 30.0781C77.1961 30.078 75.6973 28.3705 75.6973 25.7217V25.6523C75.6973 23.143 77.2659 21.3302 79.6367 21.3301ZM79.6367 22.7939C78.7651 22.7942 77.6143 24.0143 77.6143 25.7568C77.6143 27.4995 78.7653 28.5449 79.6719 28.5449C80.5784 28.5449 81.6943 27.325 81.6943 25.6172C81.6943 23.9095 80.9268 22.8291 79.6367 22.8291V22.7939Z" fill="white"/>
<path fill-rule="evenodd" clip-rule="evenodd" d="M93.3047 21.2959C95.5711 21.2959 96.9316 22.7593 96.9316 25.5127V26.2793H91.4219C91.4916 27.4642 92.224 28.5447 93.6533 28.5449C94.525 28.5449 95.2224 28.1961 95.7803 27.499L96.792 28.4756C96.4782 28.9984 95.9894 30.0781 93.5488 30.0781C91.1083 30.078 89.5049 28.44 89.5049 25.9307V25.6875C89.5049 23.0387 91.2129 21.3301 93.3398 21.3301L93.3047 21.2959ZM93.3398 22.8643C91.9106 22.8643 91.5617 24.2228 91.457 24.9199H95.083V24.7812C95.0481 24.0145 94.7694 22.8643 93.3398 22.8643Z" fill="white"/>
<path fill-rule="evenodd" clip-rule="evenodd" d="M139.226 21.2959C140.585 21.2959 141.422 21.7835 141.91 22.376C142.398 22.9684 142.503 23.6654 142.503 24.1533L142.538 24.1885V27.9873C142.538 28.7541 142.642 29.3467 142.852 29.7998V29.9395H140.899C140.83 29.7652 140.76 29.4861 140.69 29.1377C140.063 29.7651 139.19 30.0781 138.458 30.0781C137.726 30.078 137.098 29.869 136.61 29.5205C135.983 29.0676 135.564 29.2069 135.564 27.5342C135.565 25.8613 136.785 24.7461 139.435 24.7461H140.585V24.1885C140.585 23.4914 140.237 22.7598 139.086 22.7598C138.668 22.7598 138.354 22.8291 138.075 23.0381C137.831 23.2471 137.622 23.526 137.622 23.9092H135.738C135.738 23.3516 135.983 22.6894 136.646 22.1318C137.203 21.6788 137.866 21.2959 139.226 21.2959ZM139.609 26.001C138.25 26.001 137.483 26.6627 137.482 27.3945C137.482 28.1263 138.144 28.5799 138.807 28.5801C139.469 28.5801 140.237 28.2663 140.62 27.5693V26.001H139.609Z" fill="white"/>
<path d="M74.4766 21.3301C74.7553 21.3301 74.9644 21.365 75.1387 21.4346V23.2129C74.8951 23.1433 75.2433 23.1426 74.3721 23.1426C73.5005 23.1426 72.9427 23.4913 72.6289 24.1533L72.5938 24.1885V29.9736H70.7109V21.5049H72.5586V22.4453C73.0119 21.7135 73.6747 21.3301 74.4766 21.3301Z" fill="white"/>
<path fill-rule="evenodd" clip-rule="evenodd" d="M65.376 18.5771C66.6659 18.5771 67.677 18.8907 68.4092 19.5527C69.1414 20.215 69.5254 21.0517 69.5254 22.167C69.5254 23.2822 69.1414 24.1539 68.4092 24.7812C67.677 25.4084 66.6655 25.7217 65.3408 25.7217H63.0049V29.9395H61.0176V18.5771H65.376ZM63.0049 24.1182H65.376C66.0733 24.1182 66.5969 23.9445 66.9805 23.6309V23.5957C67.3638 23.282 67.5381 22.7593 67.5381 22.167C67.5381 21.5746 67.3638 21.0865 66.9805 20.7031C66.6319 20.3547 66.1086 20.1456 65.4463 20.1455H63.0049V24.1182Z" fill="white"/>
<path d="M116.666 29.9395H114.783V21.4697H116.666V29.9395Z" fill="white"/>
<path d="M131.485 21.2959C133.228 21.2961 134.17 22.3068 134.17 24.3281V29.9043H132.287V24.4326C132.287 23.3522 131.554 22.8643 130.787 22.8643C130.02 22.8644 129.463 23.2124 129.079 23.9092V29.9395H127.196V21.4697H128.975L129.044 22.4453C129.671 21.7135 130.509 21.3301 131.52 21.3301L131.485 21.2959Z" fill="white"/>
<path d="M146.164 29.9043H144.281V17.915H146.164V29.9043Z" fill="white"/>
<path d="M88.3535 17.7402C88.6673 17.7402 89.0514 17.7753 89.3652 17.8799V19.3789C89.156 19.3092 89.5393 19.3086 88.6328 19.3086C87.7263 19.3086 87.2725 19.7621 87.2725 20.7031V21.4697H88.9814V22.8291H87.2725V29.8691H85.3896V22.8291H84.0996V21.4346H85.3896V20.668C85.3897 18.7861 86.4709 17.7404 88.3535 17.7402Z" fill="white"/>
<path d="M9.27441 0.0351562C13.0401 0.0352468 16.3175 6.20418 17.7471 14.6387H17.7119C12.2029 15.9631 2.7896 19.5529 0 25.373V24.293C0 11.3623 5.50872 0.0351562 9.27441 0.0351562Z" fill="white"/>
<path d="M115.725 18.2637C116.457 18.2637 116.806 18.7168 116.806 19.2744C116.805 19.8319 116.457 20.2852 115.725 20.2852C114.993 20.2851 114.644 19.797 114.644 19.2744C114.644 18.7517 114.993 18.2638 115.725 18.2637Z" fill="white"/>
<path fill-rule="evenodd" clip-rule="evenodd" d="M83.6123 5.71582C84.9719 5.71593 85.8088 6.20443 86.2969 6.79688C86.7848 7.38931 86.8896 8.08637 86.8896 8.57422V12.373C86.8896 13.1398 86.9939 13.7325 87.2031 14.1855V14.3252H85.251C85.1813 14.151 85.1107 13.8719 85.041 13.5234C84.4134 14.1506 83.5417 14.4639 82.8096 14.4639C82.0775 14.4638 81.45 14.2547 80.9619 13.9062C80.3344 13.4533 79.916 13.5927 79.916 11.9199C79.916 10.247 81.1362 9.13185 83.7861 9.13184L83.8213 9.16602H84.9717V8.6084C84.9715 7.91151 84.6228 7.1798 83.4727 7.17969C83.0542 7.17969 82.7399 7.24986 82.4609 7.45898C82.217 7.66807 82.0078 7.94686 82.0078 8.33008H80.125C80.125 7.77253 80.369 7.11033 81.0312 6.55273C81.5891 6.09964 82.2525 5.71582 83.6123 5.71582ZM83.9609 10.3516C82.6011 10.3516 81.834 11.0142 81.834 11.7461C81.8343 12.4776 82.496 12.9305 83.1582 12.9307C83.8207 12.9307 84.5881 12.617 84.9717 11.9199V10.3516H83.9609Z" fill="white"/>
<path fill-rule="evenodd" clip-rule="evenodd" d="M75.1045 5.64648C77.3706 5.64662 78.7304 7.11015 78.7305 9.86328V10.6299H73.2217C73.2914 11.8149 74.0236 12.8955 75.4531 12.8955C76.3247 12.8954 77.0223 12.5475 77.5801 11.8506L78.5908 12.8262C78.277 13.349 77.3357 14.4295 75.3486 14.4297L75.3135 14.3945C72.8728 14.3945 71.2686 12.7565 71.2686 10.2471V10.0029C71.2686 7.35408 72.8381 5.64648 75.1045 5.64648ZM75.1045 7.21484C73.6749 7.21484 73.3263 8.57441 73.2217 9.27148H76.8477V9.13184C76.8128 8.36512 76.4989 7.21502 75.1045 7.21484Z" fill="white"/>
<path d="M95.083 5.85547H96.583V7.25H95.083V11.9551C95.0831 12.6519 95.3624 12.8613 95.9551 12.8613C96.1642 12.8613 96.4081 12.8259 96.6172 12.791V14.2549C96.1643 14.3594 96.8264 14.4297 95.3623 14.4297C93.8979 14.4297 93.166 13.6277 93.166 12.0244H93.2002V7.25H91.8057V5.85547H93.2002V3.79883H95.083V5.85547Z" fill="white"/>
<path d="M63.0049 7.63281H68.0957V2.89258H70.0488V14.29H68.0957V9.23633H63.0049V14.29H61.0176V2.89258H63.0049V7.63281Z" fill="white"/>
<path d="M90.5156 14.29H88.6328V2.30078H90.5156V14.29Z" fill="white"/>
<path d="M99.9297 6.76172C100.522 6.02984 100.453 5.68071 102.266 5.68066C104.079 5.68066 105.021 6.72684 105.021 8.7832V14.29H103.138V8.85254C103.138 8.26017 102.998 7.8416 102.754 7.59766C102.51 7.35394 102.405 7.25003 101.639 7.25C100.872 7.25 100.313 7.59853 99.9297 8.26074V14.29H98.0469V2.30078H99.9297V6.76172Z" fill="white"/>
</svg>
