<svg width="40" height="40" viewBox="0 0 40 40" fill="none" xmlns="http://www.w3.org/2000/svg">
<rect width="40" height="40" rx="20" fill="#172983"/>
<path d="M20.1025 13C22.1089 13 23.6803 12.9995 24.873 13.1025C26.0416 13.2035 27.0565 13.4148 27.8066 13.998C28.6101 14.6231 28.926 15.5212 29.0684 16.5176C29.2074 17.491 29.2051 18.7579 29.2051 20.3018C29.2051 21.846 29.2074 23.1133 29.0684 24.0869C28.926 25.0832 28.61 25.9805 27.8066 26.6055C27.0565 27.1888 26.0417 27.4009 24.873 27.502C23.6803 27.605 22.1089 27.6035 20.1025 27.6035C18.0962 27.6035 16.5248 27.605 15.332 27.502C14.1634 27.4009 13.1485 27.1888 12.3984 26.6055C11.5953 25.9805 11.2791 25.0831 11.1367 24.0869C10.9977 23.1133 11 21.8459 11 20.3018C11 18.7578 10.9977 17.4911 11.1367 16.5176C11.2791 15.5212 11.595 14.6231 12.3984 13.998C13.1485 13.4147 14.1635 13.2036 15.332 13.1025C16.5248 12.9995 18.0962 13 20.1025 13ZM20.1025 15C18.058 15 16.5898 15.0009 15.5039 15.0947C14.3946 15.1907 13.8896 15.3729 13.627 15.5771C13.4179 15.7398 13.227 16.0243 13.1162 16.7998C13.0021 17.5986 13 18.6952 13 20.3018C13 21.9082 13.0021 23.0049 13.1162 23.8037C13.227 24.5791 13.418 24.8636 13.627 25.0264C13.8895 25.2306 14.3945 25.4128 15.5039 25.5088C16.5898 25.6026 18.058 25.6035 20.1025 25.6035C22.147 25.6035 23.6152 25.6026 24.7012 25.5088C25.8106 25.4129 26.3155 25.2306 26.5781 25.0264C26.7872 24.8637 26.978 24.5795 27.0889 23.8037C27.2029 23.0049 27.2051 21.9083 27.2051 20.3018C27.2051 18.6952 27.203 17.5986 27.0889 16.7998C26.978 16.0242 26.7873 15.7398 26.5781 15.5771C26.3154 15.373 25.8103 15.1906 24.7012 15.0947C23.6152 15.0009 22.147 15 20.1025 15ZM23.7041 20.3018L18.3027 23.4531V17.1514L23.7041 20.3018Z" fill="white"/>
</svg>
